<?xml version="1.0" standalone="no"?>
<!DOCTYPE svg PUBLIC "-//W3C//DTD SVG 1.1//EN" "http://www.w3.org/Graphics/SVG/1.1/DTD/svg11.dtd" >
<svg xmlns="http://www.w3.org/2000/svg" xmlns:xlink="http://www.w3.org/1999/xlink" version="1.1">
<metadata>
Created by FontForge 20160407 at Tue Sep  6 18:10:49 2016
 By Jimmy Warting
Stem is a geometric sans-serif with semi-closed aperture and large x-height. 12 faces of it, including upright and true italic faces of different weights, are intended primarily for large point sizes. The Stem family will be supplemented with faces for text and caption setting. Design -- Alexandra Korolkova with the assistance of Maria Selezeneva and Isabella Chaeva. Released by ParaType in 2014.
</metadata>
<defs>
<font id="Stem-Regular" horiz-adv-x="600" >
  <font-face 
    font-family="Stem"
    font-weight="400"
    font-stretch="normal"
    units-per-em="1000"
    panose-1="2 11 5 3 2 2 3 2 2 4"
    ascent="778"
    descent="-222"
    x-height="520"
    cap-height="700"
    bbox="-505 -262 1257 933"
    underline-thickness="50"
    underline-position="-100"
    stemh="85"
    stemv="91"
    unicode-range="U+0020-FEFF"
  />
<missing-glyph horiz-adv-x="300" 
 />
    <glyph glyph-name="uniF350.var.accented" unicode="&#xf350;`" horiz-adv-x="590" 
d="M0 0l261 561h68l261 -561h-92l-62 131h-285l-61 -131h-90zM293 436l-109 -230h219zM424 767l-121 -152l-56 39l113 161z" />
    <glyph glyph-name="uniF355.var.accented" unicode="&#xf355;`" horiz-adv-x="536" 
d="M62 0v560h425v-81h-337v-154h314v-81h-314v-163h345v-81h-433zM408 767l-121 -152l-56 39l113 161z" />
    <glyph glyph-name="uniF358.var.accented" unicode="&#xf358;`" horiz-adv-x="632" 
d="M135 0h-73v560h87v-415l347 415h74v-560h-87v413zM432 767l-121 -152l-56 39l113 161z" />
    <glyph glyph-name="uniF35E.var.accented" unicode="&#xf35e;`" horiz-adv-x="666" 
d="M30 280c0 162 133 287 303 287c168 0 303 -120 303 -287c0 -165 -135 -287 -303 -287s-303 120 -303 287zM121 280c0 -120 97 -203 212 -203c119 0 212 83 212 203c0 122 -99 203 -212 203c-115 0 -212 -81 -212 -203zM462 767l-121 -152l-56 39l113 161z" />
    <glyph glyph-name="uniF363.var.accented" unicode="&#xf363;`" horiz-adv-x="590" 
d="M164 15l37 72c5 -3 14 -6 24 -6c18 0 36 11 55 49l6 12l-286 418h106l225 -327l169 327h90l-221 -431c-42 -83 -83 -129 -146 -129c-24 0 -45 5 -59 15zM426 767l-121 -152l-56 39l113 161z" />
    <glyph glyph-name="uniF36B.var.accented" unicode="&#xf36b;`" horiz-adv-x="729" 
d="M579 0v560h88v-560h-88zM269 276h-120v-195h118c101 0 155 29 155 102c0 63 -53 93 -153 93zM149 560v-202h123c162 0 241 -68 241 -175c0 -121 -93 -183 -249 -183h-202v560h87zM462 767l-121 -152l-56 39l113 161z" />
    <glyph glyph-name="uniF36D.var.accented" unicode="&#xf36d;`" horiz-adv-x="593" 
d="M171 245v81h301c-14 98 -92 163 -214 163c-64 0 -142 -30 -187 -85l-59 56c57 71 157 110 251 110c185 0 300 -113 300 -288c0 -166 -112 -292 -307 -292c-85 0 -186 31 -247 114l60 49c41 -53 120 -82 191 -82c121 0 202 73 213 174h-302zM386 767l-121 -152l-56 39
l113 161z" />
    <glyph glyph-name="uniF36E.var.accented" unicode="&#xf36e;`" horiz-adv-x="845" 
d="M62 0v560h87v-237h88c20 139 133 244 288 244c173 0 290 -110 290 -287c0 -165 -123 -287 -290 -287c-160 0 -272 102 -289 254h-87v-247h-87zM324 280c0 -120 86 -203 201 -203c121 0 199 83 199 203c0 129 -82 203 -199 203c-116 0 -201 -81 -201 -203zM544 767
l-121 -152l-56 39l113 161z" />
    <glyph glyph-name="uniF36F.var.accented" unicode="&#xf36f;`" horiz-adv-x="583" 
d="M434 0v201h-149l-176 -201h-105l190 216c-94 20 -150 79 -150 161c0 103 77 183 238 183h239v-560h-87zM262 282h172v197h-160c-99 0 -139 -41 -139 -101c0 -50 47 -91 127 -96zM428 767l-121 -152l-56 39l113 161z" />
    <glyph glyph-name="uniF371.var.accented" unicode="&#xf371;`" horiz-adv-x="546" 
d="M107 697c0 28 23 47 49 47c25 0 52 -19 52 -47c0 -31 -27 -49 -52 -49c-26 0 -49 18 -49 49zM373 697c0 28 25 47 53 47c24 0 50 -19 50 -47c0 -31 -25 -49 -50 -49c-28 0 -53 18 -53 49zM381 778l-109 -155l-44 21l81 163zM62 0v560h435v-81h-347v-154h324v-81h-324
v-163h355v-81h-443z" />
    <glyph glyph-name="afii10017.var.accented" unicode="&#x410;`" horiz-adv-x="688" 
d="M1 0l307 702h72l307 -702h-95l-78 177h-343l-77 -177h-93zM342 575l-137 -318h275zM514 852l-200 -97l-31 56l193 115z" />
    <glyph glyph-name="afii10022.var.accented" unicode="&#x415;`" horiz-adv-x="637" 
d="M74 0v700h504v-85h-413v-218h385v-83h-385v-229h422v-85h-513zM494 852l-200 -97l-31 56l193 115z" />
    <glyph glyph-name="afii10026.var.accented" unicode="&#x418;`" horiz-adv-x="742" 
d="M151 0h-77v700h91v-542l424 542h78v-700h-91v542zM528 852l-200 -97l-31 56l193 115z" />
    <glyph glyph-name="afii10032.var.accented" unicode="&#x41e;`" horiz-adv-x="783" 
d="M36 350c0 203 156 359 356 359c197 0 355 -150 355 -359c0 -206 -158 -359 -355 -359c-198 0 -356 150 -356 359zM131 350c0 -159 119 -272 261 -272c147 0 260 113 260 272c0 160 -120 272 -260 272c-143 0 -261 -112 -261 -272zM539 852l-200 -97l-31 56l193 115z" />
    <glyph glyph-name="afii10037.var.accented" unicode="&#x423;`" horiz-adv-x="677" 
d="M174 28l45 67c8 -6 18 -11 32 -11c30 0 56 34 83 90l-339 526h109l277 -433l207 433h94l-262 -540c-49 -103 -96 -160 -172 -160c-35 0 -64 18 -74 28zM504 852l-200 -97l-31 56l193 115z" />
    <glyph glyph-name="afii10045.var.accented" unicode="&#x42b;`" horiz-adv-x="852" 
d="M687 0v700h91v-700h-91zM316 355h-151v-270h148c124 0 193 42 193 141c0 86 -68 129 -190 129zM165 700v-260h154c189 0 282 -83 282 -214c0 -149 -109 -226 -292 -226h-235v700h91zM582 852l-200 -97l-31 56l193 115z" />
    <glyph glyph-name="afii10047.var.accented" unicode="&#x42d;`" horiz-adv-x="696" 
d="M201 315v85h364c-16 136 -112 224 -264 224c-77 0 -170 -39 -224 -107l-61 58c66 88 183 134 291 134c218 0 352 -138 352 -356c0 -208 -131 -362 -360 -362c-100 0 -216 37 -285 134l62 52c49 -66 143 -101 228 -101c150 0 250 99 262 239h-365zM464 852l-200 -97
l-31 56l193 115z" />
    <glyph glyph-name="afii10048.var.accented" unicode="&#x42e;`" horiz-adv-x="991" 
d="M74 0v700h91v-303h114c22 177 154 312 337 312c201 0 339 -150 339 -359c0 -206 -143 -359 -339 -359c-190 0 -320 134 -338 325h-113v-316h-91zM370 350c0 -159 105 -273 246 -273c149 0 244 114 244 273c0 160 -100 273 -244 273c-142 0 -246 -113 -246 -273zM737 852
l-200 -97l-31 56l193 115z" />
    <glyph glyph-name="afii10049.var.accented" unicode="&#x42f;`" horiz-adv-x="676" 
d="M511 0v259h-188l-213 -259h-110l227 274c-112 22 -180 98 -180 206c0 121 88 220 276 220h279v-700h-91zM297 344h214v271h-197c-124 0 -172 -59 -172 -137c0 -71 57 -127 155 -134zM525 852l-200 -97l-31 56l193 115z" />
    <glyph glyph-name="afii10023.var.accented" unicode="&#x401;`" horiz-adv-x="641" 
d="M123 813c0 28 23 48 55 48c25 0 52 -20 52 -48c0 -31 -27 -49 -52 -49c-32 0 -55 18 -55 49zM435 813c0 28 25 48 55 48c27 0 52 -19 52 -48c0 -31 -25 -49 -52 -49c-30 0 -55 18 -55 49zM424 900l-104 -148l-50 19l77 160zM74 0v700h508v-85h-417v-218h389v-83h-389
v-229h426v-85h-517z" />
    <glyph glyph-name="afii10065.var.accented" unicode="&#x430;`" horiz-adv-x="534" 
d="M101 395l-43 63c48 45 131 74 208 74c139 0 213 -77 213 -211v-321h-84v77c-30 -44 -92 -84 -182 -84c-113 0 -189 63 -189 159c0 113 99 161 249 161c39 0 96 -7 122 -15c0 94 -30 155 -139 155c-59 0 -107 -22 -155 -58zM233 69c87 0 144 60 162 102v53
c-26 9 -69 15 -111 15c-105 0 -171 -21 -171 -84c0 -54 49 -86 120 -86zM400 759l-122 -151l-56 39l114 160z" />
    <glyph glyph-name="afii10070.var.accented" unicode="&#x435;`" horiz-adv-x="569" 
d="M463 149l54 -50c-49 -73 -123 -108 -208 -108c-165 0 -277 105 -277 270c0 153 92 271 265 271c137 0 240 -92 240 -236c0 -17 -1 -40 -5 -63h-410c5 -105 84 -163 190 -163c63 0 120 34 151 79zM291 455c-97 0 -157 -61 -170 -146h327c-5 93 -64 146 -157 146zM431 759
l-122 -151l-56 39l114 160z" />
    <glyph glyph-name="afii10074.var.accented" unicode="&#x438;`" 
d="M138 0h-77v520h84v-390l316 390h78v-520h-84v389zM438 759l-122 -151l-56 39l114 160z" />
    <glyph glyph-name="afii10080.var.accented" unicode="&#x43e;`" horiz-adv-x="616" 
d="M32 261c0 158 112 271 275 271c164 0 277 -113 277 -271c0 -157 -113 -270 -277 -270c-161 0 -275 113 -275 270zM121 261c0 -111 77 -191 186 -191c111 0 188 77 188 191c0 115 -81 192 -188 192s-186 -76 -186 -192zM443 759l-122 -151l-56 39l114 160z" />
    <glyph glyph-name="afii10085.var.accented" unicode="&#x443;`" horiz-adv-x="521" 
d="M73 -198l33 73c7 -3 14 -5 22 -5c38 0 65 26 101 110l16 39l-252 501h99l195 -395l147 395h92l-198 -512c-71 -175 -125 -218 -197 -218c-22 0 -41 4 -58 12zM406 759l-122 -151l-56 39l114 160z" />
    <glyph glyph-name="afii10093.var.accented" unicode="&#x44b;`" horiz-adv-x="690" 
d="M61 0v520h84v-162h112c164 0 214 -82 214 -178c0 -94 -56 -180 -222 -180h-188zM248 278h-103v-198h102c100 0 135 36 135 99s-37 99 -134 99zM545 0v520h85v-520h-85zM453 759l-122 -151l-56 39l114 160z" />
    <glyph glyph-name="afii10095.var.accented" unicode="&#x44d;`" horiz-adv-x="543" 
d="M162 228v76h258c-14 101 -83 149 -180 149c-64 0 -129 -25 -168 -83l-64 45c52 73 134 117 234 117c165 0 269 -104 269 -271c0 -154 -98 -270 -269 -270c-98 0 -186 32 -233 108l63 47c35 -50 89 -76 163 -76c108 0 178 67 187 158h-260zM378 759l-122 -151l-56 39
l114 160z" />
    <glyph glyph-name="afii10096.var.accented" unicode="&#x44e;`" horiz-adv-x="811" 
d="M61 0v520h84v-213h104c20 133 121 225 263 225c158 0 267 -113 267 -271c0 -157 -110 -270 -267 -270c-147 0 -249 96 -264 236h-103v-227h-84zM335 261c0 -114 77 -188 178 -188c103 0 177 74 177 188c0 113 -73 189 -177 189c-99 0 -178 -76 -178 -189zM539 759
l-122 -151l-56 39l114 160z" />
    <glyph glyph-name="afii10097.var.accented" unicode="&#x44f;`" horiz-adv-x="538" 
d="M268 520h209v-520h-84v184h-127l-154 -184h-102l166 197c-79 14 -133 75 -133 156c0 89 58 167 225 167zM132 351c0 -50 46 -87 124 -87h137v176h-135c-91 0 -126 -37 -126 -89zM441 759l-122 -151l-56 39l114 160z" />
    <glyph glyph-name="afii10071.var.accented" unicode="&#x451;`" horiz-adv-x="569" 
d="M110 682c0 28 24 47 50 47c25 0 51 -19 51 -47c0 -30 -26 -49 -51 -49c-26 0 -50 19 -50 49zM377 682c0 28 24 47 52 47c25 0 51 -19 51 -47c0 -30 -25 -49 -51 -49c-28 0 -52 19 -52 49zM385 763l-109 -155l-45 21l82 163zM463 149l54 -50c-49 -73 -123 -108 -208 -108
c-165 0 -277 105 -277 270c0 153 92 271 265 271c137 0 240 -92 240 -236c0 -17 -1 -40 -5 -63h-410c5 -105 84 -163 190 -163c63 0 120 34 151 79zM291 455c-97 0 -157 -61 -170 -146h327c-5 93 -64 146 -157 146z" />
    <glyph glyph-name="fi" unicode="fi" horiz-adv-x="561" 
d="M2 440v80h96v24c0 147 90 194 174 194c27 0 56 -6 73 -18l-31 -72c-12 9 -26 10 -38 10c-54 0 -94 -30 -94 -121v-17h154v-80h-154v-440h-84v440h-96zM405 0v520h84v-520h-84zM394 679c0 28 24 49 54 49c28 0 52 -21 52 -49c0 -30 -24 -52 -52 -52c-31 0 -54 22 -54 52z
" />
    <glyph glyph-name="fl" unicode="fl" horiz-adv-x="503" 
d="M350 0v625c-16 20 -39 33 -74 33c-54 0 -94 -30 -94 -121v-17h104v-80h-104v-440h-84v440h-96v80h96v24c0 147 90 194 174 194c38 0 73 -12 99 -32l63 27v-733h-84z" />
    <glyph glyph-name=".notdef" horiz-adv-x="300" 
 />
    <glyph glyph-name="space" unicode=" " horiz-adv-x="300" 
 />
    <glyph glyph-name="exclam" unicode="!" horiz-adv-x="310" 
d="M111 193v507h88v-507h-88zM92 57c0 27 25 56 62 56c35 0 60 -29 60 -56c0 -31 -25 -59 -60 -59c-37 0 -62 28 -62 59z" />
    <glyph glyph-name="quotedbl" unicode="&#x22;" horiz-adv-x="422" 
d="M85 471v229h87v-229h-87zM250 471v229h87v-229h-87z" />
    <glyph glyph-name="numbersign" unicode="#" horiz-adv-x="697" 
d="M304 11l69 187h-164l-78 -211l-74 24l70 187h-87v75h115l58 154h-173v75h200c26 68 55 146 79 211l73 -24l-70 -187h164l78 211l74 -23l-71 -188h91v-75h-118l-58 -154h176v-75h-203l-78 -211zM295 427l-58 -154h164l57 154h-163z" />
    <glyph glyph-name="dollar" unicode="$" horiz-adv-x="594" 
d="M474 186c0 174 -432 72 -432 331c0 96 85 178 224 190v79h84v-80c87 -9 161 -42 206 -99l-59 -59c-42 42 -107 75 -198 75c-67 0 -163 -26 -163 -104c0 -171 432 -76 432 -326c0 -110 -92 -188 -218 -200v-89h-84v90c-105 13 -198 69 -239 132l59 64
c45 -58 128 -113 237 -113c80 0 151 40 151 109z" />
    <glyph glyph-name="percent" unicode="%" horiz-adv-x="880" 
d="M151 23l517 699l63 -46l-514 -691zM43 532c0 101 79 171 183 171c103 0 182 -70 182 -171c0 -100 -79 -170 -182 -170c-104 0 -183 70 -183 170zM127 532c0 -60 48 -99 99 -99c53 0 98 39 98 99s-46 99 -98 99c-53 0 -99 -39 -99 -99zM472 167c0 101 79 170 183 170
c103 0 182 -69 182 -170c0 -100 -79 -171 -182 -171c-104 0 -183 71 -183 171zM556 167c0 -60 48 -99 99 -99c53 0 98 39 98 99s-46 99 -98 99c-53 0 -99 -39 -99 -99z" />
    <glyph glyph-name="ampersand" unicode="&#x26;" horiz-adv-x="783" 
d="M768 0h-119c-39 28 -66 57 -98 87c-47 -55 -131 -96 -226 -96c-158 0 -265 83 -265 199c0 117 115 183 205 239c-40 51 -67 99 -67 155c0 72 57 125 147 125c98 0 149 -50 149 -127c0 -65 -53 -123 -118 -168c36 -57 105 -135 174 -208c41 64 72 163 72 262h86
c0 -111 -36 -242 -100 -325c47 -52 100 -98 160 -143zM329 72c59 0 127 28 161 72c-69 75 -141 164 -183 220c-82 -55 -153 -95 -153 -168c0 -65 64 -124 175 -124zM287 572c0 -39 25 -68 47 -99c43 31 72 65 72 101c0 34 -20 61 -60 61c-35 0 -59 -21 -59 -63z" />
    <glyph glyph-name="quotesingle" unicode="'" horiz-adv-x="257" 
d="M85 471v229h87v-229h-87z" />
    <glyph glyph-name="parenleft" unicode="(" horiz-adv-x="316" 
d="M306 -146l-57 -58c-160 138 -213 320 -213 463c0 144 53 319 214 464l55 -58c-134 -125 -183 -269 -183 -406c0 -152 71 -296 184 -405z" />
    <glyph glyph-name="parenright" unicode=")" horiz-adv-x="315" 
d="M67 -203l-57 55c126 110 183 271 183 407c0 137 -48 280 -183 405l56 59c161 -145 213 -320 213 -464c0 -143 -52 -325 -212 -462z" />
    <glyph glyph-name="asterisk" unicode="*" horiz-adv-x="501" 
d="M296 700l-6 -136l129 47l25 -82l-131 -37l85 -108l-72 -52l-75 111l-76 -113l-73 53l86 110l-132 37l26 82l131 -47l-5 135h88z" />
    <glyph glyph-name="plus" unicode="+" horiz-adv-x="594" 
d="M68 322v76h189v190h79v-190h191v-76h-191v-192h-79v192h-189z" />
    <glyph glyph-name="comma" unicode="," horiz-adv-x="219" 
d="M110 0c-36 -4 -65 16 -65 53c0 34 22 57 61 57c43 0 73 -29 73 -86c0 -109 -65 -153 -128 -168l-21 47c38 10 89 51 80 97z" />
    <glyph glyph-name="hyphen" unicode="-" horiz-adv-x="409" 
d="M76 237v77h256v-77h-256z" />
    <glyph glyph-name="period" unicode="." horiz-adv-x="222" 
d="M50 57c0 27 25 56 62 56c35 0 60 -29 60 -56c0 -31 -25 -59 -60 -59c-37 0 -62 28 -62 59z" />
    <glyph glyph-name="slash" unicode="/" horiz-adv-x="338" 
d="M-34 -177l332 890l74 -24l-332 -894z" />
    <glyph glyph-name="zero" unicode="0" horiz-adv-x="680" 
d="M43 350c0 207 95 358 297 358c203 0 298 -138 298 -358c0 -207 -93 -358 -296 -358c-193 0 -299 151 -299 358zM135 350c0 -170 77 -273 207 -273c144 0 204 103 204 273s-61 273 -206 273c-143 0 -205 -105 -205 -273z" />
    <glyph glyph-name="one" unicode="1" horiz-adv-x="395" 
d="M3 589l240 115h57v-704h-86v597l-179 -83z" />
    <glyph glyph-name="two" unicode="2" horiz-adv-x="612" 
d="M123 469l-73 26c24 116 111 213 268 213c147 0 232 -86 232 -210c0 -174 -164 -292 -284 -367l-77 -48h387v-83h-545v68l152 101c129 85 275 179 275 320c0 97 -67 132 -146 132c-119 0 -173 -83 -189 -152z" />
    <glyph glyph-name="three" unicode="3" horiz-adv-x="617" 
d="M112 496l-75 34c36 103 128 179 279 179c137 0 236 -68 236 -176c0 -81 -43 -141 -123 -164c70 -5 139 -56 139 -167c0 -136 -111 -211 -256 -211c-157 0 -260 77 -294 188l81 35c34 -73 92 -137 219 -137c96 0 158 44 158 124c0 89 -81 116 -180 116h-78v83h62
c111 0 180 50 180 116c0 71 -59 108 -148 108c-115 0 -175 -64 -200 -128z" />
    <glyph glyph-name="four" unicode="4" horiz-adv-x="672" 
d="M439 0v143h-428v58l438 499h77v-476h130v-81h-130v-143h-87zM131 224h308v336z" />
    <glyph glyph-name="five" unicode="5" horiz-adv-x="629" 
d="M73 341l41 359h440v-85h-363l-26 -188c30 22 85 39 159 39c168 0 262 -101 262 -234c0 -140 -117 -241 -271 -241c-128 0 -239 60 -285 171l80 34c27 -61 97 -120 205 -120c120 0 179 71 179 153c0 94 -75 153 -194 153c-70 0 -115 -19 -155 -60z" />
    <glyph glyph-name="six" unicode="6" horiz-adv-x="665" 
d="M43 331c0 252 143 378 311 378c119 0 210 -54 248 -137l-68 -46c-38 60 -99 97 -184 97c-118 0 -220 -95 -218 -272c40 74 132 117 230 117c164 0 264 -95 264 -234c0 -145 -122 -243 -277 -243c-186 0 -306 120 -306 340zM143 246c18 -93 89 -169 205 -169
c107 0 186 61 186 153c0 102 -75 152 -177 152c-127 0 -202 -74 -214 -136z" />
    <glyph glyph-name="seven" unicode="7" horiz-adv-x="571" 
d="M20 615v85h531v-57l-348 -643h-95l336 615h-424z" />
    <glyph glyph-name="eight" unicode="8" horiz-adv-x="667" 
d="M319 399h31c87 0 158 46 158 114c0 73 -60 113 -176 113c-113 0 -173 -41 -173 -113c0 -65 66 -114 160 -114zM348 320h-25c-109 0 -187 -53 -187 -122c0 -74 68 -124 197 -124c131 0 198 47 198 123c0 78 -75 123 -183 123zM334 -9c-178 0 -290 74 -290 198
c0 83 55 145 138 173c-81 27 -115 91 -115 157c0 114 96 190 266 190c172 0 267 -76 267 -190c0 -71 -42 -120 -111 -152c95 -29 133 -90 133 -174c0 -128 -111 -202 -288 -202z" />
    <glyph glyph-name="nine" unicode="9" horiz-adv-x="667" 
d="M625 363c0 -244 -127 -372 -313 -372c-121 0 -209 53 -252 124l72 50c41 -56 114 -88 192 -88c129 0 222 116 211 269c-31 -70 -110 -132 -227 -132c-155 0 -268 96 -268 240c0 157 119 255 296 255c178 0 289 -123 289 -346zM520 457c-13 83 -71 166 -194 166
c-119 0 -194 -61 -194 -166c0 -100 77 -157 192 -157s183 84 196 157z" />
    <glyph glyph-name="colon" unicode=":" horiz-adv-x="322" 
d="M100 57c0 27 25 56 62 56c35 0 60 -29 60 -56c0 -31 -25 -59 -60 -59c-37 0 -62 28 -62 59zM100 467c0 27 25 56 62 56c35 0 60 -29 60 -56c0 -31 -25 -59 -60 -59c-37 0 -62 28 -62 59z" />
    <glyph glyph-name="semicolon" unicode=";" horiz-adv-x="319" 
d="M98 467c0 27 25 56 62 56c35 0 60 -29 60 -56c0 -31 -25 -59 -60 -59c-37 0 -62 28 -62 59zM160 0c-36 -4 -65 16 -65 53c0 34 22 57 61 57c43 0 73 -29 73 -86c0 -109 -65 -153 -128 -168l-21 47c38 10 89 51 80 97z" />
    <glyph glyph-name="less" unicode="&#x3c;" horiz-adv-x="570" 
d="M481 70l-436 274v35l436 272v-92l-319 -198l319 -199v-92z" />
    <glyph glyph-name="equal" unicode="=" horiz-adv-x="583" 
d="M68 412v74h448v-74h-448zM68 233v74h448v-74h-448z" />
    <glyph glyph-name="greater" unicode="&#x3e;" horiz-adv-x="570" 
d="M526 344l-437 -274v92l320 199l-320 198v92l437 -272v-35z" />
    <glyph glyph-name="question" unicode="?" horiz-adv-x="605" 
d="M473 518c0 60 -61 104 -154 104c-90 0 -172 -44 -191 -132l-78 22c10 100 105 197 271 197c154 0 244 -78 244 -183c0 -196 -244 -206 -244 -303c0 -12 1 -17 4 -31l-81 -1c-5 19 -7 40 -6 55c9 135 235 135 235 272zM221 57c0 27 25 56 62 56c35 0 60 -29 60 -56
c0 -31 -25 -59 -60 -59c-37 0 -62 28 -62 59z" />
    <glyph glyph-name="at" unicode="@" horiz-adv-x="990" 
d="M618 0v40c-30 -29 -80 -49 -136 -49c-133 0 -225 95 -225 238c0 136 109 241 257 241c68 0 137 -19 189 -55v-336c97 6 146 82 146 195c0 188 -143 311 -345 311c-206 0 -363 -148 -363 -354c0 -200 152 -355 363 -355c43 0 82 5 121 16l7 -77c-38 -10 -84 -16 -128 -16
c-266 0 -444 189 -444 432c0 246 186 432 444 432c252 0 426 -157 426 -387c0 -135 -78 -276 -243 -276h-69zM496 68c49 0 99 32 122 64v233c-33 19 -71 28 -105 28c-96 0 -168 -72 -168 -167c0 -97 61 -158 151 -158z" />
    <glyph glyph-name="A" unicode="A" horiz-adv-x="688" 
d="M1 0l307 702h72l307 -702h-95l-78 177h-343l-77 -177h-93zM342 575l-137 -318h275z" />
    <glyph glyph-name="B" unicode="B" horiz-adv-x="673" 
d="M74 0v700h283c190 0 247 -73 247 -174c0 -77 -37 -133 -99 -160c76 -16 124 -74 124 -166c0 -142 -110 -200 -277 -200h-278zM361 316h-196v-231h186c127 0 184 37 184 120c0 74 -53 111 -174 111zM349 615h-184v-216h199c89 0 147 40 147 108c0 72 -40 108 -162 108z
" />
    <glyph glyph-name="C" unicode="C" horiz-adv-x="688" 
d="M617 172l52 -58c-53 -74 -158 -123 -272 -123c-221 0 -361 141 -361 359c0 201 137 359 354 359c126 0 222 -53 269 -116l-59 -57c-54 54 -116 86 -208 86c-163 0 -261 -112 -261 -272c0 -164 109 -272 272 -272c97 0 166 40 214 94z" />
    <glyph glyph-name="D" unicode="D" horiz-adv-x="712" 
d="M74 0v700h216c284 0 386 -158 386 -340c0 -200 -122 -360 -396 -360h-206zM288 615h-123v-530h121c209 0 296 116 296 275c0 146 -78 255 -294 255z" />
    <glyph glyph-name="E" unicode="E" horiz-adv-x="637" 
d="M74 0v700h504v-85h-413v-218h385v-83h-385v-229h422v-85h-513z" />
    <glyph glyph-name="F" unicode="F" horiz-adv-x="601" 
d="M74 0v700h503v-85h-411v-240h383v-85h-383v-290h-92z" />
    <glyph glyph-name="G" unicode="G" horiz-adv-x="710" 
d="M394 275v83h280v-261c-62 -67 -170 -106 -270 -106c-212 0 -368 141 -368 359c0 201 153 359 357 359c118 0 210 -39 264 -106l-57 -59c-42 46 -109 78 -201 78c-160 0 -268 -110 -268 -272c0 -169 115 -272 275 -272c62 0 130 18 181 60v137h-193z" />
    <glyph glyph-name="H" unicode="H" horiz-adv-x="747" 
d="M582 0v313h-417v-313h-91v700h91v-302h417v302h91v-700h-91z" />
    <glyph glyph-name="I" unicode="I" horiz-adv-x="239" 
d="M74 0v700h91v-700h-91z" />
    <glyph glyph-name="J" unicode="J" horiz-adv-x="477" 
d="M413 700v-488c0 -143 -84 -221 -208 -221c-112 0 -180 68 -209 127l68 52c27 -49 75 -95 134 -94c79 1 124 38 124 152v472h91z" />
    <glyph glyph-name="K" unicode="K" horiz-adv-x="661" 
d="M74 0v700h91v-338l354 338h119l-330 -317l354 -383h-120l-302 323l-75 -72v-251h-91z" />
    <glyph glyph-name="L" unicode="L" horiz-adv-x="590" 
d="M74 0v700h91v-615h415v-85h-506z" />
    <glyph glyph-name="M" unicode="M" horiz-adv-x="837" 
d="M74 0v700h84l266 -352l257 352h82v-700h-91v543l-239 -322h-22l-246 322v-543h-91z" />
    <glyph glyph-name="N" unicode="N" horiz-adv-x="736" 
d="M662 0h-71l-429 534v-534h-88v700h72l428 -536v536h88v-700z" />
    <glyph glyph-name="O" unicode="O" horiz-adv-x="783" 
d="M36 350c0 203 156 359 356 359c197 0 355 -150 355 -359c0 -206 -158 -359 -355 -359c-198 0 -356 150 -356 359zM131 350c0 -159 119 -272 261 -272c147 0 260 113 260 272c0 160 -120 272 -260 272c-143 0 -261 -112 -261 -272z" />
    <glyph glyph-name="P" unicode="P" horiz-adv-x="663" 
d="M165 0h-91v700h272c234 0 287 -113 287 -220c0 -113 -74 -222 -288 -222h-180v-258zM350 615h-185v-273h178c137 0 196 56 196 139c0 78 -50 134 -189 134z" />
    <glyph glyph-name="Q" unicode="Q" horiz-adv-x="783" 
d="M36 350c0 203 156 359 356 359c197 0 355 -150 355 -359c0 -98 -39 -189 -111 -262l70 -84l-62 -52l-72 87c-53 -30 -114 -48 -180 -48c-203 0 -356 150 -356 359zM131 350c0 -159 115 -272 261 -272c43 0 86 11 125 34l-60 72l58 51l64 -77c45 47 73 114 73 192
c0 160 -116 272 -260 272c-146 0 -261 -112 -261 -272z" />
    <glyph glyph-name="R" unicode="R" horiz-adv-x="678" 
d="M165 0h-91v700h268c213 0 271 -100 271 -210c0 -100 -70 -177 -171 -198l224 -292h-111l-208 274h-182v-274zM339 615h-174v-256h180c106 0 175 51 175 131c0 73 -45 125 -181 125z" />
    <glyph glyph-name="S" unicode="S" horiz-adv-x="613" 
d="M480 186c0 174 -432 72 -432 331c0 104 100 192 259 192c109 0 202 -34 255 -102l-59 -59c-42 42 -107 75 -198 75c-67 0 -163 -26 -163 -104c0 -171 432 -76 432 -326c0 -120 -109 -202 -254 -202c-124 0 -239 63 -287 135l59 64c45 -58 128 -113 237 -113
c80 0 151 40 151 109z" />
    <glyph glyph-name="T" unicode="T" horiz-adv-x="583" 
d="M3 615v85h578v-85h-244v-615h-91v615h-243z" />
    <glyph glyph-name="U" unicode="U" horiz-adv-x="730" 
d="M660 700v-404c0 -216 -144 -304 -286 -304c-163 0 -304 104 -304 310v398h91v-385c0 -154 95 -237 213 -237c130 0 195 92 195 232v390h91z" />
    <glyph glyph-name="V" unicode="V" horiz-adv-x="714" 
d="M718 700l-320 -700h-66l-336 700h98l273 -572l256 572h95z" />
    <glyph glyph-name="W" unicode="W" horiz-adv-x="964" 
d="M962 700l-208 -700h-78l-190 544l-187 -544h-78l-218 700h95l167 -540l183 540h77l188 -539l159 539h90z" />
    <glyph glyph-name="X" unicode="X" horiz-adv-x="660" 
d="M639 700l-253 -344l261 -356h-109l-208 283l-208 -283h-109l262 356l-251 344h108l199 -271l198 271h110z" />
    <glyph glyph-name="Y" unicode="Y" horiz-adv-x="632" 
d="M642 700l-282 -435v-265h-91v265l-279 435h111l216 -339l219 339h106z" />
    <glyph glyph-name="Z" unicode="Z" horiz-adv-x="631" 
d="M31 615v85h570v-61l-459 -554h469v-85h-598v61l457 554h-439z" />
    <glyph glyph-name="bracketleft" unicode="[" horiz-adv-x="324" 
d="M60 -191v901h256v-83h-167v-735h167v-83h-256z" />
    <glyph glyph-name="backslash" unicode="\" horiz-adv-x="338" 
d="M40 713l332 -890l-74 -28l-332 894z" />
    <glyph glyph-name="bracketright" unicode="]" horiz-adv-x="324" 
d="M264 710v-901h-257v83h168v735h-168v83h257z" />
    <glyph glyph-name="asciicircum" unicode="^" horiz-adv-x="499" 
d="M35 429l188 279h54l187 -279h-96l-118 180l-119 -180h-96z" />
    <glyph glyph-name="underscore" unicode="_" horiz-adv-x="311" 
d="M0 -191v79h311v-79h-311z" />
    <glyph glyph-name="grave" unicode="`" horiz-adv-x="370" 
d="M320 608l-128 149l66 50l112 -159z" />
    <glyph glyph-name="a" unicode="a" horiz-adv-x="534" 
d="M101 395l-43 63c48 45 131 74 208 74c139 0 213 -77 213 -211v-321h-84v77c-30 -44 -92 -84 -182 -84c-113 0 -189 63 -189 159c0 113 99 161 249 161c39 0 96 -7 122 -15c0 94 -30 155 -139 155c-59 0 -107 -22 -155 -58zM233 69c87 0 144 60 162 102v53
c-26 9 -69 15 -111 15c-105 0 -171 -21 -171 -84c0 -54 49 -86 120 -86z" />
    <glyph glyph-name="b" unicode="b" horiz-adv-x="592" 
d="M61 95v635h84v-273c44 51 103 75 172 75c153 0 243 -109 243 -263c0 -172 -106 -278 -269 -278c-92 0 -187 45 -230 104zM304 453c-72 0 -130 -46 -159 -100v-218c35 -41 97 -65 152 -65c99 0 174 71 174 194c0 119 -69 189 -167 189z" />
    <glyph glyph-name="c" unicode="c" horiz-adv-x="532" 
d="M464 150l60 -43c-40 -76 -131 -116 -214 -116c-165 0 -278 105 -278 270c0 153 109 271 273 271c93 0 176 -42 211 -106l-65 -44c-36 49 -80 71 -144 71c-107 0 -186 -80 -186 -192c0 -114 79 -191 197 -191c63 0 114 32 146 80z" />
    <glyph glyph-name="d" unicode="d" horiz-adv-x="595" 
d="M450 0v62c-19 -30 -75 -71 -162 -71c-151 0 -256 101 -256 268c0 162 118 273 263 273c75 0 124 -20 155 -51v249h84v-730h-84zM300 71c79 0 131 59 150 99v210c-32 47 -78 73 -145 73c-99 0 -184 -74 -184 -192s75 -190 179 -190z" />
    <glyph glyph-name="e" unicode="e" horiz-adv-x="569" 
d="M463 149l54 -50c-49 -73 -123 -108 -208 -108c-165 0 -277 105 -277 270c0 153 92 271 265 271c137 0 240 -92 240 -236c0 -17 -1 -40 -5 -63h-410c5 -105 84 -163 190 -163c63 0 120 34 151 79zM291 455c-97 0 -157 -61 -170 -146h327c-5 93 -64 146 -157 146z" />
    <glyph glyph-name="f" unicode="f" horiz-adv-x="339" 
d="M2 440v80h96v24c0 147 90 194 174 194c55 0 103 -25 128 -61l-50 -52c-16 20 -39 33 -74 33c-54 0 -94 -30 -94 -121v-17h161v-80h-161v-440h-84v440h-96z" />
    <glyph glyph-name="g" unicode="g" horiz-adv-x="593" 
d="M533 520v-480c0 -176 -100 -249 -233 -249c-114 0 -203 49 -232 126l75 33c20 -40 69 -79 152 -79c101 0 153 58 153 154v31c-34 -40 -69 -65 -157 -65c-155 0 -259 101 -259 270c0 168 117 270 260 270c78 0 132 -28 156 -57v46h85zM305 70c74 0 126 48 143 99v209
c-24 41 -74 74 -144 74c-99 0 -183 -67 -183 -193c0 -118 72 -189 184 -189z" />
    <glyph glyph-name="h" unicode="h" horiz-adv-x="588" 
d="M61 0v730h84v-278c38 50 92 79 169 79c142 0 219 -72 219 -236v-295h-84v287c0 113 -49 165 -151 165c-73 0 -126 -47 -153 -108v-344h-84z" />
    <glyph glyph-name="i" unicode="i" horiz-adv-x="228" 
d="M72 0v520h84v-520h-84zM61 689c0 28 24 49 54 49c28 0 52 -21 52 -49c0 -30 -24 -52 -52 -52c-31 0 -54 22 -54 52z" />
    <glyph glyph-name="j" unicode="j" horiz-adv-x="229" 
d="M159 520v-548c0 -105 -51 -181 -162 -181c-65 0 -121 28 -147 82l72 40c9 -18 28 -42 71 -42c53 0 82 33 82 111v538h84zM63 690c0 28 23 48 54 48c29 0 51 -20 51 -48c0 -31 -21 -52 -51 -52c-31 0 -54 21 -54 52z" />
    <glyph glyph-name="k" unicode="k" horiz-adv-x="524" 
d="M61 0v730h84v-441l252 231h113l-250 -231l267 -289h-111l-230 242l-41 -34v-208h-84z" />
    <glyph glyph-name="l" unicode="l" horiz-adv-x="222" 
d="M69 0v730h84v-730h-84z" />
    <glyph glyph-name="m" unicode="m" horiz-adv-x="869" 
d="M815 345v-345h-84v319c0 76 -28 133 -108 133c-69 0 -117 -40 -143 -95v-357h-84v346c0 62 -40 106 -108 106c-74 0 -124 -60 -143 -105v-347h-84v520h84v-70c29 46 89 81 159 81c72 0 126 -29 153 -81c40 53 99 81 171 81c109 0 187 -52 187 -186z" />
    <glyph glyph-name="n" unicode="n" horiz-adv-x="589" 
d="M61 0v520h84v-68c34 52 103 79 178 79c136 0 211 -70 211 -235v-296h-84v286c0 115 -50 166 -152 166c-64 0 -125 -42 -153 -105v-347h-84z" />
    <glyph glyph-name="o" unicode="o" horiz-adv-x="616" 
d="M32 261c0 158 112 271 275 271c164 0 277 -113 277 -271c0 -157 -113 -270 -277 -270c-161 0 -275 113 -275 270zM121 261c0 -111 77 -191 186 -191c111 0 188 77 188 191c0 115 -81 192 -188 192s-186 -76 -186 -192z" />
    <glyph glyph-name="p" unicode="p" horiz-adv-x="594" 
d="M61 -200v720h84v-65c38 56 106 77 168 77c154 0 249 -109 249 -263c0 -159 -105 -278 -259 -278c-66 0 -120 15 -158 53v-244h-84zM304 453c-82 0 -138 -55 -159 -108v-194c32 -57 90 -81 151 -81c103 0 177 80 177 193c0 116 -64 190 -169 190z" />
    <glyph glyph-name="q" unicode="q" horiz-adv-x="593" 
d="M448 -200v249c-30 -33 -79 -58 -157 -58c-155 0 -259 105 -259 270c0 157 122 270 274 270c70 0 117 -19 142 -45v34h85v-720h-85zM301 70c69 0 123 37 147 89v229c-31 45 -80 64 -142 64c-101 0 -185 -82 -185 -193c0 -116 76 -189 180 -189z" />
    <glyph glyph-name="r" unicode="r" horiz-adv-x="354" 
d="M61 0v520h84v-40c18 37 67 51 107 51c50 0 83 -18 106 -47l-53 -58c-12 16 -30 26 -62 26c-45 0 -86 -36 -98 -90v-362h-84z" />
    <glyph glyph-name="s" unicode="s" horiz-adv-x="497" 
d="M380 142c0 123 -331 49 -331 241c0 93 89 149 216 149c91 0 159 -39 194 -90l-59 -55c-28 38 -82 66 -150 66c-53 0 -112 -20 -112 -66c0 -109 330 -41 330 -244c0 -105 -88 -152 -208 -152c-107 0 -198 49 -235 123l67 47c31 -55 102 -91 182 -91c60 0 106 18 106 72z
" />
    <glyph glyph-name="t" unicode="t" horiz-adv-x="420" 
d="M6 440v80h108v133h84v-133h179v-80h-179v-229c0 -103 28 -138 90 -138c36 0 66 15 94 37l38 -62c-32 -35 -82 -55 -147 -55c-102 0 -159 68 -159 196v251h-108z" />
    <glyph glyph-name="u" unicode="u" horiz-adv-x="581" 
d="M521 523v-523h-84v74c-36 -50 -94 -83 -169 -83c-142 0 -214 71 -214 231v301h84v-289c0 -89 30 -164 137 -164c72 0 130 42 162 113v340h84z" />
    <glyph glyph-name="v" unicode="v" horiz-adv-x="512" 
d="M525 520l-233 -520h-62l-243 520h97l179 -389l172 389h90z" />
    <glyph glyph-name="w" unicode="w" horiz-adv-x="761" 
d="M767 520l-169 -520h-68l-146 390l-148 -390h-66l-176 520h90l125 -380l142 380h66l145 -383l119 383h86z" />
    <glyph glyph-name="x" unicode="x" horiz-adv-x="535" 
d="M522 520l-199 -251l209 -269h-105l-161 209l-163 -209h-100l208 268l-197 252h105l150 -191l151 191h102z" />
    <glyph glyph-name="y" unicode="y" horiz-adv-x="521" 
d="M73 -198l33 73c7 -3 14 -5 22 -5c38 0 65 26 101 110l16 39l-252 501h99l195 -395l147 395h92l-198 -512c-71 -175 -125 -218 -197 -218c-22 0 -41 4 -58 12z" />
    <glyph glyph-name="z" unicode="z" horiz-adv-x="496" 
d="M36 441v79h440v-55l-329 -386h323v-79h-450v56l329 385h-313z" />
    <glyph glyph-name="braceleft" unicode="{" horiz-adv-x="330" 
d="M102 -54v185c0 59 -29 91 -86 91v75c46 0 86 16 86 93v177c0 96 38 143 142 143h70v-77h-53c-54 0 -73 -31 -73 -88v-176c0 -55 -23 -97 -66 -108c41 -9 66 -44 66 -109v-182c0 -65 21 -84 76 -84h50v-77h-77c-88 0 -135 40 -135 137z" />
    <glyph glyph-name="bar" unicode="|" horiz-adv-x="318" 
d="M116 0v700h86v-700h-86z" />
    <glyph glyph-name="braceright" unicode="}" horiz-adv-x="330" 
d="M228 131v-185c0 -97 -47 -137 -135 -137h-77v77h50c55 0 76 19 76 84v182c0 65 25 100 66 109c-43 11 -66 53 -66 108v176c0 57 -19 88 -73 88h-53v77h70c104 0 142 -47 142 -143v-177c0 -77 40 -93 86 -93v-75c-57 0 -86 -32 -86 -91z" />
    <glyph glyph-name="asciitilde" unicode="~" horiz-adv-x="578" 
d="M83 300l-43 57c44 43 97 82 167 72c72 -10 128 -67 195 -67c34 0 70 19 99 53l37 -59c-40 -43 -90 -68 -133 -68c-89 0 -142 70 -219 70c-35 0 -71 -23 -103 -58z" />
    <glyph glyph-name="uni00A0" unicode="&#xa0;" horiz-adv-x="300" 
 />
    <glyph glyph-name="exclamdown" unicode="&#xa1;" horiz-adv-x="310" 
d="M111 -182v507h88v-507h-88zM92 461c0 31 25 59 62 59c35 0 60 -28 60 -59c0 -27 -25 -56 -60 -56c-37 0 -62 29 -62 56z" />
    <glyph glyph-name="cent" unicode="&#xa2;" horiz-adv-x="532" 
d="M464 150l60 -43c-35 -67 -110 -106 -184 -114v-193h-88v196c-133 21 -220 120 -220 265c0 136 86 244 220 266v173h88v-170c78 -9 145 -48 176 -104l-65 -44c-31 42 -68 64 -118 69v-381c56 5 101 36 131 80zM121 261c0 -94 53 -163 138 -184v370
c-82 -20 -138 -92 -138 -186z" />
    <glyph glyph-name="sterling" unicode="&#xa3;" horiz-adv-x="592" 
d="M71 271v71h68c-19 48 -46 88 -46 164c0 104 82 202 217 202c82 0 155 -30 202 -83l-48 -66c-47 47 -100 64 -154 64c-66 0 -125 -48 -125 -122c0 -57 30 -102 49 -159h170v-71h-155c1 -9 2 -18 2 -29c0 -51 -17 -97 -35 -121c66 -1 130 -46 198 -46c45 0 68 14 105 54
l43 -63c-42 -46 -93 -69 -148 -69c-80 0 -145 49 -225 49c-39 0 -77 -15 -118 -54l-39 64c29 29 60 48 88 57c26 34 42 73 42 124c0 12 -1 23 -3 34h-88z" />
    <glyph glyph-name="currency" unicode="&#xa4;" horiz-adv-x="611" 
d="M73 347c0 50 14 97 42 137l-87 88l54 55l89 -89c35 26 82 42 135 42c54 0 99 -15 135 -42l94 93l55 -54l-94 -94c27 -39 43 -88 43 -136c0 -49 -15 -97 -42 -135l89 -90l-54 -55l-90 90c-36 -26 -82 -43 -136 -43c-55 0 -100 16 -137 43l-94 -94l-53 54l93 95
c-27 38 -42 86 -42 135zM157 347c0 -84 58 -155 149 -155c92 0 149 71 149 155c0 87 -59 155 -149 155c-91 0 -149 -69 -149 -155z" />
    <glyph glyph-name="yen" unicode="&#xa5;" horiz-adv-x="645" 
d="M97 304v74h126l-227 322h111l216 -309l219 309h106l-230 -322h128v-74h-180v-106h180v-74h-180v-124h-91v124h-178v74h178v106h-178z" />
    <glyph glyph-name="brokenbar" unicode="&#xa6;" horiz-adv-x="318" 
d="M202 420h-86v280h86v-280zM116 280h86v-280h-86v280z" />
    <glyph glyph-name="section" unicode="&#xa7;" horiz-adv-x="514" 
d="M56 254c0 83 49 147 113 169c-32 22 -65 63 -65 125c0 91 70 152 165 152c76 0 124 -41 150 -75l-57 -52c-21 23 -44 44 -89 44c-46 0 -81 -34 -81 -77c0 -52 40 -79 83 -98c110 -8 183 -86 183 -188c0 -82 -50 -146 -115 -171c37 -23 66 -68 66 -118
c0 -92 -63 -156 -165 -156c-77 0 -123 38 -149 72l54 61c20 -25 46 -50 95 -50c43 0 79 33 79 78c0 47 -41 78 -85 95c-114 9 -182 86 -182 189zM142 254c0 -66 53 -115 115 -115c65 0 115 49 115 115c0 65 -51 115 -115 115c-63 0 -115 -50 -115 -115z" />
    <glyph glyph-name="dieresis" unicode="&#xa8;" horiz-adv-x="468" 
d="M135 682c0 28 24 47 50 47c25 0 51 -19 51 -47c0 -30 -26 -49 -51 -49c-26 0 -50 19 -50 49zM364 682c0 28 25 47 53 47c25 0 51 -19 51 -47c0 -30 -26 -49 -51 -49c-28 0 -53 19 -53 49z" />
    <glyph glyph-name="copyright" unicode="&#xa9;" horiz-adv-x="990" 
d="M63 227c0 238 185 428 432 428c246 0 431 -184 431 -428c0 -242 -185 -428 -431 -428c-247 0 -432 181 -432 428zM142 227c0 -197 151 -354 353 -354c204 0 352 156 352 354c0 202 -146 354 -352 354c-202 0 -353 -159 -353 -354zM644 131l45 -55
c-39 -53 -113 -85 -181 -85c-145 0 -247 95 -247 240c0 134 101 239 234 239c71 0 139 -22 185 -72l-50 -55c-33 32 -78 50 -124 50c-13 0 -27 -2 -40 -5c-72 -17 -114 -81 -114 -155c0 -14 1 -28 4 -42c14 -77 80 -123 156 -123c48 0 95 20 132 63z" />
    <glyph glyph-name="ordfeminine" unicode="&#xaa;" horiz-adv-x="446" 
d="M100 536l-29 57c37 26 92 42 153 43c102 0 156 -49 156 -134v-202h-75v43c-21 -27 -54 -49 -122 -49c-81 0 -135 41 -135 101c0 72 69 106 172 106c33 0 67 -4 85 -9c0 53 -25 77 -92 77c-38 0 -77 -13 -113 -33zM204 360c54 0 88 32 101 53v22c-17 4 -49 11 -91 11
c-50 0 -87 -15 -87 -45c0 -26 26 -41 77 -41z" />
    <glyph glyph-name="guillemotleft" unicode="&#xab;" horiz-adv-x="531" 
d="M226 38l-182 214v6l183 210l57 -51l-140 -163l140 -163zM419 38l-182 214v6l184 210l57 -51l-141 -163l140 -163z" />
    <glyph glyph-name="logicalnot" unicode="&#xac;" horiz-adv-x="564" 
d="M49 322v75h466v-200h-72v125h-394z" />
    <glyph glyph-name="uni00AD" unicode="&#xad;" horiz-adv-x="409" 
d="M76 237v77h256v-77h-256z" />
    <glyph glyph-name="registered" unicode="&#xae;" horiz-adv-x="577" 
d="M45 490c0 132 109 240 245 240c133 0 242 -108 242 -240c0 -134 -109 -241 -242 -241c-136 0 -245 107 -245 241zM88 489c0 -111 90 -198 201 -198c110 0 200 93 200 198c0 111 -93 198 -200 198c-112 0 -201 -91 -201 -198zM246 350h-61v285h98c89 0 116 -42 116 -90
c0 -40 -24 -70 -58 -82l76 -113h-71l-61 94h-39v-94zM333 539c0 33 -18 43 -51 43h-36v-84h39c23 0 48 15 48 41z" />
    <glyph glyph-name="macron" unicode="&#xaf;" horiz-adv-x="448" 
d="M179 638v74h269v-74h-269z" />
    <glyph glyph-name="degree" unicode="&#xb0;" horiz-adv-x="404" 
d="M45 559c0 87 71 154 157 154c87 0 157 -65 157 -152c0 -86 -70 -155 -157 -155c-86 0 -157 67 -157 153zM124 560c0 -44 36 -77 78 -77c41 0 78 33 78 77s-37 76 -78 76c-42 0 -78 -32 -78 -76z" />
    <glyph glyph-name="plusminus" unicode="&#xb1;" horiz-adv-x="568" 
d="M60 398v74h186v190h75v-190h188v-74h-188v-124h-75v124h-186zM60 155v74h449v-74h-449z" />
    <glyph glyph-name="twosuperior" unicode="&#xb2;" horiz-adv-x="417" 
d="M97 585l-58 33c27 64 94 107 172 107c93 0 152 -47 152 -122c0 -85 -68 -149 -136 -192l-62 -40h216v-71h-340v62l99 64c76 50 144 103 144 162c0 44 -29 66 -77 66c-57 0 -90 -33 -110 -69z" />
    <glyph glyph-name="threesuperior" unicode="&#xb3;" horiz-adv-x="426" 
d="M100 599l-55 39c31 52 92 87 174 87c93 0 152 -40 152 -105c0 -49 -25 -80 -67 -97c36 -9 79 -35 79 -102c0 -81 -78 -126 -171 -126c-71 0 -147 32 -179 98l60 38c17 -40 67 -65 119 -65c57 0 91 19 91 58c0 45 -42 57 -90 57h-55v64h44c55 0 90 22 90 59
c0 34 -27 50 -75 50c-57 0 -89 -17 -117 -55z" />
    <glyph glyph-name="acute" unicode="&#xb4;" horiz-adv-x="441" 
d="M425 759l-122 -151l-56 39l114 160z" />
    <glyph glyph-name="mu" unicode="&#xb5;" horiz-adv-x="587" 
d="M526 520v-520h-84v60c-36 -40 -99 -69 -175 -69c-50 0 -92 14 -122 43v-234h-84v720h84v-286c0 -110 41 -164 140 -164c63 0 127 38 157 76v374h84z" />
    <glyph glyph-name="mu" unicode="&#x3bc;" horiz-adv-x="587" 
d="M526 520v-520h-84v60c-36 -40 -99 -69 -175 -69c-50 0 -92 14 -122 43v-234h-84v720h84v-286c0 -110 41 -164 140 -164c63 0 127 38 157 76v374h84z" />
    <glyph glyph-name="paragraph" unicode="&#xb6;" horiz-adv-x="441" 
d="M41 475c0 140 84 225 217 225h153v-76h-89v-598c0 -110 -15 -224 -158 -224c-45 0 -91 18 -118 45l38 65c21 -17 47 -28 76 -28c61 0 76 46 76 141v228c-110 8 -195 88 -195 222z" />
    <glyph glyph-name="periodcentered" unicode="&#xb7;" horiz-adv-x="236" 
d="M58 299c0 24 22 49 55 49c30 0 53 -25 53 -49c0 -28 -23 -53 -53 -53c-33 0 -55 25 -55 53z" />
    <glyph glyph-name="cedilla" unicode="&#xb8;" horiz-adv-x="430" 
d="M200 -170l25 49c23 -13 49 -22 77 -22c39 0 49 11 49 28c0 22 -20 29 -55 29h-18v86h52v-37c69 -3 100 -36 100 -82s-38 -85 -125 -85c-45 0 -81 16 -105 34z" />
    <glyph glyph-name="onesuperior" unicode="&#xb9;" horiz-adv-x="302" 
d="M10 653l162 70h58v-423h-78v337l-115 -49z" />
    <glyph glyph-name="ordmasculine" unicode="&#xba;" horiz-adv-x="462" 
d="M53 465c0 102 74 171 177 171c105 0 179 -69 179 -171c0 -100 -74 -171 -179 -171c-103 0 -177 71 -177 171zM132 465c0 -60 47 -98 98 -98c56 0 100 38 100 98s-46 98 -100 98c-53 0 -98 -38 -98 -98z" />
    <glyph glyph-name="guillemotright" unicode="&#xbb;" horiz-adv-x="531" 
d="M478 252l-182 -214l-58 53l140 163l-140 163l57 51l183 -210v-6zM285 252l-182 -214l-59 53l141 163l-141 163l57 51l184 -210v-6z" />
    <glyph glyph-name="onequarter" unicode="&#xbc;" horiz-adv-x="875" 
d="M101 38l548 674l60 -48l-546 -677zM33 653l162 70h58v-423h-78v337l-115 -49zM684 0v87h-265v55l271 278h69v-264h84v-69h-84v-87h-75zM516 156h168v167z" />
    <glyph glyph-name="onehalf" unicode="&#xbd;" horiz-adv-x="913" 
d="M101 38l548 674l60 -48l-546 -677zM33 653l162 70h58v-423h-78v337l-115 -49zM577 285l-58 33c27 64 94 107 172 107c93 0 152 -47 152 -122c0 -85 -68 -149 -136 -192l-62 -40h216v-71h-340v62l99 64c76 50 144 103 144 162c0 44 -29 66 -77 66c-57 0 -90 -33 -110 -69z
" />
    <glyph glyph-name="threequarters" unicode="&#xbe;" horiz-adv-x="947" 
d="M173 38l548 674l60 -48l-546 -677zM755 0v87h-265v55l271 278h69v-264h84v-69h-84v-87h-75zM587 156h168v167zM100 599l-55 39c31 52 92 87 174 87c93 0 152 -40 152 -105c0 -49 -25 -80 -67 -97c36 -9 79 -35 79 -102c0 -81 -78 -126 -171 -126c-71 0 -147 32 -179 98
l60 38c17 -40 67 -65 119 -65c57 0 91 19 91 58c0 45 -42 57 -90 57h-55v64h44c55 0 90 22 90 59c0 34 -27 50 -75 50c-57 0 -89 -17 -117 -55z" />
    <glyph glyph-name="questiondown" unicode="&#xbf;" horiz-adv-x="605" 
d="M132 0c0 -60 61 -104 154 -104c90 0 172 44 191 132l78 -22c-10 -100 -105 -197 -271 -197c-154 0 -244 78 -244 183c0 196 244 206 244 303c0 12 -1 17 -4 31l81 1c5 -19 7 -40 6 -55c-9 -135 -235 -135 -235 -272zM384 461c0 -27 -25 -56 -62 -56c-35 0 -60 29 -60 56
c0 31 25 59 60 59c37 0 62 -28 62 -59z" />
    <glyph glyph-name="Agrave" unicode="&#xc0;" horiz-adv-x="688" 
d="M1 0l307 702h72l307 -702h-95l-78 177h-343l-77 -177h-93zM342 575l-137 -318h275zM382 755l-201 97l38 74l193 -115z" />
    <glyph glyph-name="Aacute" unicode="&#xc1;" horiz-adv-x="688" 
d="M1 0l307 702h72l307 -702h-95l-78 177h-343l-77 -177h-93zM342 575l-137 -318h275zM528 852l-200 -97l-31 56l193 115z" />
    <glyph glyph-name="Acircumflex" unicode="&#xc2;" horiz-adv-x="688" 
d="M1 0l307 702h72l307 -702h-95l-78 177h-343l-77 -177h-93zM342 575l-137 -318h275zM342 915l182 -107l-36 -53l-148 79l-147 -79l-31 53l176 107h4z" />
    <glyph glyph-name="Atilde" unicode="&#xc3;" horiz-adv-x="688" 
d="M1 0l307 702h72l307 -702h-95l-78 177h-343l-77 -177h-93zM342 575l-137 -318h275zM192 791l-28 52c30 31 76 50 107 50c60 0 100 -43 154 -43c23 0 49 6 74 33l26 -51c-28 -39 -74 -56 -110 -56c-55 0 -100 42 -157 42c-21 0 -43 -8 -66 -27z" />
    <glyph glyph-name="Adieresis" unicode="&#xc4;" horiz-adv-x="688" 
d="M1 0l307 702h72l307 -702h-95l-78 177h-343l-77 -177h-93zM342 575l-137 -318h275zM172 825c0 29 24 49 56 49c25 0 52 -20 52 -49c0 -30 -27 -48 -52 -48c-32 0 -56 18 -56 48zM409 825c0 29 25 49 54 49c27 0 52 -19 52 -49s-25 -48 -52 -48c-29 0 -54 18 -54 48z" />
    <glyph glyph-name="Aring" unicode="&#xc5;" horiz-adv-x="688" 
d="M1 0l307 702h72l307 -702h-95l-78 177h-343l-77 -177h-93zM342 575l-137 -318h275zM222 829c0 66 58 100 121 100c65 0 124 -32 124 -100c0 -64 -52 -104 -124 -104c-70 0 -121 38 -121 104zM287 829c0 -28 21 -49 57 -49c38 0 57 20 57 49c0 27 -23 45 -57 45
c-36 0 -57 -19 -57 -45z" />
    <glyph glyph-name="AE" unicode="&#xc6;" horiz-adv-x="1114" 
d="M547 0v177h-316l-133 -177h-98l513 700h542v-85h-417v-218h389v-83h-389v-229h426v-85h-517zM287 257h260v352z" />
    <glyph glyph-name="Ccedilla" unicode="&#xc7;" horiz-adv-x="688" 
d="M274 -169l29 48c22 -13 49 -22 77 -22c39 0 48 11 48 28c0 22 -19 29 -54 29h-19v79c-197 17 -319 153 -319 357c0 201 137 359 354 359c126 0 222 -53 269 -116l-59 -57c-54 54 -116 86 -208 86c-163 0 -261 -112 -261 -272c0 -164 109 -272 272 -272
c97 0 166 40 214 94l52 -58c-52 -72 -152 -120 -261 -123v-28c73 -3 103 -36 103 -82s-34 -85 -120 -85c-54 0 -92 15 -117 35z" />
    <glyph glyph-name="Egrave" unicode="&#xc8;" horiz-adv-x="637" 
d="M74 0v700h504v-85h-413v-218h385v-83h-385v-229h422v-85h-513zM372 755l-201 97l38 74l193 -115z" />
    <glyph glyph-name="Eacute" unicode="&#xc9;" horiz-adv-x="637" 
d="M74 0v700h504v-85h-413v-218h385v-83h-385v-229h422v-85h-513zM494 852l-200 -97l-31 56l193 115z" />
    <glyph glyph-name="Ecircumflex" unicode="&#xca;" horiz-adv-x="637" 
d="M74 0v700h504v-85h-413v-218h385v-83h-385v-229h422v-85h-513zM335 915l182 -107l-36 -53l-148 79l-147 -79l-31 53l176 107h4z" />
    <glyph glyph-name="Edieresis" unicode="&#xcb;" horiz-adv-x="637" 
d="M74 0v700h504v-85h-413v-218h385v-83h-385v-229h422v-85h-513zM159 825c0 29 24 49 56 49c25 0 52 -20 52 -49c0 -30 -27 -48 -52 -48c-32 0 -56 18 -56 48zM396 825c0 29 25 49 54 49c27 0 52 -19 52 -49s-25 -48 -52 -48c-29 0 -54 18 -54 48z" />
    <glyph glyph-name="Igrave" unicode="&#xcc;" horiz-adv-x="239" 
d="M74 0v700h91v-700h-91zM146 755l-201 97l38 74l193 -115z" />
    <glyph glyph-name="Iacute" unicode="&#xcd;" horiz-adv-x="239" 
d="M74 0v700h91v-700h-91zM299 852l-200 -97l-31 56l193 115z" />
    <glyph glyph-name="Icircumflex" unicode="&#xce;" horiz-adv-x="239" 
d="M74 0v700h91v-700h-91zM118 915l182 -107l-36 -53l-148 79l-147 -79l-31 53l176 107h4z" />
    <glyph glyph-name="Idieresis" unicode="&#xcf;" horiz-adv-x="239" 
d="M74 0v700h91v-700h-91zM-53 825c0 29 24 49 56 49c25 0 52 -20 52 -49c0 -30 -27 -48 -52 -48c-32 0 -56 18 -56 48zM184 825c0 29 25 49 54 49c27 0 52 -19 52 -49s-25 -48 -52 -48c-29 0 -54 18 -54 48z" />
    <glyph glyph-name="Eth" unicode="&#xd0;" horiz-adv-x="770" 
d="M11 309v77h121v314h216c284 0 386 -158 386 -340c0 -200 -122 -360 -397 -360h-205v309h-121zM346 615h-123v-229h189v-77h-189v-224h120c209 0 296 116 296 275c0 146 -78 255 -293 255z" />
    <glyph glyph-name="Ntilde" unicode="&#xd1;" horiz-adv-x="736" 
d="M662 0h-71l-429 534v-534h-88v700h72l428 -536v536h88v-700zM216 791l-28 52c30 31 76 50 107 50c60 0 100 -43 154 -43c23 0 49 6 74 33l26 -51c-28 -39 -74 -56 -110 -56c-55 0 -100 42 -157 42c-21 0 -43 -8 -66 -27z" />
    <glyph glyph-name="Ograve" unicode="&#xd2;" horiz-adv-x="783" 
d="M36 350c0 203 156 359 356 359c197 0 355 -150 355 -359c0 -206 -158 -359 -355 -359c-198 0 -356 150 -356 359zM131 350c0 -159 119 -272 261 -272c147 0 260 113 260 272c0 160 -120 272 -260 272c-143 0 -261 -112 -261 -272zM432 755l-201 97l38 74l193 -115z" />
    <glyph glyph-name="Oacute" unicode="&#xd3;" horiz-adv-x="783" 
d="M36 350c0 203 156 359 356 359c197 0 355 -150 355 -359c0 -206 -158 -359 -355 -359c-198 0 -356 150 -356 359zM131 350c0 -159 119 -272 261 -272c147 0 260 113 260 272c0 160 -120 272 -260 272c-143 0 -261 -112 -261 -272zM562 852l-200 -97l-31 56l193 115z" />
    <glyph glyph-name="Ocircumflex" unicode="&#xd4;" horiz-adv-x="783" 
d="M36 350c0 203 156 359 356 359c197 0 355 -150 355 -359c0 -206 -158 -359 -355 -359c-198 0 -356 150 -356 359zM131 350c0 -159 119 -272 261 -272c147 0 260 113 260 272c0 160 -120 272 -260 272c-143 0 -261 -112 -261 -272zM390 915l182 -107l-36 -53l-148 79
l-147 -79l-31 53l176 107h4z" />
    <glyph glyph-name="Otilde" unicode="&#xd5;" horiz-adv-x="783" 
d="M36 350c0 203 156 359 356 359c197 0 355 -150 355 -359c0 -206 -158 -359 -355 -359c-198 0 -356 150 -356 359zM131 350c0 -159 119 -272 261 -272c147 0 260 113 260 272c0 160 -120 272 -260 272c-143 0 -261 -112 -261 -272zM239 791l-28 52c30 31 76 50 107 50
c60 0 100 -43 154 -43c23 0 49 6 74 33l26 -51c-28 -39 -74 -56 -110 -56c-55 0 -100 42 -157 42c-21 0 -43 -8 -66 -27z" />
    <glyph glyph-name="Odieresis" unicode="&#xd6;" horiz-adv-x="783" 
d="M36 350c0 203 156 359 356 359c197 0 355 -150 355 -359c0 -206 -158 -359 -355 -359c-198 0 -356 150 -356 359zM131 350c0 -159 119 -272 261 -272c147 0 260 113 260 272c0 160 -120 272 -260 272c-143 0 -261 -112 -261 -272zM219 825c0 29 24 49 56 49
c25 0 52 -20 52 -49c0 -30 -27 -48 -52 -48c-32 0 -56 18 -56 48zM456 825c0 29 25 49 54 49c27 0 52 -19 52 -49s-25 -48 -52 -48c-29 0 -54 18 -54 48z" />
    <glyph glyph-name="multiply" unicode="&#xd7;" horiz-adv-x="594" 
d="M105 493l54 55l135 -135l135 135l54 -55l-135 -134l135 -135l-54 -55l-135 136l-135 -136l-54 55l136 135z" />
    <glyph glyph-name="Oslash" unicode="&#xd8;" horiz-adv-x="783" 
d="M85 36l50 61c-61 64 -99 151 -99 253c0 203 156 359 356 359c72 0 139 -20 194 -56l47 57l60 -48l-47 -58c62 -63 101 -151 101 -254c0 -206 -158 -359 -355 -359c-73 0 -139 20 -195 55l-50 -61zM652 350c0 72 -25 134 -65 181l-333 -414c40 -25 87 -39 138 -39
c147 0 260 113 260 272zM131 350c0 -72 24 -133 63 -180l335 412c-40 26 -88 40 -137 40c-143 0 -261 -112 -261 -272z" />
    <glyph glyph-name="Ugrave" unicode="&#xd9;" horiz-adv-x="730" 
d="M660 700v-404c0 -216 -144 -304 -286 -304c-163 0 -304 104 -304 310v398h91v-385c0 -154 95 -237 213 -237c130 0 195 92 195 232v390h91zM408 755l-201 97l38 74l193 -115z" />
    <glyph glyph-name="Uacute" unicode="&#xda;" horiz-adv-x="730" 
d="M660 700v-404c0 -216 -144 -304 -286 -304c-163 0 -304 104 -304 310v398h91v-385c0 -154 95 -237 213 -237c130 0 195 92 195 232v390h91zM538 852l-200 -97l-31 56l193 115z" />
    <glyph glyph-name="Ucircumflex" unicode="&#xdb;" horiz-adv-x="730" 
d="M660 700v-404c0 -216 -144 -304 -286 -304c-163 0 -304 104 -304 310v398h91v-385c0 -154 95 -237 213 -237c130 0 195 92 195 232v390h91zM363 915l182 -107l-36 -53l-148 79l-147 -79l-31 53l176 107h4z" />
    <glyph glyph-name="Udieresis" unicode="&#xdc;" horiz-adv-x="730" 
d="M660 700v-404c0 -216 -144 -304 -286 -304c-163 0 -304 104 -304 310v398h91v-385c0 -154 95 -237 213 -237c130 0 195 92 195 232v390h91zM193 825c0 29 24 49 56 49c25 0 52 -20 52 -49c0 -30 -27 -48 -52 -48c-32 0 -56 18 -56 48zM430 825c0 29 25 49 54 49
c27 0 52 -19 52 -49s-25 -48 -52 -48c-29 0 -54 18 -54 48z" />
    <glyph glyph-name="Yacute" unicode="&#xdd;" horiz-adv-x="632" 
d="M642 700l-282 -435v-265h-91v265l-279 435h111l216 -339l219 339h106zM493 852l-200 -97l-31 56l193 115z" />
    <glyph glyph-name="Thorn" unicode="&#xde;" horiz-adv-x="654" 
d="M165 0h-91v700h91v-113h166c234 0 287 -112 287 -220c0 -112 -74 -222 -288 -222h-165v-145zM335 503h-170v-273h163c137 -1 195 55 195 138c0 78 -49 135 -188 135z" />
    <glyph glyph-name="germandbls" unicode="&#xdf;" horiz-adv-x="556" 
d="M277 738c140 0 210 -78 210 -204c0 -67 -36 -131 -98 -159c91 -20 133 -86 133 -176c0 -132 -76 -209 -221 -209c-47 0 -87 8 -114 22l23 79c25 -12 52 -19 91 -19c80 0 133 45 133 127c0 70 -44 121 -160 121h-51v82h34c95 0 142 64 142 130c0 80 -49 126 -125 126
c-70 0 -129 -31 -129 -184v-474h-84v484c0 196 104 254 216 254z" />
    <glyph glyph-name="agrave" unicode="&#xe0;" horiz-adv-x="534" 
d="M101 395l-43 63c48 45 131 74 208 74c139 0 213 -77 213 -211v-321h-84v77c-30 -44 -92 -84 -182 -84c-113 0 -189 63 -189 159c0 113 99 161 249 161c39 0 96 -7 122 -15c0 94 -30 155 -139 155c-59 0 -107 -22 -155 -58zM233 69c87 0 144 60 162 102v53
c-26 9 -69 15 -111 15c-105 0 -171 -21 -171 -84c0 -54 49 -86 120 -86zM270 608l-128 149l66 50l112 -159z" />
    <glyph glyph-name="aacute" unicode="&#xe1;" horiz-adv-x="534" 
d="M101 395l-43 63c48 45 131 74 208 74c139 0 213 -77 213 -211v-321h-84v77c-30 -44 -92 -84 -182 -84c-113 0 -189 63 -189 159c0 113 99 161 249 161c39 0 96 -7 122 -15c0 94 -30 155 -139 155c-59 0 -107 -22 -155 -58zM233 69c87 0 144 60 162 102v53
c-26 9 -69 15 -111 15c-105 0 -171 -21 -171 -84c0 -54 49 -86 120 -86zM393 759l-122 -151l-56 39l114 160z" />
    <glyph glyph-name="acircumflex" unicode="&#xe2;" horiz-adv-x="534" 
d="M101 395l-43 63c48 45 131 74 208 74c139 0 213 -77 213 -211v-321h-84v77c-30 -44 -92 -84 -182 -84c-113 0 -189 63 -189 159c0 113 99 161 249 161c39 0 96 -7 122 -15c0 94 -30 155 -139 155c-59 0 -107 -22 -155 -58zM233 69c87 0 144 60 162 102v53
c-26 9 -69 15 -111 15c-105 0 -171 -21 -171 -84c0 -54 49 -86 120 -86zM268 785l149 -127l-44 -53l-106 93l-111 -90l-39 51l147 126h4z" />
    <glyph glyph-name="atilde" unicode="&#xe3;" horiz-adv-x="534" 
d="M101 395l-43 63c48 45 131 74 208 74c139 0 213 -77 213 -211v-321h-84v77c-30 -44 -92 -84 -182 -84c-113 0 -189 63 -189 159c0 113 99 161 249 161c39 0 96 -7 122 -15c0 94 -30 155 -139 155c-59 0 -107 -22 -155 -58zM233 69c87 0 144 60 162 102v53
c-26 9 -69 15 -111 15c-105 0 -171 -21 -171 -84c0 -54 49 -86 120 -86zM139 624l-38 41c36 39 77 63 113 63c47 0 79 -47 121 -47c25 0 46 11 67 33l31 -43c-34 -43 -72 -61 -105 -61c-52 0 -80 47 -119 47c-24 0 -47 -14 -70 -33z" />
    <glyph glyph-name="adieresis" unicode="&#xe4;" horiz-adv-x="534" 
d="M101 395l-43 63c48 45 131 74 208 74c139 0 213 -77 213 -211v-321h-84v77c-30 -44 -92 -84 -182 -84c-113 0 -189 63 -189 159c0 113 99 161 249 161c39 0 96 -7 122 -15c0 94 -30 155 -139 155c-59 0 -107 -22 -155 -58zM233 69c87 0 144 60 162 102v53
c-26 9 -69 15 -111 15c-105 0 -171 -21 -171 -84c0 -54 49 -86 120 -86zM95 682c0 28 24 47 50 47c25 0 51 -19 51 -47c0 -30 -26 -49 -51 -49c-26 0 -50 19 -50 49zM324 682c0 28 25 47 53 47c25 0 51 -19 51 -47c0 -30 -26 -49 -51 -49c-28 0 -53 19 -53 49z" />
    <glyph glyph-name="aring" unicode="&#xe5;" horiz-adv-x="534" 
d="M101 395l-43 63c48 45 131 74 208 74c139 0 213 -77 213 -211v-321h-84v77c-30 -44 -92 -84 -182 -84c-113 0 -189 63 -189 159c0 113 99 161 249 161c39 0 96 -7 122 -15c0 94 -30 155 -139 155c-59 0 -107 -22 -155 -58zM233 69c87 0 144 60 162 102v53
c-26 9 -69 15 -111 15c-105 0 -171 -21 -171 -84c0 -54 49 -86 120 -86zM158 701c0 58 47 106 109 106s110 -48 110 -106s-48 -105 -110 -105s-109 47 -109 105zM219 702c0 -29 20 -50 49 -50c27 0 48 18 48 50c0 31 -19 49 -48 49s-49 -20 -49 -49z" />
    <glyph glyph-name="ae" unicode="&#xe6;" horiz-adv-x="930" 
d="M824 149l54 -50c-49 -73 -123 -108 -208 -108c-103 0 -185 40 -232 110c-52 -74 -125 -108 -218 -108c-120 0 -196 66 -196 159c0 113 99 161 249 161c39 0 96 -7 122 -15c0 94 -30 155 -139 155c-59 0 -107 -22 -155 -58l-43 63c48 45 131 74 208 74
c89 0 151 -32 185 -90c44 56 114 90 207 90c137 0 240 -92 240 -236c0 -17 -1 -40 -5 -63h-410c5 -105 84 -163 190 -163c63 0 120 34 151 79zM233 69c92 0 144 60 162 102v53c-26 9 -69 15 -111 15c-105 0 -171 -21 -171 -84c0 -54 49 -86 120 -86zM652 455
c-97 0 -157 -61 -170 -146h327c-5 93 -64 146 -157 146z" />
    <glyph glyph-name="ccedilla" unicode="&#xe7;" horiz-adv-x="532" 
d="M190 -170l25 49c23 -13 49 -22 77 -22c39 0 49 11 49 28c0 22 -20 29 -55 29h-18v80c-142 16 -236 116 -236 267c0 153 109 271 273 271c93 0 176 -42 211 -106l-65 -44c-36 49 -80 71 -144 71c-107 0 -186 -80 -186 -192c0 -114 79 -191 197 -191c63 0 114 32 146 80
l60 -43c-39 -73 -124 -113 -204 -116v-28c69 -3 100 -36 100 -82s-38 -85 -125 -85c-45 0 -81 16 -105 34z" />
    <glyph glyph-name="egrave" unicode="&#xe8;" horiz-adv-x="569" 
d="M463 149l54 -50c-49 -73 -123 -108 -208 -108c-165 0 -277 105 -277 270c0 153 92 271 265 271c137 0 240 -92 240 -236c0 -17 -1 -40 -5 -63h-410c5 -105 84 -163 190 -163c63 0 120 34 151 79zM291 455c-97 0 -157 -61 -170 -146h327c-5 93 -64 146 -157 146zM303 608
l-128 149l66 50l112 -159z" />
    <glyph glyph-name="eacute" unicode="&#xe9;" horiz-adv-x="569" 
d="M463 149l54 -50c-49 -73 -123 -108 -208 -108c-165 0 -277 105 -277 270c0 153 92 271 265 271c137 0 240 -92 240 -236c0 -17 -1 -40 -5 -63h-410c5 -105 84 -163 190 -163c63 0 120 34 151 79zM291 455c-97 0 -157 -61 -170 -146h327c-5 93 -64 146 -157 146zM410 759
l-122 -151l-56 39l114 160z" />
    <glyph glyph-name="ecircumflex" unicode="&#xea;" horiz-adv-x="569" 
d="M463 149l54 -50c-49 -73 -123 -108 -208 -108c-165 0 -277 105 -277 270c0 153 92 271 265 271c137 0 240 -92 240 -236c0 -17 -1 -40 -5 -63h-410c5 -105 84 -163 190 -163c63 0 120 34 151 79zM291 455c-97 0 -157 -61 -170 -146h327c-5 93 -64 146 -157 146zM302 785
l149 -127l-44 -53l-106 93l-111 -90l-39 51l147 126h4z" />
    <glyph glyph-name="edieresis" unicode="&#xeb;" horiz-adv-x="569" 
d="M463 149l54 -50c-49 -73 -123 -108 -208 -108c-165 0 -277 105 -277 270c0 153 92 271 265 271c137 0 240 -92 240 -236c0 -17 -1 -40 -5 -63h-410c5 -105 84 -163 190 -163c63 0 120 34 151 79zM291 455c-97 0 -157 -61 -170 -146h327c-5 93 -64 146 -157 146zM118 682
c0 28 24 47 50 47c25 0 51 -19 51 -47c0 -30 -26 -49 -51 -49c-26 0 -50 19 -50 49zM347 682c0 28 25 47 53 47c25 0 51 -19 51 -47c0 -30 -26 -49 -51 -49c-28 0 -53 19 -53 49z" />
    <glyph glyph-name="igrave" unicode="&#xec;" horiz-adv-x="244" 
d="M80 0v520h84v-520h-84zM135 608l-128 149l66 50l112 -159z" />
    <glyph glyph-name="iacute" unicode="&#xed;" horiz-adv-x="244" 
d="M80 0v520h84v-520h-84zM238 759l-122 -151l-56 39l114 160z" />
    <glyph glyph-name="icircumflex" unicode="&#xee;" horiz-adv-x="244" 
d="M80 0v520h84v-520h-84zM123 785l149 -127l-44 -53l-106 93l-111 -90l-39 51l147 126h4z" />
    <glyph glyph-name="idieresis" unicode="&#xef;" horiz-adv-x="244" 
d="M80 0v520h84v-520h-84zM-44 682c0 28 24 47 50 47c25 0 51 -19 51 -47c0 -30 -26 -49 -51 -49c-26 0 -50 19 -50 49zM185 682c0 28 25 47 53 47c25 0 51 -19 51 -47c0 -30 -26 -49 -51 -49c-28 0 -53 19 -53 49z" />
    <glyph glyph-name="eth" unicode="&#xf0;" horiz-adv-x="616" 
d="M301 785l62 -25l-26 -59c161 -68 247 -207 247 -405c0 -192 -113 -305 -277 -305c-161 0 -275 113 -275 270c0 158 112 261 275 261c61 0 127 -19 164 -59c-29 71 -85 133 -164 170l-31 -70l-64 26l31 68c-30 8 -61 13 -95 15l18 72c38 -4 74 -11 107 -20zM120 261
c0 -111 78 -191 187 -191c118 0 189 77 189 215c0 29 -3 61 -13 83c-32 47 -95 78 -167 78c-116 0 -196 -69 -196 -185z" />
    <glyph glyph-name="ntilde" unicode="&#xf1;" horiz-adv-x="589" 
d="M61 0v520h84v-68c34 52 103 79 178 79c136 0 211 -70 211 -235v-296h-84v286c0 115 -50 166 -152 166c-64 0 -125 -42 -153 -105v-347h-84zM166 624l-38 41c36 39 77 63 113 63c47 0 79 -47 121 -47c25 0 46 11 67 33l31 -43c-34 -43 -72 -61 -105 -61
c-52 0 -80 47 -119 47c-24 0 -47 -14 -70 -33z" />
    <glyph glyph-name="ograve" unicode="&#xf2;" horiz-adv-x="616" 
d="M32 261c0 158 112 271 275 271c164 0 277 -113 277 -271c0 -157 -113 -270 -277 -270c-161 0 -275 113 -275 270zM121 261c0 -111 77 -191 186 -191c111 0 188 77 188 191c0 115 -81 192 -188 192s-186 -76 -186 -192zM319 608l-128 149l66 50l112 -159z" />
    <glyph glyph-name="oacute" unicode="&#xf3;" horiz-adv-x="616" 
d="M32 261c0 158 112 271 275 271c164 0 277 -113 277 -271c0 -157 -113 -270 -277 -270c-161 0 -275 113 -275 270zM121 261c0 -111 77 -191 186 -191c111 0 188 77 188 191c0 115 -81 192 -188 192s-186 -76 -186 -192zM421 759l-122 -151l-56 39l114 160z" />
    <glyph glyph-name="ocircumflex" unicode="&#xf4;" horiz-adv-x="616" 
d="M32 261c0 158 112 271 275 271c164 0 277 -113 277 -271c0 -157 -113 -270 -277 -270c-161 0 -275 113 -275 270zM121 261c0 -111 77 -191 186 -191c111 0 188 77 188 191c0 115 -81 192 -188 192s-186 -76 -186 -192zM309 785l149 -127l-44 -53l-106 93l-111 -90l-39 51
l147 126h4z" />
    <glyph glyph-name="otilde" unicode="&#xf5;" horiz-adv-x="616" 
d="M32 261c0 158 112 271 275 271c164 0 277 -113 277 -271c0 -157 -113 -270 -277 -270c-161 0 -275 113 -275 270zM121 261c0 -111 77 -191 186 -191c111 0 188 77 188 191c0 115 -81 192 -188 192s-186 -76 -186 -192zM179 624l-38 41c36 39 77 63 113 63
c47 0 79 -47 121 -47c25 0 46 11 67 33l31 -43c-34 -43 -72 -61 -105 -61c-52 0 -80 47 -119 47c-24 0 -47 -14 -70 -33z" />
    <glyph glyph-name="odieresis" unicode="&#xf6;" horiz-adv-x="616" 
d="M32 261c0 158 112 271 275 271c164 0 277 -113 277 -271c0 -157 -113 -270 -277 -270c-161 0 -275 113 -275 270zM121 261c0 -111 77 -191 186 -191c111 0 188 77 188 191c0 115 -81 192 -188 192s-186 -76 -186 -192zM141 682c0 28 24 47 50 47c25 0 51 -19 51 -47
c0 -30 -26 -49 -51 -49c-26 0 -50 19 -50 49zM370 682c0 28 25 47 53 47c25 0 51 -19 51 -47c0 -30 -26 -49 -51 -49c-28 0 -53 19 -53 49z" />
    <glyph glyph-name="divide" unicode="&#xf7;" horiz-adv-x="576" 
d="M237 561c0 22 20 46 52 46c29 0 50 -24 50 -46c0 -26 -21 -49 -50 -49c-32 0 -52 23 -52 49zM237 159c0 24 20 47 52 47c29 0 50 -23 50 -47c0 -26 -21 -49 -50 -49c-32 0 -52 23 -52 49zM56 322v75h464v-75h-464z" />
    <glyph glyph-name="oslash" unicode="&#xf8;" horiz-adv-x="616" 
d="M32 261c0 158 112 271 275 271c53 0 101 -13 142 -34l58 71l60 -49l-56 -69c46 -48 73 -114 73 -190c0 -157 -113 -270 -277 -270c-53 0 -100 12 -140 33l-54 -66l-63 51l53 64c-45 48 -71 113 -71 188zM495 261c0 48 -14 90 -39 122l-236 -293c25 -13 54 -20 87 -20
c111 0 188 77 188 191zM121 261c0 -47 13 -88 37 -120l238 292c-26 13 -57 20 -89 20c-107 0 -186 -76 -186 -192z" />
    <glyph glyph-name="ugrave" unicode="&#xf9;" horiz-adv-x="581" 
d="M521 523v-523h-84v74c-36 -50 -94 -83 -169 -83c-142 0 -214 71 -214 231v301h84v-289c0 -89 30 -164 137 -164c72 0 130 42 162 113v340h84zM310 608l-128 149l66 50l112 -159z" />
    <glyph glyph-name="uacute" unicode="&#xfa;" horiz-adv-x="581" 
d="M521 523v-523h-84v74c-36 -50 -94 -83 -169 -83c-142 0 -214 71 -214 231v301h84v-289c0 -89 30 -164 137 -164c72 0 130 42 162 113v340h84zM400 759l-122 -151l-56 39l114 160z" />
    <glyph glyph-name="ucircumflex" unicode="&#xfb;" horiz-adv-x="581" 
d="M521 523v-523h-84v74c-36 -50 -94 -83 -169 -83c-142 0 -214 71 -214 231v301h84v-289c0 -89 30 -164 137 -164c72 0 130 42 162 113v340h84zM291 785l149 -127l-44 -53l-106 93l-111 -90l-39 51l147 126h4z" />
    <glyph glyph-name="udieresis" unicode="&#xfc;" horiz-adv-x="581" 
d="M521 523v-523h-84v74c-36 -50 -94 -83 -169 -83c-142 0 -214 71 -214 231v301h84v-289c0 -89 30 -164 137 -164c72 0 130 42 162 113v340h84zM118 682c0 28 24 47 50 47c25 0 51 -19 51 -47c0 -30 -26 -49 -51 -49c-26 0 -50 19 -50 49zM347 682c0 28 25 47 53 47
c25 0 51 -19 51 -47c0 -30 -26 -49 -51 -49c-28 0 -53 19 -53 49z" />
    <glyph glyph-name="yacute" unicode="&#xfd;" horiz-adv-x="521" 
d="M73 -198l33 73c7 -3 14 -5 22 -5c38 0 65 26 101 110l16 39l-252 501h99l195 -395l147 395h92l-198 -512c-71 -175 -125 -218 -197 -218c-22 0 -41 4 -58 12zM380 759l-122 -151l-56 39l114 160z" />
    <glyph glyph-name="thorn" unicode="&#xfe;" horiz-adv-x="594" 
d="M61 -200v930h84v-275c38 56 106 77 168 77c154 0 249 -109 249 -263c0 -159 -105 -278 -259 -278c-66 0 -130 21 -158 58v-249h-84zM304 453c-82 0 -138 -55 -159 -108v-194c32 -57 90 -81 151 -81c103 0 177 80 177 193c0 116 -64 190 -169 190z" />
    <glyph glyph-name="ydieresis" unicode="&#xff;" horiz-adv-x="521" 
d="M73 -198l33 73c7 -3 14 -5 22 -5c38 0 65 26 101 110l16 39l-252 501h99l195 -395l147 395h92l-198 -512c-71 -175 -125 -218 -197 -218c-22 0 -41 4 -58 12zM94 682c0 28 24 47 50 47c25 0 51 -19 51 -47c0 -30 -26 -49 -51 -49c-26 0 -50 19 -50 49zM323 682
c0 28 25 47 53 47c25 0 51 -19 51 -47c0 -30 -26 -49 -51 -49c-28 0 -53 19 -53 49z" />
    <glyph glyph-name="Amacron" unicode="&#x100;" horiz-adv-x="688" 
d="M1 0l307 702h72l307 -702h-95l-78 177h-343l-77 -177h-93zM342 575l-137 -318h275zM193 789v73h301v-73h-301z" />
    <glyph glyph-name="amacron" unicode="&#x101;" horiz-adv-x="534" 
d="M101 395l-43 63c48 45 131 74 208 74c139 0 213 -77 213 -211v-321h-84v77c-30 -44 -92 -84 -182 -84c-113 0 -189 63 -189 159c0 113 99 161 249 161c39 0 96 -7 122 -15c0 94 -30 155 -139 155c-59 0 -107 -22 -155 -58zM233 69c87 0 144 60 162 102v53
c-26 9 -69 15 -111 15c-105 0 -171 -21 -171 -84c0 -54 49 -86 120 -86zM133 638v74h269v-74h-269z" />
    <glyph glyph-name="Abreve" unicode="&#x102;" horiz-adv-x="688" 
d="M1 0l307 702h72l307 -702h-95l-78 177h-343l-77 -177h-93zM342 575l-137 -318h275zM163 867l41 43c22 -26 67 -63 143 -63c66 0 113 30 140 63l36 -41c-32 -53 -100 -98 -176 -98c-95 0 -155 52 -184 96z" />
    <glyph glyph-name="abreve" unicode="&#x103;" horiz-adv-x="534" 
d="M101 395l-43 63c48 45 131 74 208 74c139 0 213 -77 213 -211v-321h-84v77c-30 -44 -92 -84 -182 -84c-113 0 -189 63 -189 159c0 113 99 161 249 161c39 0 96 -7 122 -15c0 94 -30 155 -139 155c-59 0 -107 -22 -155 -58zM233 69c87 0 144 60 162 102v53
c-26 9 -69 15 -111 15c-105 0 -171 -21 -171 -84c0 -54 49 -86 120 -86zM104 727l38 41c20 -24 67 -57 118 -57c53 0 95 25 119 56l30 -40c-30 -45 -78 -92 -152 -92c-80 0 -135 64 -153 92z" />
    <glyph glyph-name="Aogonek" unicode="&#x104;" horiz-adv-x="688" 
d="M659 -122l18 -57c-17 -12 -48 -21 -85 -21c-59 -1 -121 25 -121 92c0 59 49 100 116 118l-73 167h-343l-77 -177h-93l307 702h72l307 -702h-27c-53 -3 -109 -41 -109 -84c0 -37 29 -48 56 -48c20 0 35 3 52 10zM342 575l-137 -318h275z" />
    <glyph glyph-name="aogonek" unicode="&#x105;" horiz-adv-x="534" 
d="M464 -119l25 -58c-17 -12 -45 -23 -83 -23c-57 0 -117 29 -117 98c0 56 49 94 106 112v67c-30 -44 -92 -84 -182 -84c-113 0 -189 63 -189 159c0 113 99 161 249 161c39 0 96 -7 122 -15c0 94 -30 155 -139 155c-59 0 -107 -22 -155 -58l-43 63c48 45 131 74 208 74
c139 0 213 -77 213 -211v-321h-7c-43 -1 -96 -37 -96 -81c0 -28 19 -48 43 -48c14 0 28 2 45 10zM233 69c87 0 144 60 162 102v53c-26 9 -69 15 -111 15c-105 0 -171 -21 -171 -84c0 -54 49 -86 120 -86z" />
    <glyph glyph-name="Cacute" unicode="&#x106;" horiz-adv-x="688" 
d="M617 172l52 -58c-53 -74 -158 -123 -272 -123c-221 0 -361 141 -361 359c0 201 137 359 354 359c126 0 222 -53 269 -116l-59 -57c-54 54 -116 86 -208 86c-163 0 -261 -112 -261 -272c0 -164 109 -272 272 -272c97 0 166 40 214 94zM544 852l-200 -97l-31 56l193 115z
" />
    <glyph glyph-name="cacute" unicode="&#x107;" horiz-adv-x="532" 
d="M464 150l60 -43c-40 -76 -131 -116 -214 -116c-165 0 -278 105 -278 270c0 153 109 271 273 271c93 0 176 -42 211 -106l-65 -44c-36 49 -80 71 -144 71c-107 0 -186 -80 -186 -192c0 -114 79 -191 197 -191c63 0 114 32 146 80zM426 759l-122 -151l-56 39l114 160z" />
    <glyph glyph-name="Ccircumflex" unicode="&#x108;" horiz-adv-x="688" 
d="M617 172l52 -58c-53 -74 -158 -123 -272 -123c-221 0 -361 141 -361 359c0 201 137 359 354 359c126 0 222 -53 269 -116l-59 -57c-54 54 -116 86 -208 86c-163 0 -261 -112 -261 -272c0 -164 109 -272 272 -272c97 0 166 40 214 94zM378 915l182 -107l-36 -53l-148 79
l-147 -79l-31 53l176 107h4z" />
    <glyph glyph-name="ccircumflex" unicode="&#x109;" horiz-adv-x="532" 
d="M464 150l60 -43c-40 -76 -131 -116 -214 -116c-165 0 -278 105 -278 270c0 153 109 271 273 271c93 0 176 -42 211 -106l-65 -44c-36 49 -80 71 -144 71c-107 0 -186 -80 -186 -192c0 -114 79 -191 197 -191c63 0 114 32 146 80zM297 785l149 -127l-44 -53l-106 93
l-111 -90l-39 51l147 126h4z" />
    <glyph glyph-name="Cdotaccent" unicode="&#x10a;" horiz-adv-x="688" 
d="M617 172l52 -58c-53 -74 -158 -123 -272 -123c-221 0 -361 141 -361 359c0 201 137 359 354 359c126 0 222 -53 269 -116l-59 -57c-54 54 -116 86 -208 86c-163 0 -261 -112 -261 -272c0 -164 109 -272 272 -272c97 0 166 40 214 94zM326 827c0 28 24 48 53 48
s53 -20 53 -48c0 -31 -24 -52 -53 -52c-31 0 -53 21 -53 52z" />
    <glyph glyph-name="cdotaccent" unicode="&#x10b;" horiz-adv-x="532" 
d="M464 150l60 -43c-40 -76 -131 -116 -214 -116c-165 0 -278 105 -278 270c0 153 109 271 273 271c93 0 176 -42 211 -106l-65 -44c-36 49 -80 71 -144 71c-107 0 -186 -80 -186 -192c0 -114 79 -191 197 -191c63 0 114 32 146 80zM243 682c0 28 24 49 54 49
c28 0 52 -21 52 -49c0 -30 -24 -52 -52 -52c-31 0 -54 22 -54 52z" />
    <glyph glyph-name="Ccaron" unicode="&#x10c;" horiz-adv-x="688" 
d="M617 172l52 -58c-53 -74 -158 -123 -272 -123c-221 0 -361 141 -361 359c0 201 137 359 354 359c126 0 222 -53 269 -116l-59 -57c-54 54 -116 86 -208 86c-163 0 -261 -112 -261 -272c0 -164 109 -272 272 -272c97 0 166 40 214 94zM375 756l-183 106l37 53l148 -83
l147 83l30 -52l-175 -107h-4z" />
    <glyph glyph-name="ccaron" unicode="&#x10d;" horiz-adv-x="532" 
d="M464 150l60 -43c-40 -76 -131 -116 -214 -116c-165 0 -278 105 -278 270c0 153 109 271 273 271c93 0 176 -42 211 -106l-65 -44c-36 49 -80 71 -144 71c-107 0 -186 -80 -186 -192c0 -114 79 -191 197 -191c63 0 114 32 146 80zM301 619l-149 126l44 53l107 -93l110 90
l39 -51l-147 -125h-4z" />
    <glyph glyph-name="Dcaron" unicode="&#x10e;" horiz-adv-x="712" 
d="M74 0v700h216c284 0 386 -158 386 -340c0 -200 -122 -360 -396 -360h-206zM288 615h-123v-530h121c209 0 296 116 296 275c0 146 -78 255 -294 255zM299 756l-183 106l37 53l148 -83l147 83l30 -52l-175 -107h-4z" />
    <glyph glyph-name="dcaron" unicode="&#x10f;" horiz-adv-x="617" 
d="M450 0v62c-19 -30 -75 -71 -162 -71c-151 0 -256 101 -256 268c0 162 118 273 263 273c75 0 124 -20 155 -51v249h84v-730h-84zM300 71c79 0 131 59 150 99v210c-32 47 -78 73 -145 73c-99 0 -184 -74 -184 -192s75 -190 179 -190zM608 730h87c8 -15 12 -35 12 -64
c0 -68 -50 -125 -95 -152l-37 35c33 25 52 73 52 105c0 31 -9 62 -19 76z" />
    <glyph glyph-name="Dcroat" unicode="&#x110;" horiz-adv-x="770" 
d="M11 309v77h121v314h216c284 0 386 -158 386 -340c0 -200 -122 -360 -397 -360h-205v309h-121zM346 615h-123v-229h189v-77h-189v-224h120c209 0 296 116 296 275c0 146 -78 255 -293 255z" />
    <glyph glyph-name="dcroat" unicode="&#x111;" horiz-adv-x="595" 
d="M338 581v77h112v72h84v-72h60v-77h-60v-581h-84v62c-19 -30 -75 -71 -162 -71c-151 0 -256 101 -256 268c0 162 118 273 263 273c75 0 124 -20 155 -51v100h-112zM300 71c79 0 131 59 150 99v210c-32 47 -78 73 -145 73c-99 0 -184 -74 -184 -192s75 -190 179 -190z" />
    <glyph glyph-name="Emacron" unicode="&#x112;" horiz-adv-x="637" 
d="M74 0v700h504v-85h-413v-218h385v-83h-385v-229h422v-85h-513zM176 789v73h301v-73h-301z" />
    <glyph glyph-name="emacron" unicode="&#x113;" horiz-adv-x="569" 
d="M463 149l54 -50c-49 -73 -123 -108 -208 -108c-165 0 -277 105 -277 270c0 153 92 271 265 271c137 0 240 -92 240 -236c0 -17 -1 -40 -5 -63h-410c5 -105 84 -163 190 -163c63 0 120 34 151 79zM291 455c-97 0 -157 -61 -170 -146h327c-5 93 -64 146 -157 146zM157 638
v74h269v-74h-269z" />
    <glyph glyph-name="Edotaccent" unicode="&#x116;" horiz-adv-x="637" 
d="M74 0v700h504v-85h-413v-218h385v-83h-385v-229h422v-85h-513zM276 827c0 28 24 48 53 48s53 -20 53 -48c0 -31 -24 -52 -53 -52c-31 0 -53 21 -53 52z" />
    <glyph glyph-name="edotaccent" unicode="&#x117;" horiz-adv-x="569" 
d="M463 149l54 -50c-49 -73 -123 -108 -208 -108c-165 0 -277 105 -277 270c0 153 92 271 265 271c137 0 240 -92 240 -236c0 -17 -1 -40 -5 -63h-410c5 -105 84 -163 190 -163c63 0 120 34 151 79zM291 455c-97 0 -157 -61 -170 -146h327c-5 93 -64 146 -157 146zM241 682
c0 28 24 49 54 49c28 0 52 -21 52 -49c0 -30 -24 -52 -52 -52c-31 0 -54 22 -54 52z" />
    <glyph glyph-name="Eogonek" unicode="&#x118;" horiz-adv-x="641" 
d="M74 0v700h508v-85h-417v-218h389v-83h-389v-229h426v-85h-5c-55 1 -118 -39 -118 -84c0 -37 29 -48 56 -48c20 0 35 3 52 10l18 -57c-17 -12 -48 -21 -85 -21c-59 -1 -121 25 -121 92c0 49 34 87 86 108h-400z" />
    <glyph glyph-name="eogonek" unicode="&#x119;" horiz-adv-x="569" 
d="M463 149l54 -50c-25 -37 -56 -64 -92 -82c-39 -30 -78 -64 -78 -98c0 -28 19 -48 43 -48c14 0 28 2 45 10l25 -58c-17 -12 -45 -23 -83 -23c-57 0 -117 29 -117 89c0 47 32 77 74 103c-8 0 -17 -1 -25 -1c-165 0 -277 105 -277 270c0 153 92 271 265 271
c137 0 240 -92 240 -236c0 -17 -1 -40 -5 -63h-410c5 -105 84 -163 190 -163c63 0 120 34 151 79zM291 455c-97 0 -157 -61 -170 -146h327c-5 93 -64 146 -157 146z" />
    <glyph glyph-name="Ecaron" unicode="&#x11a;" horiz-adv-x="637" 
d="M74 0v700h504v-85h-413v-218h385v-83h-385v-229h422v-85h-513zM335 756l-183 106l37 53l148 -83l147 83l30 -52l-175 -107h-4z" />
    <glyph glyph-name="ecaron" unicode="&#x11b;" horiz-adv-x="569" 
d="M463 149l54 -50c-49 -73 -123 -108 -208 -108c-165 0 -277 105 -277 270c0 153 92 271 265 271c137 0 240 -92 240 -236c0 -17 -1 -40 -5 -63h-410c5 -105 84 -163 190 -163c63 0 120 34 151 79zM291 455c-97 0 -157 -61 -170 -146h327c-5 93 -64 146 -157 146zM284 619
l-149 126l44 53l107 -93l110 90l39 -51l-147 -125h-4z" />
    <glyph glyph-name="Gcircumflex" unicode="&#x11c;" horiz-adv-x="710" 
d="M394 275v83h280v-261c-62 -67 -170 -106 -270 -106c-212 0 -368 141 -368 359c0 201 153 359 357 359c118 0 210 -39 264 -106l-57 -59c-42 46 -109 78 -201 78c-160 0 -268 -110 -268 -272c0 -169 115 -272 275 -272c62 0 130 18 181 60v137h-193zM378 915l182 -107
l-36 -53l-148 79l-147 -79l-31 53l176 107h4z" />
    <glyph glyph-name="gcircumflex" unicode="&#x11d;" horiz-adv-x="593" 
d="M533 520v-480c0 -176 -100 -249 -233 -249c-114 0 -203 49 -232 126l75 33c20 -40 69 -79 152 -79c101 0 153 58 153 154v31c-34 -40 -69 -65 -157 -65c-155 0 -259 101 -259 270c0 168 117 270 260 270c78 0 132 -28 156 -57v46h85zM305 70c74 0 126 48 143 99v209
c-24 41 -74 74 -144 74c-99 0 -183 -67 -183 -193c0 -118 72 -189 184 -189zM301 785l149 -127l-44 -53l-106 93l-111 -90l-39 51l147 126h4z" />
    <glyph glyph-name="Gbreve" unicode="&#x11e;" horiz-adv-x="710" 
d="M394 275v83h280v-261c-62 -67 -170 -106 -270 -106c-212 0 -368 141 -368 359c0 201 153 359 357 359c118 0 210 -39 264 -106l-57 -59c-42 46 -109 78 -201 78c-160 0 -268 -110 -268 -272c0 -169 115 -272 275 -272c62 0 130 18 181 60v137h-193zM204 867l41 43
c22 -26 67 -63 143 -63c66 0 113 30 140 63l36 -41c-32 -53 -100 -98 -176 -98c-95 0 -155 52 -184 96z" />
    <glyph glyph-name="gbreve" unicode="&#x11f;" horiz-adv-x="593" 
d="M533 520v-480c0 -176 -100 -249 -233 -249c-114 0 -203 49 -232 126l75 33c20 -40 69 -79 152 -79c101 0 153 58 153 154v31c-34 -40 -69 -65 -157 -65c-155 0 -259 101 -259 270c0 168 117 270 260 270c78 0 132 -28 156 -57v46h85zM305 70c74 0 126 48 143 99v209
c-24 41 -74 74 -144 74c-99 0 -183 -67 -183 -193c0 -118 72 -189 184 -189zM144 727l38 41c20 -24 67 -57 118 -57c53 0 95 25 119 56l30 -40c-30 -45 -78 -92 -152 -92c-80 0 -135 64 -153 92z" />
    <glyph glyph-name="Gdotaccent" unicode="&#x120;" horiz-adv-x="710" 
d="M394 275v83h280v-261c-62 -67 -170 -106 -270 -106c-212 0 -368 141 -368 359c0 201 153 359 357 359c118 0 210 -39 264 -106l-57 -59c-42 46 -109 78 -201 78c-160 0 -268 -110 -268 -272c0 -169 115 -272 275 -272c62 0 130 18 181 60v137h-193zM332 827
c0 28 24 48 53 48s53 -20 53 -48c0 -31 -24 -52 -53 -52c-31 0 -53 21 -53 52z" />
    <glyph glyph-name="gdotaccent" unicode="&#x121;" horiz-adv-x="593" 
d="M533 520v-480c0 -176 -100 -249 -233 -249c-114 0 -203 49 -232 126l75 33c20 -40 69 -79 152 -79c101 0 153 58 153 154v31c-34 -40 -69 -65 -157 -65c-155 0 -259 101 -259 270c0 168 117 270 260 270c78 0 132 -28 156 -57v46h85zM305 70c74 0 126 48 143 99v209
c-24 41 -74 74 -144 74c-99 0 -183 -67 -183 -193c0 -118 72 -189 184 -189zM253 682c0 28 24 49 54 49c28 0 52 -21 52 -49c0 -30 -24 -52 -52 -52c-31 0 -54 22 -54 52z" />
    <glyph glyph-name="Gcommaaccent" unicode="&#x122;" horiz-adv-x="710" 
d="M394 275v83h280v-261c-62 -67 -170 -106 -270 -106c-212 0 -368 141 -368 359c0 201 153 359 357 359c118 0 210 -39 264 -106l-57 -59c-42 46 -109 78 -201 78c-160 0 -268 -110 -268 -272c0 -169 115 -272 275 -272c62 0 130 18 181 60v137h-193zM360 -91l70 46
c20 -17 40 -45 40 -79c0 -68 -47 -117 -81 -138l-40 33c22 21 39 49 39 81c0 26 -12 41 -28 57z" />
    <glyph glyph-name="gcommaaccent" unicode="&#x123;" horiz-adv-x="593" 
d="M356 635l-70 -47c-20 18 -39 45 -39 80c0 67 46 116 81 137l39 -33c-21 -21 -39 -49 -39 -81c0 -26 12 -40 28 -56zM533 520v-480c0 -176 -100 -249 -233 -249c-114 0 -203 49 -232 126l75 33c20 -40 69 -79 152 -79c101 0 153 58 153 154v31c-34 -40 -69 -65 -157 -65
c-155 0 -259 101 -259 270c0 168 117 270 260 270c78 0 132 -28 156 -57v46h85zM305 70c74 0 126 48 143 99v209c-24 41 -74 74 -144 74c-99 0 -183 -67 -183 -193c0 -118 72 -189 184 -189z" />
    <glyph glyph-name="Hcircumflex" unicode="&#x124;" horiz-adv-x="747" 
d="M582 0v313h-417v-313h-91v700h91v-302h417v302h91v-700h-91zM372 915l182 -107l-36 -53l-148 79l-147 -79l-31 53l176 107h4z" />
    <glyph glyph-name="hcircumflex" unicode="&#x125;" horiz-adv-x="588" 
d="M61 0v730h84v-278c38 50 92 79 169 79c142 0 219 -72 219 -236v-295h-84v287c0 113 -49 165 -151 165c-73 0 -126 -47 -153 -108v-344h-84zM112 895l182 -107l-36 -53l-148 79l-147 -79l-31 53l176 107h4z" />
    <glyph glyph-name="Hbar" unicode="&#x126;" horiz-adv-x="747" 
d="M0 515v74h74v111h91v-111h417v111h91v-111h74v-74h-74v-515h-91v313h-417v-313h-91v515h-74zM165 398h417v117h-417v-117z" />
    <glyph glyph-name="hbar" unicode="&#x127;" horiz-adv-x="588" 
d="M0 581v77h61v72h84v-72h111v-77h-111v-129c38 50 92 79 169 79c142 0 219 -72 219 -236v-295h-84v287c0 113 -49 165 -151 165c-73 0 -126 -47 -153 -108v-344h-84v581h-61z" />
    <glyph glyph-name="Imacron" unicode="&#x12a;" horiz-adv-x="239" 
d="M74 0v700h91v-700h-91zM-32 789v73h301v-73h-301z" />
    <glyph glyph-name="imacron" unicode="&#x12b;" horiz-adv-x="244" 
d="M80 0v520h84v-520h-84zM-12 638v74h269v-74h-269z" />
    <glyph glyph-name="Iogonek" unicode="&#x12e;" horiz-adv-x="256" 
d="M160 -122l18 -57c-17 -12 -48 -21 -85 -21c-59 -1 -121 25 -121 92c0 57 46 97 111 116v692h91v-700h-4c-55 1 -118 -39 -118 -84c0 -37 29 -48 56 -48c20 0 35 3 52 10z" />
    <glyph glyph-name="iogonek" unicode="&#x12f;" horiz-adv-x="244" 
d="M150 -119l25 -58c-17 -12 -45 -23 -83 -23c-57 0 -117 29 -117 98c0 56 49 93 105 111v511h84v-520h-6c-43 -1 -96 -37 -96 -81c0 -28 19 -48 43 -48c14 0 28 2 45 10zM69 679c0 28 24 49 54 49c28 0 52 -21 52 -49c0 -30 -24 -52 -52 -52c-31 0 -54 22 -54 52z" />
    <glyph glyph-name="Idotaccent" unicode="&#x130;" horiz-adv-x="239" 
d="M74 0v700h91v-700h-91zM67 827c0 28 24 48 53 48s53 -20 53 -48c0 -31 -24 -52 -53 -52c-31 0 -53 21 -53 52z" />
    <glyph glyph-name="dotlessi" unicode="&#x131;" horiz-adv-x="244" 
d="M80 0v520h84v-520h-84z" />
    <glyph glyph-name="Jcircumflex" unicode="&#x134;" horiz-adv-x="477" 
d="M413 700v-488c0 -143 -84 -221 -208 -221c-112 0 -180 68 -209 127l68 52c27 -49 75 -95 134 -94c79 1 124 38 124 152v472h91zM358 915l182 -107l-36 -53l-148 79l-147 -79l-31 53l176 107h4z" />
    <glyph glyph-name="jcircumflex" unicode="&#x135;" horiz-adv-x="245" 
d="M167 520v-524c0 -129 -51 -205 -162 -205c-65 0 -121 28 -147 82l70 38c15 -20 30 -40 73 -40c53 0 82 45 82 128v521h84zM124 785l149 -127l-44 -53l-106 93l-111 -90l-39 51l147 126h4z" />
    <glyph glyph-name="Kcommaaccent" unicode="&#x136;" horiz-adv-x="661" 
d="M74 0v700h91v-338l354 338h119l-330 -317l354 -383h-120l-302 323l-75 -72v-251h-91zM266 -91l70 46c20 -17 40 -45 40 -79c0 -68 -47 -117 -81 -138l-40 33c22 21 39 49 39 81c0 26 -12 41 -28 57z" />
    <glyph glyph-name="kcommaaccent" unicode="&#x137;" horiz-adv-x="524" 
d="M61 0v730h84v-441l252 231h113l-250 -231l267 -289h-111l-230 242l-41 -34v-208h-84zM200 -91l70 46c20 -17 40 -45 40 -79c0 -68 -47 -117 -82 -138l-39 33c21 21 39 49 39 81c0 26 -12 41 -28 57z" />
    <glyph glyph-name="Lacute" unicode="&#x139;" horiz-adv-x="590" 
d="M74 0v700h91v-615h415v-85h-506zM458 852l-200 -97l-31 56l193 115z" />
    <glyph glyph-name="lacute" unicode="&#x13a;" horiz-adv-x="222" 
d="M69 0v730h84v-730h-84zM298 859l-200 -97l-31 56l193 115z" />
    <glyph glyph-name="Lcommaaccent" unicode="&#x13b;" horiz-adv-x="590" 
d="M74 0v700h91v-615h415v-85h-506zM271 -91l70 46c20 -17 40 -45 40 -79c0 -68 -47 -117 -81 -138l-40 33c22 21 39 49 39 81c0 26 -12 41 -28 57z" />
    <glyph glyph-name="lcommaaccent" unicode="&#x13c;" horiz-adv-x="222" 
d="M69 0v730h84v-730h-84zM62 -91l70 46c20 -17 40 -45 40 -79c0 -68 -47 -117 -82 -138l-39 33c21 21 39 49 39 81c0 26 -12 41 -28 57z" />
    <glyph glyph-name="Lcaron" unicode="&#x13d;" horiz-adv-x="590" 
d="M74 0v700h91v-615h415v-85h-506zM384 700h87c8 -15 12 -35 12 -64c0 -68 -50 -125 -95 -152l-37 35c33 25 52 73 52 105c0 31 -9 62 -19 76z" />
    <glyph glyph-name="lcaron" unicode="&#x13e;" horiz-adv-x="238" 
d="M69 0v730h84v-730h-84zM223 730h87c8 -15 12 -35 12 -64c0 -68 -50 -125 -95 -152l-37 35c33 25 52 73 52 105c0 31 -9 62 -19 76z" />
    <glyph glyph-name="Ldot" unicode="&#x13f;" horiz-adv-x="590" 
d="M74 0v700h91v-615h415v-85h-506zM355 381c0 24 22 49 55 49c30 0 53 -25 53 -49c0 -28 -23 -53 -53 -53c-33 0 -55 25 -55 53z" />
    <glyph glyph-name="ldot" unicode="&#x140;" horiz-adv-x="297" 
d="M69 0v730h84v-730h-84zM206 359c0 24 22 49 55 49c30 0 53 -25 53 -49c0 -28 -23 -53 -53 -53c-33 0 -55 25 -55 53z" />
    <glyph glyph-name="Lslash" unicode="&#x141;" horiz-adv-x="598" 
d="M0 144v94l82 60v402h91v-335l203 149v-94l-203 -149v-186h415v-85h-506v204z" />
    <glyph glyph-name="lslash" unicode="&#x142;" horiz-adv-x="289" 
d="M0 191v93l100 73v373h84v-311l105 78v-94l-105 -77v-326h-84v264z" />
    <glyph glyph-name="Nacute" unicode="&#x143;" horiz-adv-x="736" 
d="M662 0h-71l-429 534v-534h-88v700h72l428 -536v536h88v-700zM547 852l-200 -97l-31 56l193 115z" />
    <glyph glyph-name="nacute" unicode="&#x144;" horiz-adv-x="589" 
d="M61 0v520h84v-68c34 52 103 79 178 79c136 0 211 -70 211 -235v-296h-84v286c0 115 -50 166 -152 166c-64 0 -125 -42 -153 -105v-347h-84zM416 759l-122 -151l-56 39l114 160z" />
    <glyph glyph-name="Ncommaaccent" unicode="&#x145;" horiz-adv-x="736" 
d="M662 0h-71l-429 534v-534h-88v700h72l428 -536v536h88v-700zM327 -91l70 46c20 -17 40 -45 40 -79c0 -68 -47 -117 -81 -138l-40 33c22 21 39 49 39 81c0 26 -12 41 -28 57z" />
    <glyph glyph-name="ncommaaccent" unicode="&#x146;" horiz-adv-x="589" 
d="M61 0v520h84v-68c34 52 103 79 178 79c136 0 211 -70 211 -235v-296h-84v286c0 115 -50 166 -152 166c-64 0 -125 -42 -153 -105v-347h-84zM235 -91l70 46c20 -17 40 -45 40 -79c0 -68 -47 -117 -82 -138l-39 33c21 21 39 49 39 81c0 26 -12 41 -28 57z" />
    <glyph glyph-name="Ncaron" unicode="&#x147;" horiz-adv-x="736" 
d="M662 0h-71l-429 534v-534h-88v700h72l428 -536v536h88v-700zM370 756l-183 106l37 53l148 -83l147 83l30 -52l-175 -107h-4z" />
    <glyph glyph-name="ncaron" unicode="&#x148;" horiz-adv-x="589" 
d="M61 0v520h84v-68c34 52 103 79 178 79c136 0 211 -70 211 -235v-296h-84v286c0 115 -50 166 -152 166c-64 0 -125 -42 -153 -105v-347h-84zM293 619l-149 126l44 53l107 -93l110 90l39 -51l-147 -125h-4z" />
    <glyph glyph-name="Omacron" unicode="&#x14c;" horiz-adv-x="783" 
d="M36 350c0 203 156 359 356 359c197 0 355 -150 355 -359c0 -206 -158 -359 -355 -359c-198 0 -356 150 -356 359zM131 350c0 -159 119 -272 261 -272c147 0 260 113 260 272c0 160 -120 272 -260 272c-143 0 -261 -112 -261 -272zM241 789v73h301v-73h-301z" />
    <glyph glyph-name="omacron" unicode="&#x14d;" horiz-adv-x="616" 
d="M32 261c0 158 112 271 275 271c164 0 277 -113 277 -271c0 -157 -113 -270 -277 -270c-161 0 -275 113 -275 270zM121 261c0 -111 77 -191 186 -191c111 0 188 77 188 191c0 115 -81 192 -188 192s-186 -76 -186 -192zM174 638v74h269v-74h-269z" />
    <glyph glyph-name="Ohungarumlaut" unicode="&#x150;" horiz-adv-x="783" 
d="M36 350c0 203 156 359 356 359c197 0 355 -150 355 -359c0 -206 -158 -359 -355 -359c-198 0 -356 150 -356 359zM131 350c0 -159 119 -272 261 -272c147 0 260 113 260 272c0 160 -120 272 -260 272c-143 0 -261 -112 -261 -272zM641 848l-172 -99l-34 43l155 116z
M453 859l-159 -110l-34 41l132 118z" />
    <glyph glyph-name="ohungarumlaut" unicode="&#x151;" horiz-adv-x="616" 
d="M32 261c0 158 112 271 275 271c164 0 277 -113 277 -271c0 -157 -113 -270 -277 -270c-161 0 -275 113 -275 270zM121 261c0 -111 77 -191 186 -191c111 0 188 77 188 191c0 115 -81 192 -188 192s-186 -76 -186 -192zM517 768l-135 -160l-47 34l123 170zM363 774
l-128 -166l-48 34l118 174z" />
    <glyph glyph-name="OE" unicode="&#x152;" horiz-adv-x="1180" 
d="M614 0v78c-59 -54 -138 -87 -222 -87c-198 0 -356 150 -356 359c0 203 156 359 356 359c85 0 163 -29 222 -84v75h508v-85h-417v-218h389v-83h-389v-229h426v-85h-517zM392 78c95 0 176 47 222 124v293c-47 78 -130 127 -222 127c-143 0 -261 -112 -261 -272
c0 -159 119 -272 261 -272z" />
    <glyph glyph-name="oe" unicode="&#x153;" horiz-adv-x="970" 
d="M864 149l55 -50c-50 -73 -124 -108 -209 -108c-84 0 -155 27 -203 76c-49 -48 -118 -76 -200 -76c-161 0 -275 113 -275 270c0 158 112 271 275 271c80 0 149 -27 198 -74c44 46 109 74 193 74c138 0 240 -92 240 -236c0 -17 -1 -40 -4 -63h-411c5 -105 84 -163 190 -163
c63 0 120 34 151 79zM311 70c71 0 123 28 150 61c-19 37 -28 81 -28 130c0 46 8 90 25 128c-31 37 -80 64 -151 64c-107 0 -186 -76 -186 -192c0 -111 77 -191 190 -191zM692 455c-97 0 -157 -61 -170 -146h328c-6 93 -65 146 -158 146z" />
    <glyph glyph-name="Racute" unicode="&#x154;" horiz-adv-x="678" 
d="M165 0h-91v700h268c213 0 271 -100 271 -210c0 -100 -70 -177 -171 -198l224 -292h-111l-208 274h-182v-274zM339 615h-174v-256h180c106 0 175 51 175 131c0 73 -45 125 -181 125zM468 852l-200 -97l-31 56l193 115z" />
    <glyph glyph-name="racute" unicode="&#x155;" horiz-adv-x="354" 
d="M61 0v520h84v-40c18 37 67 51 107 51c50 0 83 -18 106 -47l-53 -58c-12 16 -30 26 -62 26c-45 0 -86 -36 -98 -90v-362h-84zM311 759l-122 -151l-56 39l114 160z" />
    <glyph glyph-name="Rcommaaccent" unicode="&#x156;" horiz-adv-x="678" 
d="M165 0h-91v700h268c213 0 271 -100 271 -210c0 -100 -70 -177 -171 -198l224 -292h-111l-208 274h-182v-274zM339 615h-174v-256h180c106 0 175 51 175 131c0 73 -45 125 -181 125zM284 -91l70 46c20 -17 40 -45 40 -79c0 -68 -47 -117 -81 -138l-40 33
c22 21 39 49 39 81c0 26 -12 41 -28 57z" />
    <glyph glyph-name="rcommaaccent" unicode="&#x157;" horiz-adv-x="354" 
d="M61 0v520h84v-40c18 37 67 51 107 51c50 0 83 -18 106 -47l-53 -58c-12 16 -30 26 -62 26c-45 0 -86 -36 -98 -90v-362h-84zM82 -91l70 46c20 -17 40 -45 40 -79c0 -68 -47 -117 -82 -138l-39 33c21 21 39 49 39 81c0 26 -12 41 -28 57z" />
    <glyph glyph-name="Rcaron" unicode="&#x158;" horiz-adv-x="678" 
d="M165 0h-91v700h268c213 0 271 -100 271 -210c0 -100 -70 -177 -171 -198l224 -292h-111l-208 274h-182v-274zM339 615h-174v-256h180c106 0 175 51 175 131c0 73 -45 125 -181 125zM309 756l-183 106l37 53l148 -83l147 83l30 -52l-175 -107h-4z" />
    <glyph glyph-name="rcaron" unicode="&#x159;" horiz-adv-x="354" 
d="M61 0v520h84v-40c18 37 67 51 107 51c50 0 83 -18 106 -47l-53 -58c-12 16 -30 26 -62 26c-45 0 -86 -36 -98 -90v-362h-84zM195 619l-149 126l44 53l107 -93l110 90l39 -51l-147 -125h-4z" />
    <glyph glyph-name="Sacute" unicode="&#x15a;" horiz-adv-x="613" 
d="M480 186c0 174 -432 72 -432 331c0 104 100 192 259 192c109 0 202 -34 255 -102l-59 -59c-42 42 -107 75 -198 75c-67 0 -163 -26 -163 -104c0 -171 432 -76 432 -326c0 -120 -109 -202 -254 -202c-124 0 -239 63 -287 135l59 64c45 -58 128 -113 237 -113
c80 0 151 40 151 109zM483 852l-200 -97l-31 56l193 115z" />
    <glyph glyph-name="sacute" unicode="&#x15b;" horiz-adv-x="497" 
d="M380 142c0 123 -331 49 -331 241c0 93 89 149 216 149c91 0 159 -39 194 -90l-59 -55c-28 38 -82 66 -150 66c-53 0 -112 -20 -112 -66c0 -109 330 -41 330 -244c0 -105 -88 -152 -208 -152c-107 0 -198 49 -235 123l67 47c31 -55 102 -91 182 -91c60 0 106 18 106 72z
M374 759l-122 -151l-56 39l114 160z" />
    <glyph glyph-name="Scircumflex" unicode="&#x15c;" horiz-adv-x="613" 
d="M480 186c0 174 -432 72 -432 331c0 104 100 192 259 192c109 0 202 -34 255 -102l-59 -59c-42 42 -107 75 -198 75c-67 0 -163 -26 -163 -104c0 -171 432 -76 432 -326c0 -120 -109 -202 -254 -202c-124 0 -239 63 -287 135l59 64c45 -58 128 -113 237 -113
c80 0 151 40 151 109zM308 915l182 -107l-36 -53l-148 79l-147 -79l-31 53l176 107h4z" />
    <glyph glyph-name="scircumflex" unicode="&#x15d;" horiz-adv-x="497" 
d="M380 142c0 123 -331 49 -331 241c0 93 89 149 216 149c91 0 159 -39 194 -90l-59 -55c-28 38 -82 66 -150 66c-53 0 -112 -20 -112 -66c0 -109 330 -41 330 -244c0 -105 -88 -152 -208 -152c-107 0 -198 49 -235 123l67 47c31 -55 102 -91 182 -91c60 0 106 18 106 72z
M253 785l149 -127l-44 -53l-106 93l-111 -90l-39 51l147 126h4z" />
    <glyph glyph-name="Scedilla" unicode="&#x15e;" horiz-adv-x="613" 
d="M194 -169l29 48c22 -13 49 -22 77 -22c39 0 48 11 48 28c0 22 -19 29 -54 29h-19v80c-106 13 -200 69 -242 132l59 64c45 -58 128 -113 237 -113c80 0 151 40 151 109c0 174 -432 72 -432 331c0 104 100 192 259 192c109 0 202 -34 255 -102l-59 -59
c-42 42 -107 75 -198 75c-67 0 -163 -26 -163 -104c0 -171 432 -76 432 -326c0 -118 -105 -199 -246 -202v-28c73 -3 103 -36 103 -82s-34 -85 -120 -85c-54 0 -92 15 -117 35z" />
    <glyph glyph-name="scedilla" unicode="&#x15f;" horiz-adv-x="497" 
d="M143 -170l25 49c23 -13 49 -22 77 -22c39 0 49 11 49 28c0 22 -20 29 -55 29h-18v79c-90 10 -164 56 -196 121l67 47c31 -55 102 -91 174 -91c51 0 114 18 114 72c0 103 -335 63 -335 241c0 93 78 149 206 149c86 0 169 -39 204 -90l-59 -55c-28 38 -91 66 -156 66
c-56 0 -106 -15 -106 -66c0 -98 334 -61 334 -244c0 -101 -89 -148 -195 -151v-29c69 -3 100 -36 100 -82s-38 -85 -125 -85c-45 0 -81 16 -105 34z" />
    <glyph glyph-name="Scaron" unicode="&#x160;" horiz-adv-x="613" 
d="M480 186c0 174 -432 72 -432 331c0 104 100 192 259 192c109 0 202 -34 255 -102l-59 -59c-42 42 -107 75 -198 75c-67 0 -163 -26 -163 -104c0 -171 432 -76 432 -326c0 -120 -109 -202 -254 -202c-124 0 -239 63 -287 135l59 64c45 -58 128 -113 237 -113
c80 0 151 40 151 109zM308 756l-183 106l37 53l148 -83l147 83l30 -52l-175 -107h-4z" />
    <glyph glyph-name="scaron" unicode="&#x161;" horiz-adv-x="497" 
d="M380 142c0 123 -331 49 -331 241c0 93 89 149 216 149c91 0 159 -39 194 -90l-59 -55c-28 38 -82 66 -150 66c-53 0 -112 -20 -112 -66c0 -109 330 -41 330 -244c0 -105 -88 -152 -208 -152c-107 0 -198 49 -235 123l67 47c31 -55 102 -91 182 -91c60 0 106 18 106 72z
M247 619l-149 126l44 53l107 -93l110 90l39 -51l-147 -125h-4z" />
    <glyph glyph-name="Tcedilla" unicode="&#x162;" horiz-adv-x="583" 
d="M3 615v85h578v-85h-244v-615h-19v-37c69 -3 99 -36 99 -82s-34 -85 -121 -85c-53 0 -91 15 -117 35l30 48c22 -13 49 -22 76 -22c40 0 49 11 49 28c0 22 -19 29 -55 29h-15v86h-18v615h-243z" />
    <glyph glyph-name="tcedilla" unicode="&#x163;" horiz-adv-x="410" 
d="M143 -170l25 49c23 -13 49 -22 77 -22c39 0 49 11 49 28c0 22 -20 29 -55 29h-18v84c-76 16 -117 82 -117 191v251h-98v80h98v113h84v-113h179v-80h-179v-229c0 -103 28 -138 90 -138c36 0 64 23 80 44l52 -49c-26 -39 -77 -71 -137 -74v-31c69 -3 100 -36 100 -82
s-38 -85 -125 -85c-45 0 -81 16 -105 34z" />
    <glyph glyph-name="Tcaron" unicode="&#x164;" horiz-adv-x="583" 
d="M3 615v85h578v-85h-244v-615h-91v615h-243zM293 756l-183 106l37 53l148 -83l147 83l30 -52l-175 -107h-4z" />
    <glyph glyph-name="tcaron" unicode="&#x165;" horiz-adv-x="406" 
d="M6 440v80h98v113h84v-422c0 -103 28 -138 90 -138c36 0 64 23 80 44l52 -49c-27 -41 -82 -75 -147 -75c-102 0 -159 68 -159 196v251h-98zM277 719h87c8 -15 12 -35 12 -64c0 -68 -50 -125 -95 -152l-37 35c33 25 52 73 52 105c0 31 -9 62 -19 76z" />
    <glyph glyph-name="Umacron" unicode="&#x16a;" horiz-adv-x="730" 
d="M660 700v-404c0 -216 -144 -304 -286 -304c-163 0 -304 104 -304 310v398h91v-385c0 -154 95 -237 213 -237c130 0 195 92 195 232v390h91zM214 789v73h301v-73h-301z" />
    <glyph glyph-name="umacron" unicode="&#x16b;" horiz-adv-x="581" 
d="M521 523v-523h-84v74c-36 -50 -94 -83 -169 -83c-142 0 -214 71 -214 231v301h84v-289c0 -89 30 -164 137 -164c72 0 130 42 162 113v340h84zM157 638v74h269v-74h-269z" />
    <glyph glyph-name="Ubreve" unicode="&#x16c;" horiz-adv-x="730" 
d="M660 700v-404c0 -216 -144 -304 -286 -304c-163 0 -304 104 -304 310v398h91v-385c0 -154 95 -237 213 -237c130 0 195 92 195 232v390h91zM184 867l41 43c22 -26 67 -63 143 -63c66 0 113 30 140 63l36 -41c-32 -53 -100 -98 -176 -98c-95 0 -155 52 -184 96z" />
    <glyph glyph-name="ubreve" unicode="&#x16d;" horiz-adv-x="581" 
d="M521 523v-523h-84v74c-36 -50 -94 -83 -169 -83c-142 0 -214 71 -214 231v301h84v-289c0 -89 30 -164 137 -164c72 0 130 42 162 113v340h84zM132 727l38 41c20 -24 67 -57 118 -57c53 0 95 25 119 56l30 -40c-30 -45 -78 -92 -152 -92c-80 0 -135 64 -153 92z" />
    <glyph glyph-name="Uring" unicode="&#x16e;" horiz-adv-x="730" 
d="M660 700v-404c0 -216 -144 -304 -286 -304c-163 0 -304 104 -304 310v398h91v-385c0 -154 95 -237 213 -237c130 0 195 92 195 232v390h91zM243 829c0 66 58 100 121 100c65 0 124 -32 124 -100c0 -64 -52 -104 -124 -104c-70 0 -121 38 -121 104zM308 829
c0 -28 21 -49 57 -49c38 0 57 20 57 49c0 27 -23 45 -57 45c-36 0 -57 -19 -57 -45z" />
    <glyph glyph-name="uring" unicode="&#x16f;" horiz-adv-x="581" 
d="M521 523v-523h-84v74c-36 -50 -94 -83 -169 -83c-142 0 -214 71 -214 231v301h84v-289c0 -89 30 -164 137 -164c72 0 130 42 162 113v340h84zM181 701c0 58 47 106 109 106s110 -48 110 -106s-48 -105 -110 -105s-109 47 -109 105zM242 702c0 -29 20 -50 49 -50
c27 0 48 18 48 50c0 31 -19 49 -48 49s-49 -20 -49 -49z" />
    <glyph glyph-name="Uhungarumlaut" unicode="&#x170;" horiz-adv-x="730" 
d="M660 700v-404c0 -216 -144 -304 -286 -304c-163 0 -304 104 -304 310v398h91v-385c0 -154 95 -237 213 -237c130 0 195 92 195 232v390h91zM613 848l-172 -99l-34 43l155 116zM425 859l-159 -110l-34 41l132 118z" />
    <glyph glyph-name="uhungarumlaut" unicode="&#x171;" horiz-adv-x="581" 
d="M521 523v-523h-84v74c-36 -50 -94 -83 -169 -83c-142 0 -214 71 -214 231v301h84v-289c0 -89 30 -164 137 -164c72 0 130 42 162 113v340h84zM496 768l-135 -160l-47 34l123 170zM342 774l-128 -166l-48 34l118 174z" />
    <glyph glyph-name="Uogonek" unicode="&#x172;" horiz-adv-x="730" 
d="M660 700v-404c0 -194 -116 -285 -243 -301c-28 -18 -48 -44 -48 -74c0 -42 28 -53 56 -53c19 0 34 3 51 10l19 -57c-17 -12 -48 -21 -85 -21c-59 -1 -122 25 -122 92c0 42 27 75 67 101c-155 7 -285 111 -285 309v398h91v-385c0 -154 95 -237 213 -237
c130 0 195 92 195 232v390h91z" />
    <glyph glyph-name="uogonek" unicode="&#x173;" horiz-adv-x="581" 
d="M506 -119l25 -58c-17 -12 -45 -23 -83 -23c-57 0 -117 29 -117 98c0 56 49 94 106 112v64c-36 -50 -94 -83 -169 -83c-142 0 -214 71 -214 231v301h84v-289c0 -89 30 -164 137 -164c72 0 130 42 162 113v340h84v-523h-7c-43 -1 -96 -37 -96 -81c0 -28 19 -48 43 -48
c14 0 28 2 45 10z" />
    <glyph glyph-name="Ydieresis" unicode="&#x178;" horiz-adv-x="632" 
d="M642 700l-282 -435v-265h-91v265l-279 435h111l216 -339l219 339h106zM144 825c0 29 24 49 56 49c25 0 52 -20 52 -49c0 -30 -27 -48 -52 -48c-32 0 -56 18 -56 48zM381 825c0 29 25 49 54 49c27 0 52 -19 52 -49s-25 -48 -52 -48c-29 0 -54 18 -54 48z" />
    <glyph glyph-name="Zacute" unicode="&#x179;" horiz-adv-x="631" 
d="M31 615v85h570v-61l-459 -554h469v-85h-598v61l457 554h-439zM483 852l-200 -97l-31 56l193 115z" />
    <glyph glyph-name="zacute" unicode="&#x17a;" horiz-adv-x="496" 
d="M36 441v79h440v-55l-329 -386h323v-79h-450v56l329 385h-313zM367 759l-122 -151l-56 39l114 160z" />
    <glyph glyph-name="Zdotaccent" unicode="&#x17b;" horiz-adv-x="631" 
d="M31 615v85h570v-61l-459 -554h469v-85h-598v61l457 554h-439zM263 827c0 28 24 48 53 48s53 -20 53 -48c0 -31 -24 -52 -53 -52c-31 0 -53 21 -53 52z" />
    <glyph glyph-name="zdotaccent" unicode="&#x17c;" horiz-adv-x="496" 
d="M36 441v79h440v-55l-329 -386h323v-79h-450v56l329 385h-313zM195 682c0 28 24 49 54 49c28 0 52 -21 52 -49c0 -30 -24 -52 -52 -52c-31 0 -54 22 -54 52z" />
    <glyph glyph-name="Zcaron" unicode="&#x17d;" horiz-adv-x="631" 
d="M31 615v85h570v-61l-459 -554h469v-85h-598v61l457 554h-439zM317 756l-183 106l37 53l148 -83l147 83l30 -52l-175 -107h-4z" />
    <glyph glyph-name="zcaron" unicode="&#x17e;" horiz-adv-x="496" 
d="M36 441v79h440v-55l-329 -386h323v-79h-450v56l329 385h-313zM247 619l-149 126l44 53l107 -93l110 90l39 -51l-147 -125h-4z" />
    <glyph glyph-name="uni018F" unicode="&#x18f;" horiz-adv-x="756" 
d="M29 317c0 28 4 59 10 83h587c-17 136 -113 224 -265 224c-77 0 -170 -39 -224 -107l-61 58c66 88 184 134 292 134c217 0 352 -138 352 -356c0 -208 -131 -362 -353 -362c-237 0 -338 186 -338 326zM626 315h-508c4 -131 92 -239 254 -239c142 0 249 97 254 239z" />
    <glyph glyph-name="florin" unicode="&#x192;" horiz-adv-x="570" 
d="M344 496c-3 -14 -6 -28 -8 -42h154v-79h-168l-65 -362c-18 -108 -47 -221 -176 -221c-44 0 -84 16 -108 39l28 66c19 -16 44 -26 70 -26c56 0 83 38 96 110l71 394h-145v79h159l9 56c18 106 61 199 189 199c59 0 97 -18 122 -38l-31 -68c-22 17 -47 27 -83 27
c-66 0 -95 -39 -114 -134z" />
    <glyph glyph-name="uni01DD" unicode="&#x1dd;" horiz-adv-x="569" 
d="M106 374l-54 50c53 72 131 108 231 108c143 0 254 -105 254 -270c0 -153 -92 -271 -265 -271c-137 0 -240 97 -240 241c0 17 1 39 5 62h411c-5 105 -85 159 -168 159c-85 0 -143 -34 -174 -79zM278 68c97 0 162 65 170 150h-327c5 -88 64 -150 157 -150z" />
    <glyph glyph-name="Scommaaccent" unicode="&#x218;" horiz-adv-x="613" 
d="M480 186c0 174 -432 72 -432 331c0 104 100 192 259 192c109 0 202 -34 255 -102l-59 -59c-42 42 -107 75 -198 75c-67 0 -163 -26 -163 -104c0 -171 432 -76 432 -326c0 -120 -109 -202 -254 -202c-124 0 -239 63 -287 135l59 64c45 -58 128 -113 237 -113
c80 0 151 40 151 109zM257 -91l70 46c20 -17 40 -45 40 -79c0 -68 -47 -117 -81 -138l-40 33c22 21 39 49 39 81c0 26 -12 41 -28 57z" />
    <glyph glyph-name="scommaaccent" unicode="&#x219;" horiz-adv-x="497" 
d="M380 142c0 123 -331 49 -331 241c0 93 89 149 216 149c91 0 159 -39 194 -90l-59 -55c-28 38 -82 66 -150 66c-53 0 -112 -20 -112 -66c0 -109 330 -41 330 -244c0 -105 -88 -152 -208 -152c-107 0 -198 49 -235 123l67 47c31 -55 102 -91 182 -91c60 0 106 18 106 72z
M200 -91l70 46c20 -17 40 -45 40 -79c0 -68 -47 -117 -82 -138l-39 33c21 21 39 49 39 81c0 26 -12 41 -28 57z" />
    <glyph glyph-name="Tcommaaccent" unicode="&#x21a;" horiz-adv-x="583" 
d="M3 615v85h578v-85h-244v-615h-91v615h-243zM242 -91l70 46c20 -17 40 -45 40 -79c0 -68 -47 -117 -81 -138l-40 33c22 21 39 49 39 81c0 26 -12 41 -28 57z" />
    <glyph glyph-name="tcommaaccent" unicode="&#x21b;" horiz-adv-x="420" 
d="M6 440v80h108v133h84v-133h179v-80h-179v-229c0 -103 28 -138 90 -138c36 0 66 15 94 37l38 -62c-32 -35 -82 -55 -147 -55c-102 0 -159 68 -159 196v251h-108zM192 -91l70 46c20 -17 40 -45 40 -79c0 -68 -47 -117 -82 -138l-39 33c21 21 39 49 39 81
c0 26 -12 41 -28 57z" />
    <glyph glyph-name="uni0237" unicode="&#x237;" horiz-adv-x="245" 
d="M167 520v-524c0 -129 -51 -205 -162 -205c-65 0 -121 28 -147 82l70 38c15 -20 30 -40 73 -40c53 0 82 45 82 128v521h84z" />
    <glyph glyph-name="uni0259" unicode="&#x259;" horiz-adv-x="569" 
d="M106 374l-54 50c53 72 131 108 231 108c143 0 254 -105 254 -270c0 -153 -92 -271 -265 -271c-137 0 -240 97 -240 241c0 17 1 39 5 62h411c-5 105 -85 159 -168 159c-85 0 -143 -34 -174 -79zM278 68c97 0 162 65 170 150h-327c5 -88 64 -150 157 -150z" />
    <glyph glyph-name="afii57929" unicode="&#x2bc;" horiz-adv-x="182" 
d="M73 688l71 45c23 -21 38 -56 38 -91c0 -68 -50 -118 -95 -146l-37 35c31 23 50 57 50 88c0 28 -15 55 -27 69z" />
    <glyph glyph-name="circumflex" unicode="&#x2c6;" horiz-adv-x="455" 
d="M306 785l149 -127l-44 -53l-106 93l-111 -90l-39 51l147 126h4z" />
    <glyph glyph-name="caron" unicode="&#x2c7;" horiz-adv-x="452" 
d="M301 619l-149 126l44 53l107 -93l110 90l39 -51l-147 -125h-4z" />
    <glyph glyph-name="breve" unicode="&#x2d8;" horiz-adv-x="453" 
d="M148 727l38 41c20 -24 67 -57 118 -57c53 0 95 25 119 56l30 -40c-30 -45 -78 -92 -152 -92c-80 0 -135 64 -153 92z" />
    <glyph glyph-name="dotaccent" unicode="&#x2d9;" horiz-adv-x="250" 
d="M69 682c0 28 24 49 54 49c28 0 52 -21 52 -49c0 -30 -24 -52 -52 -52c-31 0 -54 22 -54 52z" />
    <glyph glyph-name="ring" unicode="&#x2da;" horiz-adv-x="418" 
d="M199 701c0 58 47 106 109 106s110 -48 110 -106s-48 -105 -110 -105s-109 47 -109 105zM260 702c0 -29 20 -50 49 -50c27 0 48 18 48 50c0 31 -19 49 -48 49s-49 -20 -49 -49z" />
    <glyph glyph-name="ogonek" unicode="&#x2db;" horiz-adv-x="374" 
d="M349 -119l25 -58c-17 -12 -45 -23 -83 -23c-57 0 -117 29 -117 98c0 82 108 125 186 125v-23c-43 0 -99 -36 -99 -81c0 -28 19 -48 43 -48c14 0 28 2 45 10z" />
    <glyph glyph-name="tilde" unicode="&#x2dc;" horiz-adv-x="462" 
d="M168 624l-38 41c36 39 77 63 113 63c47 0 79 -47 121 -47c25 0 46 11 67 33l31 -43c-34 -43 -72 -61 -105 -61c-52 0 -80 47 -119 47c-24 0 -47 -14 -70 -33z" />
    <glyph glyph-name="hungarumlaut" unicode="&#x2dd;" horiz-adv-x="531" 
d="M531 768l-135 -160l-47 34l123 170zM377 774l-128 -166l-48 34l118 174z" />
    <glyph glyph-name="gravecomb" unicode="&#x300;" horiz-adv-x="0" 
d="M-281 608l-128 149l66 50l112 -159z" />
    <glyph glyph-name="acutecomb" unicode="&#x301;" horiz-adv-x="0" 
d="M-181 759l-122 -151l-56 39l114 160z" />
    <glyph glyph-name="uni0394" unicode="&#x394;" horiz-adv-x="720" 
d="M25 0l303 708h57l310 -708h-670zM356 558l-203 -479h412z" />
    <glyph glyph-name="uni0394" unicode="&#x2206;" horiz-adv-x="720" 
d="M25 0l303 708h57l310 -708h-670zM356 558l-203 -479h412z" />
    <glyph glyph-name="uni03A9" unicode="&#x3a9;" horiz-adv-x="813" 
d="M76 0v86h128c-65 26 -143 129 -143 279c0 203 150 344 346 344c198 0 346 -141 346 -344c0 -154 -82 -246 -152 -279h136v-86h-285v86c101 29 207 129 207 273s-108 264 -252 264c-145 0 -252 -114 -252 -265c0 -144 105 -252 205 -272v-86h-284z" />
    <glyph glyph-name="uni03A9" unicode="&#x2126;" horiz-adv-x="813" 
d="M76 0v86h128c-65 26 -143 129 -143 279c0 203 150 344 346 344c198 0 346 -141 346 -344c0 -154 -82 -246 -152 -279h136v-86h-285v86c101 29 207 129 207 273s-108 264 -252 264c-145 0 -252 -114 -252 -265c0 -144 105 -252 205 -272v-86h-284z" />
    <glyph glyph-name="pi" unicode="&#x3c0;" horiz-adv-x="688" 
d="M45 441v79h602v-79h-112v-291c0 -56 15 -78 53 -78c23 0 48 13 66 25l18 -68c-26 -20 -66 -36 -105 -36c-71 0 -116 39 -116 140v308h-206v-66c0 -309 -67 -380 -214 -380l-5 81c82 1 133 36 134 283l1 82h-116z" />
    <glyph glyph-name="afii10023" unicode="&#x401;" horiz-adv-x="637" 
d="M74 0v700h504v-85h-413v-218h385v-83h-385v-229h422v-85h-513zM155 825c0 29 24 49 56 49c25 0 52 -20 52 -49c0 -30 -27 -48 -52 -48c-32 0 -56 18 -56 48zM392 825c0 29 25 49 54 49c27 0 52 -19 52 -49s-25 -48 -52 -48c-29 0 -54 18 -54 48z" />
    <glyph glyph-name="afii10051" unicode="&#x402;" horiz-adv-x="742" 
d="M614 204c0 91 -43 146 -135 147c-55 1 -114 -29 -144 -76v-275h-91v615h-241v85h576v-85h-244v-239c29 31 89 60 163 60c113 0 207 -62 207 -223c0 -159 -83 -222 -180 -222c-50 0 -91 21 -112 54l54 58c13 -16 27 -27 55 -27c55 0 92 40 92 128z" />
    <glyph glyph-name="afii10052" unicode="&#x403;" horiz-adv-x="572" 
d="M74 0v700h498v-85h-407v-615h-91zM487 852l-200 -97l-31 56l193 115z" />
    <glyph glyph-name="afii10053" unicode="&#x404;" horiz-adv-x="684" 
d="M479 399v-85h-351c15 -158 132 -238 276 -238c81 0 155 40 193 102l68 -40c-47 -101 -168 -147 -258 -147c-223 0 -371 141 -371 359c0 208 143 359 363 359c87 0 202 -35 255 -120l-67 -51c-39 57 -118 86 -194 86c-139 0 -243 -89 -263 -225h349z" />
    <glyph glyph-name="afii10054" unicode="&#x405;" horiz-adv-x="613" 
d="M480 186c0 174 -432 72 -432 331c0 104 100 192 259 192c109 0 202 -34 255 -102l-59 -59c-42 42 -107 75 -198 75c-67 0 -163 -26 -163 -104c0 -171 432 -76 432 -326c0 -120 -109 -202 -254 -202c-124 0 -239 63 -287 135l59 64c45 -58 128 -113 237 -113
c80 0 151 40 151 109z" />
    <glyph glyph-name="afii10055" unicode="&#x406;" horiz-adv-x="239" 
d="M74 0v700h91v-700h-91z" />
    <glyph glyph-name="afii10056" unicode="&#x407;" horiz-adv-x="256" 
d="M-1 804c0 27 22 46 50 46c26 0 50 -19 50 -46c0 -28 -24 -47 -50 -47c-28 0 -50 19 -50 47zM157 804c0 27 23 46 51 46c26 0 49 -19 49 -46c0 -28 -23 -47 -49 -47c-28 0 -51 19 -51 47zM83 0v700h91v-700h-91z" />
    <glyph glyph-name="afii10057" unicode="&#x408;" horiz-adv-x="477" 
d="M413 700v-488c0 -143 -84 -221 -208 -221c-112 0 -180 68 -209 127l68 52c27 -49 75 -95 134 -94c79 1 124 38 124 152v472h91z" />
    <glyph glyph-name="afii10058" unicode="&#x409;" horiz-adv-x="1041" 
d="M746 354h-131v-269h124c115 0 180 43 180 141c0 85 -59 128 -173 128zM615 700v-260h133c186 0 266 -83 266 -214c0 -149 -107 -226 -277 -226h-213v615h-287v-43c0 -484 -101 -574 -200 -574c-13 0 -28 1 -42 2v88c75 -11 151 37 151 498v114h469z" />
    <glyph glyph-name="afii10059" unicode="&#x40a;" horiz-adv-x="1047" 
d="M624 421h134c179 0 262 -73 262 -205c0 -149 -104 -216 -274 -216h-213v336h-368v-336h-91v700h91v-279h368v279h91v-279zM756 336h-132v-251h124c115 0 177 36 177 130c0 85 -56 121 -169 121z" />
    <glyph glyph-name="afii10060" unicode="&#x40b;" horiz-adv-x="732" 
d="M3 615v85h576v-85h-244v-236c35 29 86 57 155 57c121 0 206 -66 206 -230v-206h-91v192c0 94 -34 159 -132 159c-49 0 -107 -29 -138 -72v-279h-91v615h-241z" />
    <glyph glyph-name="afii10061" unicode="&#x40c;" horiz-adv-x="661" 
d="M74 0v700h91v-338l354 338h119l-330 -317l354 -383h-120l-302 323l-75 -72v-251h-91zM482 852l-200 -97l-31 56l193 115z" />
    <glyph glyph-name="afii10062" unicode="&#x40e;" horiz-adv-x="677" 
d="M174 28l45 67c8 -6 18 -11 32 -11c30 0 56 34 83 90l-339 526h109l277 -433l207 433h94l-262 -540c-49 -103 -96 -160 -172 -160c-35 0 -64 18 -74 28zM151 896h85c18 -41 53 -62 103 -62c48 0 89 20 100 62h86c-10 -79 -89 -136 -184 -136c-107 0 -173 58 -190 136z" />
    <glyph glyph-name="afii10145" unicode="&#x40f;" horiz-adv-x="723" 
d="M74 0v700h91v-615h392v615h91v-700h-244v-150h-87v150h-243z" />
    <glyph glyph-name="afii10017" unicode="&#x410;" horiz-adv-x="688" 
d="M1 0l307 702h72l307 -702h-95l-78 177h-343l-77 -177h-93zM342 575l-137 -318h275z" />
    <glyph glyph-name="afii10018" unicode="&#x411;" horiz-adv-x="660" 
d="M574 700v-85h-409v-201h208c167 0 253 -72 253 -200c0 -148 -106 -214 -280 -214h-272v700h500zM359 329h-194v-244h188c116 0 179 39 179 128c0 77 -55 116 -173 116z" />
    <glyph glyph-name="afii10019" unicode="&#x412;" horiz-adv-x="673" 
d="M74 0v700h283c190 0 247 -73 247 -174c0 -77 -37 -133 -99 -160c76 -16 124 -74 124 -166c0 -142 -110 -200 -277 -200h-278zM361 316h-196v-231h186c127 0 184 37 184 120c0 74 -53 111 -174 111zM349 615h-184v-216h199c89 0 147 40 147 108c0 72 -40 108 -162 108z
" />
    <glyph glyph-name="afii10020" unicode="&#x413;" horiz-adv-x="572" 
d="M74 0v700h498v-85h-407v-615h-91z" />
    <glyph glyph-name="afii10021" unicode="&#x414;" horiz-adv-x="738" 
d="M0 -128v213h74c29 46 93 201 93 530v85h473v-615h88v-213h-87v128h-554v-128h-87zM254 615v-65c0 -172 -38 -379 -82 -465h377v530h-295z" />
    <glyph glyph-name="afii10022" unicode="&#x415;" horiz-adv-x="637" 
d="M74 0v700h504v-85h-413v-218h385v-83h-385v-229h422v-85h-513z" />
    <glyph glyph-name="afii10024" unicode="&#x416;" horiz-adv-x="929" 
d="M308 381l-300 319h111l300 -315v315h91v-316l300 316h112l-303 -319l309 -381h-109l-269 331l-40 -39v-292h-91v293l-44 41l-268 -334h-105z" />
    <glyph glyph-name="afii10025" unicode="&#x417;" horiz-adv-x="646" 
d="M326 -10c-147 0 -260 58 -313 144l68 50c56 -70 131 -109 244 -109c109 0 186 54 186 131c0 66 -69 109 -179 109h-123v85h117c88 0 160 46 160 112c0 80 -84 113 -177 113c-103 0 -168 -49 -209 -102l-69 49c50 70 140 138 289 138c145 0 258 -70 258 -196
c0 -67 -46 -119 -108 -149c90 -22 133 -91 133 -159c0 -136 -123 -216 -277 -216z" />
    <glyph glyph-name="afii10026" unicode="&#x418;" horiz-adv-x="742" 
d="M151 0h-77v700h91v-542l424 542h78v-700h-91v542z" />
    <glyph glyph-name="afii10027" unicode="&#x419;" horiz-adv-x="742" 
d="M151 0h-77v700h91v-542l424 542h78v-700h-91v542zM184 896h85c18 -41 53 -62 103 -62c48 0 89 20 100 62h86c-10 -79 -89 -136 -184 -136c-107 0 -173 58 -190 136z" />
    <glyph glyph-name="afii10028" unicode="&#x41a;" horiz-adv-x="661" 
d="M74 0v700h91v-338l354 338h119l-330 -317l354 -383h-120l-302 323l-75 -72v-251h-91z" />
    <glyph glyph-name="afii10029" unicode="&#x41b;" horiz-adv-x="704" 
d="M539 0v615h-302v-43c0 -484 -101 -574 -200 -574c-13 0 -28 1 -42 2v88c75 -11 151 37 151 498v114h484v-700h-91z" />
    <glyph glyph-name="afii10030" unicode="&#x41c;" horiz-adv-x="837" 
d="M74 0v700h84l266 -352l257 352h82v-700h-91v543l-239 -322h-22l-246 322v-543h-91z" />
    <glyph glyph-name="afii10031" unicode="&#x41d;" horiz-adv-x="747" 
d="M582 0v313h-417v-313h-91v700h91v-302h417v302h91v-700h-91z" />
    <glyph glyph-name="afii10032" unicode="&#x41e;" horiz-adv-x="783" 
d="M36 350c0 203 156 359 356 359c197 0 355 -150 355 -359c0 -206 -158 -359 -355 -359c-198 0 -356 150 -356 359zM131 350c0 -159 119 -272 261 -272c147 0 260 113 260 272c0 160 -120 272 -260 272c-143 0 -261 -112 -261 -272z" />
    <glyph glyph-name="afii10033" unicode="&#x41f;" horiz-adv-x="743" 
d="M578 0v615h-413v-615h-91v700h595v-700h-91z" />
    <glyph glyph-name="afii10034" unicode="&#x420;" horiz-adv-x="663" 
d="M165 0h-91v700h272c234 0 287 -113 287 -220c0 -113 -74 -222 -288 -222h-180v-258zM350 615h-185v-273h178c137 0 196 56 196 139c0 78 -50 134 -189 134z" />
    <glyph glyph-name="afii10035" unicode="&#x421;" horiz-adv-x="688" 
d="M617 172l52 -58c-53 -74 -158 -123 -272 -123c-221 0 -361 141 -361 359c0 201 137 359 354 359c126 0 222 -53 269 -116l-59 -57c-54 54 -116 86 -208 86c-163 0 -261 -112 -261 -272c0 -164 109 -272 272 -272c97 0 166 40 214 94z" />
    <glyph glyph-name="afii10036" unicode="&#x422;" horiz-adv-x="583" 
d="M3 615v85h578v-85h-244v-615h-91v615h-243z" />
    <glyph glyph-name="afii10037" unicode="&#x423;" horiz-adv-x="677" 
d="M174 28l45 67c8 -6 18 -11 32 -11c30 0 56 34 83 90l-339 526h109l277 -433l207 433h94l-262 -540c-49 -103 -96 -160 -172 -160c-35 0 -64 18 -74 28z" />
    <glyph glyph-name="afii10038" unicode="&#x424;" horiz-adv-x="855" 
d="M382 -15v85h-5c-217 0 -349 113 -349 290c0 189 145 290 354 290v65h91v-65c192 0 354 -94 354 -290c0 -176 -133 -290 -349 -290h-5v-85h-91zM475 566h-2v-412h5c159 0 255 73 255 206c0 128 -85 206 -258 206zM122 360c0 -123 90 -206 256 -206h4v412
c-149 0 -260 -64 -260 -206z" />
    <glyph glyph-name="afii10039" unicode="&#x425;" horiz-adv-x="660" 
d="M639 700l-253 -344l261 -356h-109l-208 283l-208 -283h-109l262 356l-251 344h108l199 -271l198 271h110z" />
    <glyph glyph-name="afii10040" unicode="&#x426;" horiz-adv-x="745" 
d="M74 0v700h91v-615h390v615h91v-615h89v-213h-87v128h-574z" />
    <glyph glyph-name="afii10041" unicode="&#x427;" horiz-adv-x="685" 
d="M611 700v-700h-91v298c-40 -25 -124 -50 -201 -50c-149 0 -273 66 -273 230v222h91v-178c0 -134 72 -189 198 -189c65 0 134 24 185 53v314h91z" />
    <glyph glyph-name="afii10042" unicode="&#x428;" horiz-adv-x="941" 
d="M74 0v700h91v-615h260v615h91v-615h260v615h91v-700h-793z" />
    <glyph glyph-name="afii10043" unicode="&#x429;" horiz-adv-x="965" 
d="M74 0v700h91v-615h260v615h91v-615h260v615h91v-615h88v-213h-87v128h-794z" />
    <glyph glyph-name="afii10044" unicode="&#x42a;" horiz-adv-x="748" 
d="M0 615v85h258v-260h181c189 0 283 -77 283 -214c0 -152 -109 -226 -293 -226h-262v615h-167zM437 355h-179v-270h175c124 0 194 42 194 141c0 86 -69 129 -190 129z" />
    <glyph glyph-name="afii10045" unicode="&#x42b;" horiz-adv-x="852" 
d="M687 0v700h91v-700h-91zM316 355h-151v-270h148c124 0 193 42 193 141c0 86 -68 129 -190 129zM165 700v-260h154c189 0 282 -83 282 -214c0 -149 -109 -226 -292 -226h-235v700h91z" />
    <glyph glyph-name="afii10046" unicode="&#x42c;" horiz-adv-x="656" 
d="M345 355h-180v-270h177c124 0 193 46 193 141c0 86 -68 129 -190 129zM165 700v-260h183c189 0 282 -78 282 -214c0 -149 -108 -226 -291 -226h-265v700h91z" />
    <glyph glyph-name="afii10047" unicode="&#x42d;" horiz-adv-x="696" 
d="M201 315v85h364c-16 136 -112 224 -264 224c-77 0 -170 -39 -224 -107l-61 58c66 88 183 134 291 134c218 0 352 -138 352 -356c0 -208 -131 -362 -360 -362c-100 0 -216 37 -285 134l62 52c49 -66 143 -101 228 -101c150 0 250 99 262 239h-365z" />
    <glyph glyph-name="afii10048" unicode="&#x42e;" horiz-adv-x="991" 
d="M74 0v700h91v-303h114c22 177 154 312 337 312c201 0 339 -150 339 -359c0 -206 -143 -359 -339 -359c-190 0 -320 134 -338 325h-113v-316h-91zM370 350c0 -159 105 -273 246 -273c149 0 244 114 244 273c0 160 -100 273 -244 273c-142 0 -246 -113 -246 -273z" />
    <glyph glyph-name="afii10049" unicode="&#x42f;" horiz-adv-x="676" 
d="M511 0v259h-188l-213 -259h-110l227 274c-112 22 -180 98 -180 206c0 121 88 220 276 220h279v-700h-91zM297 344h214v271h-197c-124 0 -172 -59 -172 -137c0 -71 57 -127 155 -134z" />
    <glyph glyph-name="afii10065" unicode="&#x430;" horiz-adv-x="534" 
d="M101 395l-43 63c48 45 131 74 208 74c139 0 213 -77 213 -211v-321h-84v77c-30 -44 -92 -84 -182 -84c-113 0 -189 63 -189 159c0 113 99 161 249 161c39 0 96 -7 122 -15c0 94 -30 155 -139 155c-59 0 -107 -22 -155 -58zM233 69c87 0 144 60 162 102v53
c-26 9 -69 15 -111 15c-105 0 -171 -21 -171 -84c0 -54 49 -86 120 -86z" />
    <glyph glyph-name="afii10066" unicode="&#x431;" horiz-adv-x="604" 
d="M505 743l15 -77c-87 -35 -200 -21 -275 -56c-88 -43 -120 -118 -130 -208l4 -1c46 72 122 102 209 102c144 0 244 -89 244 -247c0 -149 -107 -266 -264 -266c-166 0 -274 110 -274 312c0 189 38 312 175 381c93 47 204 30 296 60zM123 287v-7c0 -129 77 -210 184 -210
s176 79 176 181c0 104 -61 172 -173 172c-103 0 -168 -68 -187 -136z" />
    <glyph glyph-name="afii10067" unicode="&#x432;" horiz-adv-x="540" 
d="M61 0v520h216c142 0 213 -35 213 -133c0 -52 -25 -87 -67 -113c57 -17 84 -63 84 -125c0 -98 -77 -149 -214 -149h-232zM294 227h-149v-149h139c88 0 134 22 134 75c0 52 -41 74 -124 74zM274 442h-129v-139h158c61 0 98 25 98 72c0 57 -53 67 -127 67z" />
    <glyph glyph-name="afii10068" unicode="&#x433;" horiz-adv-x="442" 
d="M61 0v520h379v-79h-295v-441h-84z" />
    <glyph glyph-name="afii10069" unicode="&#x434;" horiz-adv-x="604" 
d="M4 -126v206h58c54 83 73 199 73 392v48h382v-440h75v-206h-80v126h-428v-126h-80zM214 440v-36c0 -133 -25 -250 -62 -324h281v360h-219z" />
    <glyph glyph-name="afii10070" unicode="&#x435;" horiz-adv-x="569" 
d="M463 149l54 -50c-49 -73 -123 -108 -208 -108c-165 0 -277 105 -277 270c0 153 92 271 265 271c137 0 240 -92 240 -236c0 -17 -1 -40 -5 -63h-410c5 -105 84 -163 190 -163c63 0 120 34 151 79zM291 455c-97 0 -157 -61 -170 -146h327c-5 93 -64 146 -157 146z" />
    <glyph glyph-name="afii10072" unicode="&#x436;" horiz-adv-x="734" 
d="M226 280l-221 240h107l211 -227v227h84v-227l214 227h104l-223 -238l232 -282h-104l-189 231l-34 -32v-199h-84v198l-36 29l-185 -227h-102z" />
    <glyph glyph-name="afii10073" unicode="&#x437;" horiz-adv-x="514" 
d="M249 -10c-120 0 -190 47 -235 119l66 46c29 -51 90 -87 170 -87s142 33 142 90c0 46 -37 69 -104 69h-122v76h116c48 0 91 28 91 75c0 52 -56 77 -127 77c-81 0 -124 -36 -154 -73l-62 41c30 52 105 110 224 110c133 0 208 -56 208 -142c0 -47 -20 -86 -62 -112
c63 -30 81 -67 81 -119c0 -109 -101 -170 -232 -170z" />
    <glyph glyph-name="afii10074" unicode="&#x438;" 
d="M138 0h-77v520h84v-390l316 390h78v-520h-84v389z" />
    <glyph glyph-name="afii10075" unicode="&#x439;" 
d="M138 0h-77v520h84v-390l316 390h78v-520h-84v389zM141 744h79c1 -48 32 -82 89 -82c55 0 86 34 86 82h79c-2 -92 -74 -149 -165 -149c-98 0 -167 55 -168 149z" />
    <glyph glyph-name="afii10076" unicode="&#x43a;" horiz-adv-x="526" 
d="M61 0v520h84v-233l263 233h113l-269 -239l282 -281h-112l-234 229l-43 -40v-189h-84z" />
    <glyph glyph-name="afii10077" unicode="&#x43b;" horiz-adv-x="574" 
d="M429 0v440h-220v-24c0 -346 -84 -431 -207 -416v80c67 0 123 29 123 333v107h388v-520h-84z" />
    <glyph glyph-name="afii10078" unicode="&#x43c;" horiz-adv-x="650" 
d="M61 0v520h77l192 -254l187 254h72v-520h-84v372l-176 -240l-184 240v-372h-84z" />
    <glyph glyph-name="afii10079" unicode="&#x43d;" horiz-adv-x="590" 
d="M445 0v225h-300v-225h-84v520h84v-216h300v216h84v-520h-84z" />
    <glyph glyph-name="afii10080" unicode="&#x43e;" horiz-adv-x="616" 
d="M32 261c0 158 112 271 275 271c164 0 277 -113 277 -271c0 -157 -113 -270 -277 -270c-161 0 -275 113 -275 270zM121 261c0 -111 77 -191 186 -191c111 0 188 77 188 191c0 115 -81 192 -188 192s-186 -76 -186 -192z" />
    <glyph glyph-name="afii10081" unicode="&#x43f;" horiz-adv-x="584" 
d="M439 0v441h-294v-441h-84v520h462v-520h-84z" />
    <glyph glyph-name="afii10082" unicode="&#x440;" horiz-adv-x="594" 
d="M61 -200v720h84v-65c38 56 106 77 168 77c154 0 249 -109 249 -263c0 -159 -105 -278 -259 -278c-66 0 -120 15 -158 53v-244h-84zM304 453c-82 0 -138 -55 -159 -108v-194c32 -57 90 -81 151 -81c103 0 177 80 177 193c0 116 -64 190 -169 190z" />
    <glyph glyph-name="afii10083" unicode="&#x441;" horiz-adv-x="532" 
d="M464 150l60 -43c-40 -76 -131 -116 -214 -116c-165 0 -278 105 -278 270c0 153 109 271 273 271c93 0 176 -42 211 -106l-65 -44c-36 49 -80 71 -144 71c-107 0 -186 -80 -186 -192c0 -114 79 -191 197 -191c63 0 114 32 146 80z" />
    <glyph glyph-name="afii10084" unicode="&#x442;" horiz-adv-x="486" 
d="M1 441v79h484v-79h-201v-441h-84v441h-199z" />
    <glyph glyph-name="afii10085" unicode="&#x443;" horiz-adv-x="521" 
d="M73 -198l33 73c7 -3 14 -5 22 -5c38 0 65 26 101 110l16 39l-252 501h99l195 -395l147 395h92l-198 -512c-71 -175 -125 -218 -197 -218c-22 0 -41 4 -58 12z" />
    <glyph glyph-name="afii10086" unicode="&#x444;" horiz-adv-x="715" 
d="M315 -200v190h-6c-177 0 -279 114 -279 269c0 142 101 270 278 270h7v201h84v-201h8c170 0 278 -116 278 -270c0 -155 -102 -269 -280 -269h-6v-190h-84zM119 259c0 -114 65 -189 190 -189h6v379h-7c-125 0 -189 -81 -189 -190zM405 449h-6v-379h6c128 0 191 74 191 189
c0 106 -65 190 -191 190z" />
    <glyph glyph-name="afii10087" unicode="&#x445;" horiz-adv-x="535" 
d="M522 520l-199 -251l209 -269h-105l-161 209l-163 -209h-100l208 268l-197 252h105l150 -191l151 191h102z" />
    <glyph glyph-name="afii10088" unicode="&#x446;" horiz-adv-x="605" 
d="M61 0v520h84v-440h291v440h84v-440h73v-206h-79v126h-453z" />
    <glyph glyph-name="afii10089" unicode="&#x447;" horiz-adv-x="543" 
d="M482 520v-520h-84v219c-36 -36 -81 -57 -159 -57c-133 0 -205 67 -205 207v151h84v-128c0 -107 45 -150 136 -150c63 0 119 35 144 71v207h84z" />
    <glyph glyph-name="afii10090" unicode="&#x448;" horiz-adv-x="748" 
d="M61 0v520h84v-440h187v440h84v-440h187v440h84v-520h-626z" />
    <glyph glyph-name="afii10091" unicode="&#x449;" horiz-adv-x="772" 
d="M61 0v520h84v-440h187v440h84v-440h187v440h84v-440h73v-206h-78v126h-621z" />
    <glyph glyph-name="afii10092" unicode="&#x44a;" horiz-adv-x="592" 
d="M2 440v80h220v-161h132c164 0 213 -83 213 -179c0 -94 -54 -180 -219 -180h-210v440h-136zM345 279h-123v-199h122c99 0 135 36 135 99s-38 100 -134 100z" />
    <glyph glyph-name="afii10093" unicode="&#x44b;" horiz-adv-x="690" 
d="M61 0v520h84v-162h112c164 0 214 -82 214 -178c0 -94 -56 -180 -222 -180h-188zM248 278h-103v-198h102c100 0 135 36 135 99s-37 99 -134 99zM545 0v520h85v-520h-85z" />
    <glyph glyph-name="afii10094" unicode="&#x44c;" horiz-adv-x="516" 
d="M61 0v520h84v-162h134c164 0 213 -82 213 -178c0 -94 -55 -180 -221 -180h-210zM268 278h-123v-198h123c99 0 135 36 135 99s-38 99 -135 99z" />
    <glyph glyph-name="afii10095" unicode="&#x44d;" horiz-adv-x="543" 
d="M162 228v76h258c-14 101 -83 149 -180 149c-64 0 -129 -25 -168 -83l-64 45c52 73 134 117 234 117c165 0 269 -104 269 -271c0 -154 -98 -270 -269 -270c-98 0 -186 32 -233 108l63 47c35 -50 89 -76 163 -76c108 0 178 67 187 158h-260z" />
    <glyph glyph-name="afii10096" unicode="&#x44e;" horiz-adv-x="811" 
d="M61 0v520h84v-213h104c20 133 121 225 263 225c158 0 267 -113 267 -271c0 -157 -110 -270 -267 -270c-147 0 -249 96 -264 236h-103v-227h-84zM335 261c0 -114 77 -188 178 -188c103 0 177 74 177 188c0 113 -73 189 -177 189c-99 0 -178 -76 -178 -189z" />
    <glyph glyph-name="afii10097" unicode="&#x44f;" horiz-adv-x="538" 
d="M268 520h209v-520h-84v184h-127l-154 -184h-102l166 197c-79 14 -133 75 -133 156c0 89 58 167 225 167zM132 351c0 -50 46 -87 124 -87h137v176h-135c-91 0 -126 -37 -126 -89z" />
    <glyph glyph-name="afii10071" unicode="&#x451;" horiz-adv-x="569" 
d="M463 149l54 -50c-49 -73 -123 -108 -208 -108c-165 0 -277 105 -277 270c0 153 92 271 265 271c137 0 240 -92 240 -236c0 -17 -1 -40 -5 -63h-410c5 -105 84 -163 190 -163c63 0 120 34 151 79zM291 455c-97 0 -157 -61 -170 -146h327c-5 93 -64 146 -157 146zM129 682
c0 28 24 47 50 47c25 0 51 -19 51 -47c0 -30 -26 -49 -51 -49c-26 0 -50 19 -50 49zM358 682c0 28 25 47 53 47c25 0 51 -19 51 -47c0 -30 -26 -49 -51 -49c-28 0 -53 19 -53 49z" />
    <glyph glyph-name="afii10099" unicode="&#x452;" horiz-adv-x="649" 
d="M0 520v78h136v132h85v-132h221v-78h-221v-182c44 50 106 75 171 75c140 0 221 -75 221 -239s-70 -295 -227 -379l-47 62c134 72 187 171 187 302c0 99 -35 174 -152 174c-62 0 -131 -50 -153 -102v-231h-85v520h-136z" />
    <glyph glyph-name="afii10100" unicode="&#x453;" horiz-adv-x="442" 
d="M61 0v520h379v-79h-295v-441h-84zM385 759l-122 -151l-56 39l114 160z" />
    <glyph glyph-name="afii10101" unicode="&#x454;" horiz-adv-x="542" 
d="M369 304v-76h-248c12 -106 91 -158 191 -158c63 0 112 26 143 71l65 -38c-45 -76 -127 -112 -217 -112c-160 0 -271 111 -271 270c0 167 113 271 278 271c80 0 163 -29 208 -99l-63 -46c-33 45 -84 66 -146 66c-96 0 -171 -50 -186 -149h246z" />
    <glyph glyph-name="afii10102" unicode="&#x455;" horiz-adv-x="497" 
d="M380 142c0 123 -331 49 -331 241c0 93 89 149 216 149c91 0 159 -39 194 -90l-59 -55c-28 38 -82 66 -150 66c-53 0 -112 -20 -112 -66c0 -109 330 -41 330 -244c0 -105 -88 -152 -208 -152c-107 0 -198 49 -235 123l67 47c31 -55 102 -91 182 -91c60 0 106 18 106 72z
" />
    <glyph glyph-name="afii10103" unicode="&#x456;" horiz-adv-x="228" 
d="M72 0v520h84v-520h-84zM61 689c0 28 24 49 54 49c28 0 52 -21 52 -49c0 -30 -24 -52 -52 -52c-31 0 -54 22 -54 52z" />
    <glyph glyph-name="afii10104" unicode="&#x457;" horiz-adv-x="257" 
d="M86 0v520h84v-520h-84zM4 680c0 28 21 49 48 49c22 0 46 -19 46 -49c0 -33 -24 -51 -46 -51c-27 0 -48 21 -48 51zM161 680c0 30 22 49 47 49c24 0 46 -18 46 -49c0 -32 -22 -51 -46 -51c-25 0 -47 21 -47 51z" />
    <glyph glyph-name="afii10105" unicode="&#x458;" horiz-adv-x="229" 
d="M159 520v-548c0 -105 -51 -181 -162 -181c-65 0 -121 28 -147 82l72 40c9 -18 28 -42 71 -42c53 0 82 33 82 111v538h84zM63 690c0 28 23 48 54 48c29 0 51 -20 51 -48c0 -31 -21 -52 -51 -52c-31 0 -54 21 -54 52z" />
    <glyph glyph-name="afii10106" unicode="&#x459;" horiz-adv-x="828" 
d="M429 440h-220v-24c0 -346 -84 -431 -207 -416v80c67 0 123 29 123 333v107h388v-166h76c164 0 213 -80 213 -176c0 -93 -55 -178 -219 -178h-154v440zM581 274h-68v-194h70c99 0 130 37 130 97c0 63 -36 97 -132 97z" />
    <glyph glyph-name="afii10107" unicode="&#x45a;" horiz-adv-x="843" 
d="M61 0v520h84v-197h299v197h84v-197h76c165 0 213 -64 213 -160c0 -95 -56 -163 -221 -163h-152v243h-299v-243h-84zM595 244h-67v-164h66c100 0 134 28 134 82c0 59 -36 82 -133 82z" />
    <glyph glyph-name="afii10108" unicode="&#x45b;" horiz-adv-x="648" 
d="M0 520v78h137v132h84v-132h221v-78h-221v-183c43 52 106 72 173 72c138 0 216 -71 216 -236v-173h-84v164c0 108 -41 165 -152 165c-62 0 -127 -37 -153 -101v-228h-84v520h-137z" />
    <glyph glyph-name="afii10109" unicode="&#x45c;" horiz-adv-x="526" 
d="M61 0v520h84v-233l263 233h113l-269 -239l282 -281h-112l-234 229l-43 -40v-189h-84zM395 759l-122 -151l-56 39l114 160z" />
    <glyph glyph-name="afii10110" unicode="&#x45e;" horiz-adv-x="521" 
d="M73 -198l33 73c7 -3 14 -5 22 -5c38 0 65 26 101 110l16 39l-252 501h99l195 -395l147 395h92l-198 -512c-71 -175 -125 -218 -197 -218c-22 0 -41 4 -58 12zM103 744h79c1 -48 32 -82 89 -82c55 0 86 34 86 82h79c-2 -92 -74 -149 -165 -149c-98 0 -167 55 -168 149z
" />
    <glyph glyph-name="afii10193" unicode="&#x45f;" horiz-adv-x="581" 
d="M61 0v520h84v-440h291v440h84v-520h-190v-146h-79v146h-190z" />
    <glyph glyph-name="afii10146" unicode="&#x462;" horiz-adv-x="718" 
d="M1 517l-1 85h136v98h91v-98h237v-85h-237v-92h182c190 0 282 -70 282 -206c0 -150 -108 -219 -291 -219h-264v517h-135zM407 340h-180v-255h177c124 0 192 38 192 134c0 85 -67 121 -189 121z" />
    <glyph glyph-name="afii10194" unicode="&#x463;" horiz-adv-x="578" 
d="M388 445h-181v-102h133c164 0 213 -78 213 -170c0 -91 -55 -173 -221 -173h-209v445h-121v75h121v210h84v-210h181v-75zM329 262h-122v-182h122c100 0 135 33 135 92c0 60 -38 90 -135 90z" />
    <glyph glyph-name="afii10147" unicode="&#x472;" horiz-adv-x="783" 
d="M36 350c0 203 156 359 356 359c197 0 355 -150 355 -359c0 -206 -158 -359 -355 -359c-198 0 -356 150 -356 359zM392 78c134 0 240 94 257 232h-516c18 -138 129 -232 259 -232zM392 622c-129 0 -238 -92 -258 -227h514c-20 135 -130 227 -256 227z" />
    <glyph glyph-name="afii10195" unicode="&#x473;" horiz-adv-x="616" 
d="M32 261c0 158 112 271 275 271c164 0 277 -113 277 -271c0 -157 -113 -270 -277 -270c-161 0 -275 113 -275 270zM307 70c99 0 171 62 185 157h-369c14 -93 86 -157 184 -157zM307 453c-94 0 -166 -59 -183 -151h367c-17 92 -90 151 -184 151z" />
    <glyph glyph-name="afii10148" unicode="&#x474;" horiz-adv-x="769" 
d="M641 531l-243 -531h-66l-336 700h98l273 -572l200 447c43 95 94 132 152 132c26 0 50 -8 74 -25l-38 -71c-8 8 -17 11 -31 11c-30 0 -54 -28 -83 -91z" />
    <glyph glyph-name="afii10196" unicode="&#x475;" horiz-adv-x="566" 
d="M450 353l-158 -353h-62l-243 520h97l179 -389l122 275c35 80 78 119 132 118c30 -1 54 -10 76 -32l-40 -63c-8 9 -19 12 -30 12c-21 0 -46 -27 -73 -88z" />
    <glyph glyph-name="afii10050" unicode="&#x490;" horiz-adv-x="572" 
d="M74 0v700h412v126h86v-211h-407v-615h-91z" />
    <glyph glyph-name="afii10098" unicode="&#x491;" horiz-adv-x="442" 
d="M61 0v520h299v105h80v-185h-295v-440h-84z" />
    <glyph glyph-name="uni1E9E" unicode="&#x1e9e;" horiz-adv-x="656" 
d="M335 708c140 0 212 -68 241 -146l-151 -173c147 -13 188 -100 188 -190c-1 -129 -88 -209 -233 -209c-54 0 -94 12 -121 26l29 81c25 -12 54 -20 93 -20c80 0 140 40 140 122c0 70 -47 116 -164 116h-38v69l151 175c-22 33 -69 64 -138 64c-92 0 -168 -42 -168 -182v-441
h-91v459c0 191 126 249 262 249z" />
    <glyph glyph-name="uni2010" unicode="&#x2010;" horiz-adv-x="409" 
d="M76 237v77h256v-77h-256z" />
    <glyph glyph-name="uni2011" unicode="&#x2011;" horiz-adv-x="409" 
d="M76 237v77h256v-77h-256z" />
    <glyph glyph-name="figuredash" unicode="&#x2012;" 
d="M89 321v74h421v-74h-421z" />
    <glyph glyph-name="endash" unicode="&#x2013;" 
d="M89 237v74h421v-74h-421z" />
    <glyph glyph-name="emdash" unicode="&#x2014;" horiz-adv-x="795" 
d="M89 237v74h618v-74h-618z" />
    <glyph glyph-name="quoteleft" unicode="&#x2018;" horiz-adv-x="243" 
d="M170 540l-71 -44c-19 21 -38 53 -38 87c0 76 47 122 94 149l38 -35c-31 -22 -48 -57 -48 -93c0 -28 13 -49 25 -64z" />
    <glyph glyph-name="quoteright" unicode="&#x2019;" horiz-adv-x="243" 
d="M73 688l71 45c19 -21 37 -53 37 -87c0 -76 -46 -122 -94 -150l-37 35c31 23 47 57 47 94c0 28 -12 49 -24 63z" />
    <glyph glyph-name="quotesinglbase" unicode="&#x201a;" horiz-adv-x="243" 
d="M73 56l71 44c19 -21 37 -52 37 -87c0 -76 -46 -122 -94 -149l-37 35c31 22 47 57 47 94c0 27 -12 49 -24 63z" />
    <glyph glyph-name="quotedblleft" unicode="&#x201c;" horiz-adv-x="399" 
d="M170 540l-71 -44c-19 21 -38 53 -38 87c0 76 47 122 94 149l38 -35c-31 -22 -48 -57 -48 -93c0 -28 13 -49 25 -64zM326 540l-71 -44c-19 21 -38 53 -38 87c0 76 47 122 94 149l38 -35c-31 -22 -48 -57 -48 -93c0 -28 13 -49 25 -64z" />
    <glyph glyph-name="quotedblright" unicode="&#x201d;" horiz-adv-x="399" 
d="M229 688l71 45c19 -21 37 -53 37 -87c0 -76 -46 -122 -94 -150l-37 35c31 23 47 57 47 94c0 28 -12 49 -24 63zM73 688l71 45c19 -21 37 -53 37 -87c0 -76 -46 -122 -94 -150l-37 35c31 23 47 57 47 94c0 28 -12 49 -24 63z" />
    <glyph glyph-name="quotedblbase" unicode="&#x201e;" horiz-adv-x="399" 
d="M229 56l71 44c19 -21 37 -52 37 -87c0 -76 -46 -122 -94 -149l-37 35c31 22 47 57 47 94c0 27 -12 49 -24 63zM73 56l71 44c19 -21 37 -52 37 -87c0 -76 -46 -122 -94 -149l-37 35c31 22 47 57 47 94c0 27 -12 49 -24 63z" />
    <glyph glyph-name="dagger" unicode="&#x2020;" horiz-adv-x="441" 
d="M33 396v82h145v222h86v-222h145v-82h-145v-492h-86v492h-145z" />
    <glyph glyph-name="daggerdbl" unicode="&#x2021;" horiz-adv-x="446" 
d="M36 403v78h145v219h83v-219h145v-78h-145v-173h145v-78h-145v-248h-83v248h-145v78h145v173h-145z" />
    <glyph glyph-name="bullet" unicode="&#x2022;" horiz-adv-x="281" 
d="M44 361c0 39 33 70 74 70c39 0 72 -31 72 -70c0 -38 -33 -70 -72 -70c-41 0 -74 32 -74 70z" />
    <glyph glyph-name="ellipsis" unicode="&#x2026;" horiz-adv-x="815" 
d="M639 50c0 24 22 50 56 50c30 0 53 -26 53 -50c0 -27 -23 -52 -53 -52c-34 0 -56 25 -56 52zM353 50c0 24 22 50 56 50c30 0 53 -26 53 -50c0 -27 -23 -52 -53 -52c-34 0 -56 25 -56 52zM67 50c0 24 22 50 56 50c30 0 53 -26 53 -50c0 -27 -23 -52 -53 -52
c-34 0 -56 25 -56 52z" />
    <glyph glyph-name="perthousand" unicode="&#x2030;" horiz-adv-x="1300" 
d="M43 532c0 101 79 171 183 171c103 0 182 -70 182 -171c0 -100 -79 -170 -182 -170c-104 0 -183 70 -183 170zM127 532c0 -60 48 -99 99 -99c53 0 98 39 98 99s-46 99 -98 99c-53 0 -99 -39 -99 -99zM154 24l518 693l58 -42l-517 -692zM472 167c0 101 79 170 183 170
c103 0 182 -69 182 -170c0 -100 -79 -171 -182 -171c-104 0 -183 71 -183 171zM556 167c0 -60 48 -99 99 -99c53 0 98 39 98 99s-46 99 -98 99c-53 0 -99 -39 -99 -99zM892 167c0 101 79 170 182 170c104 0 183 -69 183 -170c0 -100 -79 -171 -183 -171
c-103 0 -182 71 -182 171zM976 167c0 -60 47 -99 98 -99c54 0 99 39 99 99s-46 99 -99 99c-52 0 -98 -39 -98 -99z" />
    <glyph glyph-name="guilsinglleft" unicode="&#x2039;" horiz-adv-x="337" 
d="M226 38l-182 214v6l183 210l57 -51l-140 -163l140 -163z" />
    <glyph glyph-name="guilsinglright" unicode="&#x203a;" horiz-adv-x="337" 
d="M285 252l-182 -214l-59 53l141 163l-141 163l57 51l184 -210v-6z" />
    <glyph glyph-name="fraction" unicode="&#x2044;" horiz-adv-x="308" 
d="M-150 38l548 674l60 -48l-546 -677z" />
    <glyph glyph-name="uni2070" unicode="&#x2070;" horiz-adv-x="481" 
d="M46 510c0 124 74 215 194 215c121 0 195 -91 195 -215s-72 -215 -194 -215c-120 0 -195 91 -195 215zM125 510c0 -87 50 -142 116 -142c68 0 115 48 115 142c0 92 -46 142 -116 142c-69 0 -115 -50 -115 -142z" />
    <glyph glyph-name="uni2074" unicode="&#x2074;" horiz-adv-x="457" 
d="M278 300v87h-265v55l271 278h69v-264h84v-69h-84v-87h-75zM110 456h168v167z" />
    <glyph glyph-name="uni2075" unicode="&#x2075;" horiz-adv-x="414" 
d="M64 485l26 235h273v-71h-210l-15 -87c15 4 38 7 64 7c104 0 169 -56 169 -135c0 -85 -78 -139 -169 -139c-70 0 -134 23 -169 78l55 46c19 -30 62 -53 108 -53c61 0 96 27 96 67c0 45 -46 70 -114 70c-43 0 -83 -9 -114 -18z" />
    <glyph glyph-name="uni2076" unicode="&#x2076;" horiz-adv-x="463" 
d="M46 499c0 151 93 226 211 226c70 0 112 -18 139 -41l-32 -56c-28 17 -62 28 -109 28c-72 0 -132 -45 -132 -127c31 31 73 52 133 52c113 0 171 -58 171 -141c0 -87 -84 -145 -180 -145c-118 0 -201 72 -201 204zM133 457c5 -47 43 -91 113 -91c56 0 102 25 102 74
c0 51 -44 74 -106 74c-60 0 -97 -29 -109 -57z" />
    <glyph glyph-name="uni2077" unicode="&#x2077;" horiz-adv-x="377" 
d="M20 647v73h337v-56l-209 -364h-87l203 347h-244z" />
    <glyph glyph-name="uni2078" unicode="&#x2078;" horiz-adv-x="471" 
d="M226 547h20c40 0 80 20 80 57c0 39 -35 52 -92 52c-55 0 -89 -15 -89 -52s38 -57 81 -57zM245 484h-17c-54 0 -99 -23 -99 -62c0 -36 41 -58 106 -58c66 0 107 17 107 58c0 42 -45 62 -97 62zM236 295c-104 0 -186 44 -186 118c0 50 35 89 80 104c-47 20 -64 55 -64 94
c0 69 71 114 169 114c99 0 170 -45 170 -114c0 -42 -25 -72 -65 -91c58 -15 81 -54 81 -104c0 -77 -83 -121 -185 -121z" />
    <glyph glyph-name="uni2079" unicode="&#x2079;" horiz-adv-x="463" 
d="M417 521c0 -151 -93 -226 -211 -226c-70 0 -112 18 -139 41l32 56c28 -17 62 -28 109 -28c72 0 132 45 132 127c-31 -31 -73 -52 -133 -52c-113 0 -171 58 -171 141c0 87 84 145 180 145c118 0 201 -72 201 -204zM330 563c-5 47 -43 91 -113 91c-56 0 -102 -25 -102 -74
c0 -51 44 -74 106 -74c60 0 97 29 109 57z" />
    <glyph glyph-name="uni207A" unicode="&#x207a;" horiz-adv-x="435" 
d="M56 480v71h123v121h75v-121h124v-71h-124v-122h-75v122h-123z" />
    <glyph glyph-name="uni207B" unicode="&#x207b;" horiz-adv-x="417" 
d="M56 481v71h305v-71h-305z" />
    <glyph glyph-name="uni207C" unicode="&#x207c;" horiz-adv-x="411" 
d="M56 547v68h298v-68h-298zM56 417v68h298v-68h-298z" />
    <glyph glyph-name="uni207D" unicode="&#x207d;" horiz-adv-x="258" 
d="M242 239l-47 -45c-112 83 -149 192 -149 278s37 191 150 278l43 -48c-84 -66 -114 -148 -114 -230c0 -91 50 -174 117 -233z" />
    <glyph glyph-name="uni207E" unicode="&#x207e;" horiz-adv-x="259" 
d="M64 194l-46 48c86 66 116 148 116 230s-25 158 -115 232l45 46c112 -87 149 -185 149 -278c0 -86 -37 -195 -149 -278z" />
    <glyph glyph-name="uni2080" unicode="&#x2080;" horiz-adv-x="481" 
d="M46 110c0 124 74 215 194 215c121 0 195 -91 195 -215s-72 -215 -194 -215c-120 0 -195 91 -195 215zM125 110c0 -87 50 -142 116 -142c68 0 115 48 115 142c0 92 -46 142 -116 142c-69 0 -115 -50 -115 -142z" />
    <glyph glyph-name="uni2081" unicode="&#x2081;" horiz-adv-x="302" 
d="M10 253l162 70h58v-423h-78v337l-115 -49z" />
    <glyph glyph-name="uni2082" unicode="&#x2082;" horiz-adv-x="417" 
d="M97 185l-58 33c27 64 94 107 172 107c93 0 152 -47 152 -122c0 -85 -68 -149 -136 -192l-62 -40h216v-71h-340v62l99 64c76 50 144 103 144 162c0 44 -29 66 -77 66c-57 0 -90 -33 -110 -69z" />
    <glyph glyph-name="uni2083" unicode="&#x2083;" horiz-adv-x="426" 
d="M100 199l-55 39c31 52 92 87 174 87c93 0 152 -40 152 -105c0 -49 -25 -80 -67 -97c36 -9 79 -35 79 -102c0 -81 -78 -126 -171 -126c-71 0 -147 32 -179 98l60 38c17 -40 67 -65 119 -65c57 0 91 19 91 58c0 45 -42 57 -90 57h-55v64h44c55 0 90 22 90 59
c0 34 -27 50 -75 50c-57 0 -89 -17 -117 -55z" />
    <glyph glyph-name="uni2084" unicode="&#x2084;" horiz-adv-x="457" 
d="M278 -100v87h-265v55l271 278h69v-264h84v-69h-84v-87h-75zM110 56h168v167z" />
    <glyph glyph-name="uni2085" unicode="&#x2085;" horiz-adv-x="414" 
d="M64 85l26 235h273v-71h-210l-15 -87c15 4 38 7 64 7c104 0 169 -56 169 -135c0 -85 -78 -139 -169 -139c-70 0 -134 23 -169 78l55 46c19 -30 62 -53 108 -53c61 0 96 27 96 67c0 45 -46 70 -114 70c-43 0 -83 -9 -114 -18z" />
    <glyph glyph-name="uni2086" unicode="&#x2086;" horiz-adv-x="463" 
d="M46 99c0 151 93 226 211 226c70 0 112 -18 139 -41l-32 -56c-28 17 -62 28 -109 28c-72 0 -132 -45 -132 -127c31 31 73 52 133 52c113 0 171 -58 171 -141c0 -87 -84 -145 -180 -145c-118 0 -201 72 -201 204zM133 57c5 -47 43 -91 113 -91c56 0 102 25 102 74
c0 51 -44 74 -106 74c-60 0 -97 -29 -109 -57z" />
    <glyph glyph-name="uni2087" unicode="&#x2087;" horiz-adv-x="377" 
d="M20 247v73h337v-56l-209 -364h-87l203 347h-244z" />
    <glyph glyph-name="uni2088" unicode="&#x2088;" horiz-adv-x="471" 
d="M226 147h20c40 0 80 20 80 57c0 39 -35 52 -92 52c-55 0 -89 -15 -89 -52s38 -57 81 -57zM245 84h-17c-54 0 -99 -23 -99 -62c0 -36 41 -58 106 -58c66 0 107 17 107 58c0 42 -45 62 -97 62zM236 -105c-104 0 -186 44 -186 118c0 50 35 89 80 104c-47 20 -64 55 -64 94
c0 69 71 114 169 114c99 0 170 -45 170 -114c0 -42 -25 -72 -65 -91c58 -15 81 -54 81 -104c0 -77 -83 -121 -185 -121z" />
    <glyph glyph-name="uni2089" unicode="&#x2089;" horiz-adv-x="463" 
d="M417 121c0 -151 -93 -226 -211 -226c-70 0 -112 18 -139 41l32 56c28 -17 62 -28 109 -28c72 0 132 45 132 127c-31 -31 -73 -52 -133 -52c-113 0 -171 58 -171 141c0 87 84 145 180 145c118 0 201 -72 201 -204zM330 163c-5 47 -43 91 -113 91c-56 0 -102 -25 -102 -74
c0 -51 44 -74 106 -74c60 0 97 29 109 57z" />
    <glyph glyph-name="uni208A" unicode="&#x208a;" horiz-adv-x="435" 
d="M56 80v71h123v121h75v-121h124v-71h-124v-122h-75v122h-123z" />
    <glyph glyph-name="uni208B" unicode="&#x208b;" horiz-adv-x="417" 
d="M56 81v71h305v-71h-305z" />
    <glyph glyph-name="uni208C" unicode="&#x208c;" horiz-adv-x="411" 
d="M56 147v68h298v-68h-298zM56 17v68h298v-68h-298z" />
    <glyph glyph-name="uni208D" unicode="&#x208d;" horiz-adv-x="258" 
d="M242 -161l-47 -45c-112 83 -149 192 -149 278s37 191 150 278l43 -48c-84 -66 -114 -148 -114 -230c0 -91 50 -174 117 -233z" />
    <glyph glyph-name="uni208E" unicode="&#x208e;" horiz-adv-x="259" 
d="M64 -206l-46 48c86 66 116 148 116 230s-25 158 -115 232l45 46c112 -87 149 -185 149 -278c0 -86 -37 -195 -149 -278z" />
    <glyph glyph-name="Euro" unicode="&#x20ac;" horiz-adv-x="628" 
d="M19 399l30 75h72c42 137 159 235 323 235c60 0 116 -13 158 -39l-32 -70c-32 18 -75 30 -126 30c-107 0 -190 -61 -227 -156h321l-28 -75h-314c-2 -16 -3 -36 -3 -56c0 -11 0 -19 2 -31h291l-24 -75h-251c33 -102 126 -167 244 -167c39 0 86 10 114 28l21 -73
c-25 -19 -88 -34 -138 -34c-171 0 -295 91 -337 246h-94l28 75h54c-1 7 -2 19 -2 32c0 23 0 33 4 55h-86z" />
    <glyph glyph-name="uni20B4" unicode="&#x20b4;" 
d="M60 406v73h317c15 18 25 37 25 67c0 45 -38 78 -100 78c-65 0 -112 -17 -149 -50l-40 68c44 43 110 67 194 67c108 0 190 -62 190 -148c0 -34 -12 -63 -27 -82h71v-73h-119c-44 -41 -106 -68 -142 -92h261v-73h-320c-17 -20 -35 -42 -35 -73c0 -63 60 -92 129 -92
s129 27 163 69l42 -59c-40 -62 -130 -95 -212 -95c-115 0 -211 57 -211 166c0 37 13 62 29 84h-66v73h115c58 42 110 66 150 92h-265z" />
    <glyph glyph-name="uni20BD" unicode="&#x20bd;" horiz-adv-x="603" 
d="M24 301v81h107v318c18 0 68 0 99 1c31 0 63 1 82 1c194 0 257 -89 257 -197c0 -112 -77 -204 -257 -204h-93v-84h174v-81h-174v-136h-88v136h-107v81h107v84h-107zM317 621l-98 -1v-238h91c111 0 167 41 167 120c0 78 -49 119 -160 119z" />
    <glyph glyph-name="afii61352" unicode="&#x2116;" horiz-adv-x="1152" 
d="M660 0h-70l-412 539v-539h-85v700h69l413 -543v543h85v-700zM726 489c0 102 75 171 178 171c105 0 179 -69 179 -171c0 -100 -74 -171 -179 -171c-103 0 -178 71 -178 171zM805 489c0 -60 47 -98 99 -98c56 0 100 38 100 98s-46 99 -100 99c-53 0 -99 -39 -99 -99z
M754 183v78h301v-78h-301z" />
    <glyph glyph-name="trademark" unicode="&#x2122;" horiz-adv-x="831" 
d="M375 367v333h70l128 -148l123 148h70v-333h-84v208l-110 -132h-2l-111 133v-209h-84zM12 625v75h323v-75h-113v-258h-83v258h-127z" />
    <glyph glyph-name="partialdiff" unicode="&#x2202;" horiz-adv-x="585" 
d="M29 230c0 182 122 290 266 290c78 0 138 -44 161 -99c-3 142 -93 221 -258 211l13 77c209 2 328 -90 328 -333c0 -214 -97 -385 -274 -385c-137 0 -236 98 -236 239zM120 232c0 -111 75 -161 147 -161c101 0 168 101 177 221c-16 74 -65 148 -151 148
c-96 0 -173 -88 -173 -208z" />
    <glyph glyph-name="product" unicode="&#x220f;" horiz-adv-x="879" 
d="M679 -200v815h-479v-815h-91v900h661v-900h-91z" />
    <glyph glyph-name="summation" unicode="&#x2211;" horiz-adv-x="631" 
d="M337 250l-297 388v62h551v-85h-424l277 -365l-283 -365h430v-85h-551v62z" />
    <glyph glyph-name="minus" unicode="&#x2212;" horiz-adv-x="576" 
d="M56 322v75h464v-75h-464z" />
    <glyph glyph-name="uni2215" unicode="&#x2215;" horiz-adv-x="308" 
d="M-150 38l548 674l60 -48l-546 -677z" />
    <glyph glyph-name="radical" unicode="&#x221a;" horiz-adv-x="596" 
d="M2 382v79h163l156 -317l121 556h281v-75h-213l-144 -631h-60l-198 388h-106z" />
    <glyph glyph-name="infinity" unicode="&#x221e;" horiz-adv-x="717" 
d="M525 187c-75 0 -124 43 -167 93c-32 -41 -69 -76 -124 -88c-93 -22 -193 45 -193 149c0 82 64 157 162 157c67 0 113 -44 154 -93c32 40 71 76 130 87c102 23 189 -42 189 -154c0 -72 -51 -151 -151 -151zM516 423c-49 0 -80 -35 -111 -78c35 -45 70 -84 116 -84
c49 0 73 42 73 77c0 46 -26 85 -78 85zM204 261c47 0 77 36 107 78c-34 45 -67 84 -106 84c-49 0 -82 -38 -82 -82c0 -52 46 -80 81 -80z" />
    <glyph glyph-name="integral" unicode="&#x222b;" horiz-adv-x="339" 
d="M98 544c0 147 90 194 174 194c55 0 103 -25 128 -61l-50 -52c-16 20 -39 33 -74 33c-54 0 -94 -30 -94 -121v-549c0 -148 -90 -194 -174 -194c-54 0 -103 24 -128 61l50 52c16 -20 39 -34 74 -34c54 0 94 30 94 122v549z" />
    <glyph glyph-name="approxequal" unicode="&#x2248;" horiz-adv-x="581" 
d="M83 391l-35 56c42 46 92 67 132 67c80 0 140 -65 221 -65c34 0 68 17 99 47l34 -55c-43 -42 -89 -63 -130 -63c-84 0 -143 64 -217 64c-36 0 -72 -21 -104 -51zM83 211l-35 57c42 45 92 67 132 67c80 0 147 -65 221 -65c34 0 68 16 99 47l34 -56
c-43 -41 -89 -62 -130 -62c-84 0 -143 63 -217 63c-36 0 -72 -21 -104 -51z" />
    <glyph glyph-name="notequal" unicode="&#x2260;" horiz-adv-x="576" 
d="M60 412v74h230l85 227l73 -24l-76 -203h144v-74h-171l-40 -105h211v-74h-237l-93 -248l-73 28l83 220h-136v74h162l39 105h-201z" />
    <glyph glyph-name="lessequal" unicode="&#x2264;" horiz-adv-x="538" 
d="M52 255v85l408 -254v-88zM460 180l-408 257v35l408 254v-92l-290 -179l290 -182v-93z" />
    <glyph glyph-name="greaterequal" unicode="&#x2265;" horiz-adv-x="538" 
d="M460 340v-85l-408 -257v88zM460 437l-408 -257v93l290 182l-290 179v92l408 -254v-35z" />
    <glyph glyph-name="lozenge" unicode="&#x25ca;" horiz-adv-x="473" 
d="M200 -5l-167 256l168 269h72l167 -258l-168 -267h-72zM121 252l115 -179l116 189l-116 177z" />
    <glyph glyph-name="uniF350" unicode="&#xf350;" horiz-adv-x="590" 
d="M0 0l261 561h68l261 -561h-92l-62 131h-285l-61 -131h-90zM293 436l-109 -230h219z" />
    <glyph glyph-name="uniF351" unicode="&#xf351;" horiz-adv-x="562" 
d="M491 560v-81h-342v-141h171c142 0 214 -60 214 -164c0 -121 -89 -174 -239 -174h-233v560h429zM305 256h-156v-175h151c94 0 143 28 143 92c0 56 -42 83 -138 83z" />
    <glyph glyph-name="uniF352" unicode="&#xf352;" horiz-adv-x="573" 
d="M62 0v560h245c160 0 209 -58 209 -140c0 -60 -30 -103 -80 -126c62 -15 101 -60 101 -132c0 -115 -94 -162 -235 -162h-240zM307 246h-158v-165h150c103 0 148 27 148 86c0 53 -42 79 -140 79zM297 479h-148v-153h160c72 0 117 28 117 75c0 51 -31 78 -129 78z" />
    <glyph glyph-name="uniF353" unicode="&#xf353;" horiz-adv-x="489" 
d="M62 0v560h427v-81h-340v-479h-87z" />
    <glyph glyph-name="uniF354" unicode="&#xf354;" horiz-adv-x="629" 
d="M0 -110v191h63c25 40 79 159 79 391v88h404v-479h75v-191h-84v110h-453v-110h-84zM227 479v-28c0 -155 -27 -301 -71 -370h303v398h-232z" />
    <glyph glyph-name="uniF355" unicode="&#xf355;" horiz-adv-x="536" 
d="M62 0v560h425v-81h-337v-154h314v-81h-314v-163h345v-81h-433z" />
    <glyph glyph-name="uniF356" unicode="&#xf356;" horiz-adv-x="796" 
d="M255 305l-250 255h106l243 -241v241h87v-242l243 242h107l-252 -255l256 -305h-104l-219 257l-31 -28v-229h-87v230l-33 28l-216 -258h-104z" />
    <glyph glyph-name="uniF357" unicode="&#xf357;" horiz-adv-x="550" 
d="M279 -11c-129 0 -221 45 -270 121l66 47c47 -55 109 -86 202 -86c97 0 151 42 151 96c0 48 -53 78 -147 78h-103v82h97c75 0 132 32 132 80c0 54 -63 82 -144 82c-86 0 -136 -36 -171 -78l-67 46c45 60 120 114 247 114c141 0 223 -60 223 -161c0 -52 -27 -97 -84 -118
c76 -11 105 -69 105 -124c0 -111 -99 -179 -237 -179z" />
    <glyph glyph-name="uniF358" unicode="&#xf358;" horiz-adv-x="632" 
d="M135 0h-73v560h87v-415l347 415h74v-560h-87v413z" />
    <glyph glyph-name="uniF359" unicode="&#xf359;" horiz-adv-x="632" 
d="M135 0h-73v560h87v-415l347 415h74v-560h-87v413zM152 755h79c1 -48 33 -82 89 -82c55 0 86 34 87 82h78c-2 -92 -74 -149 -165 -149c-98 0 -167 55 -168 149z" />
    <glyph glyph-name="uniF35A" unicode="&#xf35a;" horiz-adv-x="569" 
d="M62 0v560h87v-256l288 256h115l-277 -252l296 -308h-118l-250 255l-54 -48v-207h-87z" />
    <glyph glyph-name="uniF35B" unicode="&#xf35b;" horiz-adv-x="606" 
d="M457 0v479h-235v-81c0 -315 -107 -401 -189 -401c-11 0 -21 2 -33 3v84c56 -6 135 29 135 354v122h409v-560h-87z" />
    <glyph glyph-name="uniF35C" unicode="&#xf35c;" horiz-adv-x="714" 
d="M62 0v560h78l222 -268l213 268h77v-560h-87v415l-194 -245h-22l-200 244v-414h-87z" />
    <glyph glyph-name="uniF35D" unicode="&#xf35d;" horiz-adv-x="636" 
d="M487 0v243h-338v-243h-87v560h87v-235h338v235h87v-560h-87z" />
    <glyph glyph-name="uniF35E" unicode="&#xf35e;" horiz-adv-x="666" 
d="M30 280c0 162 133 287 303 287c168 0 303 -120 303 -287c0 -165 -135 -287 -303 -287s-303 120 -303 287zM121 280c0 -120 97 -203 212 -203c119 0 212 83 212 203c0 122 -99 203 -212 203c-115 0 -212 -81 -212 -203z" />
    <glyph glyph-name="uniF35F" unicode="&#xf35f;" horiz-adv-x="632" 
d="M484 0v478h-335v-478h-87v560h509v-560h-87z" />
    <glyph glyph-name="uniF360" unicode="&#xf360;" horiz-adv-x="557" 
d="M149 0h-87v560h220c199 0 245 -93 245 -181c0 -91 -63 -181 -246 -181h-132v-198zM286 479h-137v-200h130c110 0 157 40 157 101c0 57 -39 99 -150 99z" />
    <glyph glyph-name="uniF361" unicode="&#xf361;" horiz-adv-x="587" 
d="M521 151l51 -56c-47 -63 -137 -105 -235 -105c-188 0 -307 116 -307 290c0 161 118 290 302 290c108 0 191 -45 231 -99l-57 -54c-44 43 -98 69 -171 69c-132 0 -214 -84 -214 -206c0 -123 90 -206 222 -206c79 0 138 32 178 77z" />
    <glyph glyph-name="uniF362" unicode="&#xf362;" horiz-adv-x="503" 
d="M3 478v82h496v-82h-205v-478h-87v478h-204z" />
    <glyph glyph-name="uniF363" unicode="&#xf363;" horiz-adv-x="590" 
d="M164 15l37 72c5 -3 14 -6 24 -6c18 0 36 11 55 49l6 12l-286 418h106l225 -327l169 327h90l-221 -431c-42 -83 -83 -129 -146 -129c-24 0 -45 5 -59 15z" />
    <glyph glyph-name="uniF364" unicode="&#xf364;" horiz-adv-x="717" 
d="M314 -12v67h-4c-167 0 -287 91 -287 233c0 151 131 231 291 233v51h88l1 -51c147 0 291 -76 291 -233c0 -141 -122 -233 -288 -233h-4v-67h-88zM403 439h-1c0 -232 0 -302 1 -302h3c112 0 197 51 197 151c0 95 -74 151 -200 151zM113 288c0 -88 79 -151 198 -151h3
l-1 302c-106 0 -200 -46 -200 -151z" />
    <glyph glyph-name="uniF365" unicode="&#xf365;" horiz-adv-x="568" 
d="M552 560l-215 -275l222 -285h-105l-170 215l-170 -215h-105l223 285l-214 275h104l163 -205l162 205h105z" />
    <glyph glyph-name="uniF366" unicode="&#xf366;" horiz-adv-x="634" 
d="M62 0v560h87v-479h315v479h87v-479h74v-191h-84v110h-479z" />
    <glyph glyph-name="uniF367" unicode="&#xf367;" horiz-adv-x="586" 
d="M524 560v-560h-87v231c-35 -19 -99 -38 -163 -38c-128 0 -236 53 -236 186v181h87v-134c0 -109 50 -151 164 -151c54 0 114 20 148 40v245h87z" />
    <glyph glyph-name="uniF368" unicode="&#xf368;" horiz-adv-x="785" 
d="M62 0v560h87v-479h200v479h87v-479h200v479h87v-560h-661z" />
    <glyph glyph-name="uniF369" unicode="&#xf369;" horiz-adv-x="805" 
d="M62 0v560h87v-479h198v479h87v-479h202v479h87v-479h74v-191h-84v110h-651z" />
    <glyph glyph-name="uniF36A" unicode="&#xf36a;" horiz-adv-x="636" 
d="M0 479v81h228v-202h145c162 0 242 -61 242 -175c0 -124 -93 -183 -251 -183h-223v479h-141zM371 276h-143v-195h140c101 0 156 29 156 102c0 63 -54 93 -153 93z" />
    <glyph glyph-name="uniF36B" unicode="&#xf36b;" horiz-adv-x="729" 
d="M579 0v560h88v-560h-88zM269 276h-120v-195h118c101 0 155 29 155 102c0 63 -53 93 -153 93zM149 560v-202h123c162 0 241 -68 241 -175c0 -121 -93 -183 -249 -183h-202v560h87z" />
    <glyph glyph-name="uniF36C" unicode="&#xf36c;" horiz-adv-x="559" 
d="M294 276h-145v-195h143c100 0 155 34 155 102c0 63 -54 93 -153 93zM149 560v-202h147c163 0 242 -62 242 -175c0 -121 -93 -183 -249 -183h-227v560h87z" />
    <glyph glyph-name="uniF36D" unicode="&#xf36d;" horiz-adv-x="593" 
d="M171 245v81h301c-14 98 -92 163 -214 163c-64 0 -142 -30 -187 -85l-59 56c57 71 157 110 251 110c185 0 300 -113 300 -288c0 -166 -112 -292 -307 -292c-85 0 -186 31 -247 114l60 49c41 -53 120 -82 191 -82c121 0 202 73 213 174h-302z" />
    <glyph glyph-name="uniF36E" unicode="&#xf36e;" horiz-adv-x="845" 
d="M62 0v560h87v-237h88c20 139 133 244 288 244c173 0 290 -110 290 -287c0 -165 -123 -287 -290 -287c-160 0 -272 102 -289 254h-87v-247h-87zM324 280c0 -120 86 -203 201 -203c121 0 199 83 199 203c0 129 -82 203 -199 203c-116 0 -201 -81 -201 -203z" />
    <glyph glyph-name="uniF36F" unicode="&#xf36f;" horiz-adv-x="583" 
d="M434 0v201h-149l-176 -201h-105l190 216c-94 20 -150 79 -150 161c0 103 77 183 238 183h239v-560h-87zM262 282h172v197h-160c-99 0 -139 -41 -139 -101c0 -50 47 -91 127 -96z" />
    <glyph glyph-name="uniF371" unicode="&#xf371;" horiz-adv-x="536" 
d="M126 650c0 26 22 45 52 45c23 0 48 -19 48 -45c0 -28 -25 -45 -48 -45c-30 0 -52 17 -52 45zM329 650c0 26 23 45 50 45c26 0 49 -18 49 -45c0 -28 -23 -45 -49 -45c-27 0 -50 17 -50 45zM62 0v560h425v-81h-337v-154h314v-81h-314v-163h345v-81h-433z" />
    <glyph glyph-name="uniF372" unicode="&#xf372;" horiz-adv-x="634" 
d="M517 163c0 69 -37 109 -109 110c-47 0 -94 -23 -117 -57v-216h-87v479h-202v81h493v-81h-204v-168c24 23 73 43 134 43c96 0 179 -50 179 -180s-75 -181 -157 -181c-45 0 -80 18 -99 45l50 57c12 -13 23 -21 47 -21c43 0 72 30 72 89z" />
    <glyph glyph-name="uniF373" unicode="&#xf373;" horiz-adv-x="489" 
d="M62 0v560h427v-81h-340v-479h-87zM403 767l-121 -152l-56 39l113 161z" />
    <glyph glyph-name="uniF374" unicode="&#xf374;" horiz-adv-x="583" 
d="M409 326v-81h-291c14 -115 109 -171 224 -171c70 0 129 35 161 81l65 -37c-40 -86 -145 -125 -222 -125c-190 0 -316 113 -316 287c0 166 122 287 309 287c74 0 174 -29 219 -99l-64 -48c-32 43 -96 66 -160 66c-111 0 -195 -62 -214 -160h289z" />
    <glyph glyph-name="uniF375" unicode="&#xf375;" horiz-adv-x="520" 
d="M399 151c0 126 -360 53 -360 259c0 85 86 157 222 157c94 0 174 -29 220 -86l-57 -56c-36 34 -90 60 -169 60c-55 0 -125 -20 -125 -73c0 -123 360 -57 360 -255c0 -97 -88 -164 -217 -164c-107 0 -206 52 -247 110l55 63c41 -50 111 -91 203 -91c62 0 115 28 115 76z
" />
    <glyph glyph-name="uniF376" unicode="&#xf376;" horiz-adv-x="225" 
d="M69 0v560h87v-560h-87z" />
    <glyph glyph-name="uniF377" unicode="&#xf377;" horiz-adv-x="225" 
d="M-5 644c0 24 21 42 48 42c24 0 46 -18 46 -42c0 -26 -22 -44 -46 -44c-27 0 -48 18 -48 44zM134 644c0 24 21 42 48 42c25 0 46 -18 46 -42c0 -26 -21 -44 -46 -44c-27 0 -48 18 -48 44zM69 0v560h87v-560h-87z" />
    <glyph glyph-name="uniF378" unicode="&#xf378;" horiz-adv-x="413" 
d="M353 560v-388c0 -116 -71 -179 -177 -179c-97 0 -155 54 -180 103l65 49c22 -37 60 -71 108 -71c63 1 97 28 97 114v372h87z" />
    <glyph glyph-name="uniF379" unicode="&#xf379;" horiz-adv-x="889" 
d="M637 275h-107v-194h102c92 0 145 29 145 102c0 62 -47 92 -140 92zM530 560v-204h109c161 0 229 -66 229 -173c0 -121 -93 -183 -238 -183h-187v479h-221v-81c0 -315 -107 -401 -189 -401c-11 0 -21 2 -33 3v84c56 -6 135 29 135 354v122h395z" />
    <glyph glyph-name="uniF37A" unicode="&#xf37a;" horiz-adv-x="890" 
d="M535 342h108c154 0 225 -59 225 -167c0 -121 -89 -175 -234 -175h-186v260h-299v-260h-87v560h87v-218h299v218h87v-218zM641 260h-106v-179h101c92 0 143 23 143 94c0 62 -46 85 -138 85z" />
    <glyph glyph-name="uniF37B" unicode="&#xf37b;" horiz-adv-x="624" 
d="M2 479v81h493v-81h-204v-165c29 20 69 40 125 40c105 0 177 -54 177 -186v-168h-87v155c0 66 -27 117 -105 117c-40 0 -85 -20 -110 -51v-221h-87v479h-202z" />
    <glyph glyph-name="uniF37C" unicode="&#xf37c;" horiz-adv-x="569" 
d="M62 0v560h87v-256l288 256h115l-277 -252l296 -308h-118l-250 255l-54 -48v-207h-87zM402 767l-121 -152l-56 39l113 161z" />
    <glyph glyph-name="uniF37E" unicode="&#xf37e;" horiz-adv-x="590" 
d="M164 15l37 72c5 -3 14 -6 24 -6c18 0 36 11 55 49l6 12l-286 418h106l225 -327l169 327h90l-221 -431c-42 -83 -83 -129 -146 -129c-24 0 -45 5 -59 15zM143 755h79c1 -48 33 -82 89 -82c55 0 86 34 87 82h78c-2 -92 -74 -149 -165 -149c-98 0 -167 55 -168 149z" />
    <glyph glyph-name="uniF37F" unicode="&#xf37f;" horiz-adv-x="618" 
d="M62 0v560h87v-479h320v479h87v-560h-206v-117h-84v117h-204z" />
    <glyph glyph-name="uniF381" unicode="&#xf381;" horiz-adv-x="609" 
d="M1 406l-1 82h112v72h87v-72h199v-82h-199v-66h148c162 0 241 -53 241 -165c0 -122 -92 -175 -249 -175h-227v406h-111zM345 259h-146v-178h144c100 0 154 25 154 94c0 62 -53 84 -152 84z" />
    <glyph glyph-name="uniF389" unicode="&#xf389;" horiz-adv-x="666" 
d="M30 280c0 162 133 287 303 287c168 0 303 -120 303 -287c0 -165 -135 -287 -303 -287s-303 120 -303 287zM333 77c105 0 190 65 208 164h-417c19 -99 107 -164 209 -164zM333 483c-101 0 -188 -62 -208 -160h415c-20 98 -108 160 -207 160z" />
    <glyph glyph-name="uniF38A" unicode="&#xf38a;" horiz-adv-x="655" 
d="M546 416l-203 -416h-62l-285 560h94l224 -436l161 332c36 77 82 110 134 110c23 0 45 -7 66 -22l-35 -69c-7 6 -15 8 -26 8c-24 0 -44 -20 -68 -67z" />
    <glyph glyph-name="uniF393" unicode="&#xf393;" horiz-adv-x="490" 
d="M62 0v560h345v98h82v-180h-340v-478h-87z" />
    <glyph glyph-name="uniF3CF" unicode="&#xf3cf;" horiz-adv-x="976" 
d="M560 0h-67l-337 406v-406h-82v560h67l337 -408v408h82v-560zM612 389c0 83 63 140 153 140c91 0 154 -57 154 -140c0 -82 -63 -140 -154 -140c-90 0 -153 58 -153 140zM687 389c0 -43 37 -71 78 -71c44 0 78 28 78 71c0 42 -36 70 -78 70s-78 -28 -78 -70zM634 133v73
h263v-73h-263z" />
    <glyph glyph-name="uniF3D0" unicode="&#xf3d0;" horiz-adv-x="485" 
d="M152 755h79c1 -48 33 -82 89 -82c55 0 86 34 87 82h78c-2 -92 -74 -149 -165 -149c-98 0 -167 55 -168 149z" />
    <glyph glyph-name="uniF3E4" unicode="&#xf3e4;" horiz-adv-x="0" 
d="M-181 767l-121 -152l-56 39l113 161z" />
    <glyph glyph-name="uniF400" unicode="&#xf400;" horiz-adv-x="0" 
d="M-181 759l-122 -151l-56 39l114 160z" />
    <glyph glyph-name="uniF401" unicode="&#xf401;" horiz-adv-x="0" 
d="M-234 852l-200 -97l-31 56l193 115z" />
    <glyph glyph-name="uniF406" unicode="&#xf406;" horiz-adv-x="550" 
d="M190 867l41 43c22 -26 67 -63 143 -63c66 0 113 30 140 63l36 -41c-32 -53 -100 -98 -176 -98c-95 0 -155 52 -184 96z" />
    <glyph glyph-name="uniF407" unicode="&#xf407;" horiz-adv-x="515" 
d="M278 -169l29 48c22 -13 49 -22 77 -22c39 0 48 11 48 28c0 22 -19 29 -54 29h-19v86h53v-37c73 -3 103 -36 103 -82s-34 -85 -120 -85c-54 0 -92 15 -117 35z" />
    <glyph glyph-name="uniF408" unicode="&#xf408;" horiz-adv-x="496" 
d="M325 915l182 -107l-36 -53l-148 79l-147 -79l-31 53l176 107h4z" />
    <glyph glyph-name="uniF409" unicode="&#xf409;" horiz-adv-x="440" 
d="M330 -91l70 46c20 -17 40 -45 40 -79c0 -68 -47 -117 -81 -138l-40 33c22 21 39 49 39 81c0 26 -12 41 -28 57z" />
    <glyph glyph-name="uniF40A" unicode="&#xf40a;" horiz-adv-x="182" 
d="M73 688l71 45c23 -21 38 -56 38 -91c0 -68 -50 -118 -95 -146l-37 35c31 23 50 57 50 88c0 28 -15 55 -27 69z" />
    <glyph glyph-name="uniF40B" unicode="&#xf40b;" horiz-adv-x="429" 
d="M323 827c0 28 24 48 53 48s53 -20 53 -48c0 -31 -24 -52 -53 -52c-31 0 -53 21 -53 52z" />
    <glyph glyph-name="uniF40C" unicode="&#xf40c;" horiz-adv-x="501" 
d="M256 829c0 66 58 100 121 100c65 0 124 -32 124 -100c0 -64 -52 -104 -124 -104c-70 0 -121 38 -121 104zM321 829c0 -28 21 -49 57 -49c38 0 57 20 57 49c0 27 -23 45 -57 45c-36 0 -57 -19 -57 -45z" />
    <glyph glyph-name="uniF40D" unicode="&#xf40d;" horiz-adv-x="559" 
d="M226 791l-28 52c30 31 76 50 107 50c60 0 100 -43 154 -43c23 0 49 6 74 33l26 -51c-28 -39 -74 -56 -110 -56c-55 0 -100 42 -157 42c-21 0 -43 -8 -66 -27z" />
    <glyph glyph-name="uniF40E" unicode="&#xf40e;" horiz-adv-x="456" 
d="M446 -122l18 -57c-17 -12 -48 -21 -85 -21c-59 -1 -121 25 -121 92c0 80 92 128 198 130v-22c-55 1 -118 -39 -118 -84c0 -37 29 -48 56 -48c20 0 35 3 52 10z" />
    <glyph glyph-name="uniF410" unicode="&#xf410;" horiz-adv-x="0" 
d="M-304 755l-201 97l38 74l193 -115z" />
    <glyph glyph-name="uniF416" unicode="&#xf416;" horiz-adv-x="390" 
d="M280 -91l70 46c20 -17 40 -45 40 -79c0 -68 -47 -117 -81 -138l-40 33c22 21 39 49 39 81c0 26 -12 41 -28 57z" />
    <glyph glyph-name="uniF418" unicode="&#xf418;" horiz-adv-x="182" 
d="M73 528l71 45c23 -21 38 -56 38 -91c0 -68 -50 -118 -95 -146l-37 35c31 23 50 57 50 88c0 28 -15 55 -27 69z" />
    <glyph glyph-name="uniF447" unicode="&#xf447;" horiz-adv-x="503" 
d="M148 -170l25 49c23 -13 49 -22 77 -22c39 0 48 11 48 28c0 22 -19 29 -54 29h-19v86h-18v478h-204v82h496v-82h-205v-478h-16v-37c69 -3 100 -36 100 -82s-39 -85 -125 -85c-45 0 -81 16 -105 34z" />
    <glyph glyph-name="uniF44E" unicode="&#xf44e;" horiz-adv-x="644" 
d="M23 251c0 23 5 54 11 75h489c-14 98 -92 160 -214 160c-63 0 -141 -27 -187 -82l-59 56c57 71 158 107 251 107c185 0 300 -110 300 -285c0 -166 -112 -289 -302 -289c-202 0 -289 145 -289 258zM524 245h-415c7 -95 77 -171 207 -171c117 0 203 70 208 171z" />
    <glyph glyph-name="uniF452" unicode="&#xf452;" horiz-adv-x="732" 
d="M62 0v560h431v-81h-344v-174h321v-81h-321v-224h-87zM576 0v560h87v-560h-87z" />
    <glyph glyph-name="uniF453" unicode="&#xf453;" horiz-adv-x="1014" 
d="M62 0v560h431v-81h-344v-174h321v-81h-321v-224h-87zM571 0v560h87v-478h347v-82h-434z" />
    <glyph glyph-name="zero.tab" unicode="&#xf4e0;" 
d="M32 350c0 207 85 358 267 358c183 0 268 -138 268 -358c0 -207 -83 -358 -266 -358c-173 0 -269 151 -269 358zM124 350c0 -170 67 -273 177 -273c124 0 174 103 174 273s-51 273 -176 273c-123 0 -175 -105 -175 -273z" />
    <glyph glyph-name="one.tab" unicode="&#xf4e1;" 
d="M72 0v83h213v514l-179 -83l-32 75l240 115h57v-621h152v-83h-451z" />
    <glyph glyph-name="two.tab" unicode="&#xf4e2;" 
d="M123 469l-73 26c24 116 106 213 263 213c147 0 227 -86 227 -210c0 -174 -154 -292 -274 -367l-77 -48h377v-83h-525v68l142 101c131 93 265 179 265 320c0 97 -62 132 -141 132c-119 0 -168 -83 -184 -152z" />
    <glyph glyph-name="three.tab" unicode="&#xf4e3;" 
d="M122 496l-75 34c36 103 118 179 269 179c137 0 236 -68 236 -176c0 -81 -43 -141 -123 -164c70 -5 139 -56 139 -167c0 -136 -111 -211 -256 -211c-157 0 -250 77 -284 188l81 35c34 -73 82 -137 209 -137c96 0 158 44 158 124c0 89 -81 116 -180 116h-78v83h62
c111 0 180 50 180 116c0 71 -59 108 -148 108c-115 0 -165 -64 -190 -128z" />
    <glyph glyph-name="four.tab" unicode="&#xf4e4;" 
d="M395 0v143h-378v58l388 499h77v-476h110v-81h-110v-143h-87zM137 224h258v336z" />
    <glyph glyph-name="five.tab" unicode="&#xf4e5;" 
d="M73 341l41 359h440v-85h-363l-26 -188c30 22 85 39 159 39c168 0 262 -101 262 -234c0 -140 -117 -241 -271 -241c-128 0 -239 60 -285 171l80 34c27 -61 97 -120 205 -120c120 0 179 71 179 153c0 94 -75 153 -194 153c-70 0 -115 -19 -155 -60z" />
    <glyph glyph-name="six.tab" unicode="&#xf4e6;" 
d="M38 331c0 252 127 378 291 378c119 0 190 -54 228 -137l-68 -46c-38 60 -79 97 -164 97c-118 0 -200 -95 -198 -272c40 74 112 117 210 117c164 0 244 -95 244 -234c0 -145 -109 -243 -257 -243c-173 0 -286 120 -286 340zM138 246c18 -93 69 -169 185 -169
c107 0 166 61 166 153c0 102 -55 152 -157 152c-127 0 -182 -74 -194 -136z" />
    <glyph glyph-name="seven.tab" unicode="&#xf4e7;" 
d="M33 615v85h531v-57l-348 -643h-95l336 615h-424z" />
    <glyph glyph-name="eight.tab" unicode="&#xf4e8;" 
d="M286 399h31c72 0 138 46 138 114c0 73 -49 113 -156 113c-104 0 -153 -41 -153 -113c0 -65 59 -114 140 -114zM315 320h-25c-109 0 -167 -53 -167 -122c0 -74 59 -124 177 -124c117 0 178 47 178 123c0 78 -55 123 -163 123zM301 -9c-166 0 -270 74 -270 198
c0 83 45 145 128 173c-74 28 -105 91 -105 157c0 114 92 190 246 190c161 0 247 -76 247 -190c0 -71 -32 -120 -101 -152c95 -29 123 -90 123 -174c0 -128 -107 -202 -268 -202z" />
    <glyph glyph-name="nine.tab" unicode="&#xf4e9;" 
d="M574 363c0 -244 -107 -372 -293 -372c-104 0 -189 53 -232 124l72 50c41 -56 94 -88 172 -88c129 0 205 124 194 277c-31 -70 -93 -140 -210 -140c-140 0 -248 96 -248 240c0 157 111 255 276 255c161 0 269 -123 269 -346zM472 459c-13 83 -65 164 -177 164
c-119 0 -174 -61 -174 -166c0 -100 70 -157 172 -157c115 0 166 86 179 159z" />
    <glyph glyph-name="dollar.tab" unicode="&#xf4ec;" 
d="M474 186c0 174 -432 72 -432 331c0 96 85 178 224 190v79h84v-80c87 -9 161 -42 206 -99l-59 -59c-42 42 -107 75 -198 75c-67 0 -163 -26 -163 -104c0 -171 432 -76 432 -326c0 -110 -92 -188 -218 -200v-89h-84v90c-105 13 -198 69 -239 132l59 64
c45 -58 128 -113 237 -113c80 0 151 40 151 109z" />
    <glyph glyph-name="Euro.tab" unicode="&#xf4ed;" 
d="M12 399l30 75h72c42 137 159 235 323 235c60 0 116 -13 158 -39l-32 -70c-32 18 -75 30 -126 30c-107 0 -190 -61 -227 -156h321l-28 -75h-314c-2 -16 -3 -36 -3 -56c0 -11 0 -19 2 -31h291l-24 -75h-251c33 -102 126 -167 244 -167c39 0 86 10 114 28l21 -73
c-25 -19 -88 -34 -138 -34c-171 0 -295 91 -337 246h-94l28 75h54c-1 7 -2 19 -2 32c0 23 0 33 4 55h-86z" />
    <glyph glyph-name="cent.tab" unicode="&#xf4ee;" 
d="M483 150l60 -43c-35 -67 -110 -106 -184 -114v-193h-88v196c-133 21 -220 120 -220 265c0 136 86 244 220 266v173h88v-170c78 -9 145 -48 176 -104l-65 -44c-31 42 -68 64 -118 69v-381c56 5 101 36 131 80zM140 261c0 -94 53 -163 138 -184v370
c-82 -20 -138 -92 -138 -186z" />
    <glyph glyph-name="sterling.tab" unicode="&#xf4ef;" 
d="M71 271v71h68c-19 48 -46 88 -46 164c0 104 82 202 217 202c82 0 155 -30 202 -83l-48 -66c-47 47 -100 64 -154 64c-66 0 -125 -48 -125 -122c0 -57 30 -102 49 -159h170v-71h-155c1 -9 2 -18 2 -29c0 -51 -17 -97 -35 -121c66 -1 130 -46 198 -46c45 0 68 14 105 54
l43 -63c-42 -46 -93 -69 -148 -69c-80 0 -145 49 -225 49c-39 0 -77 -15 -118 -54l-39 64c29 29 60 48 88 57c26 34 42 73 42 124c0 12 -1 23 -3 34h-88z" />
    <glyph glyph-name="yen.tab" unicode="&#xf4fa;" 
d="M75 304v74h126l-197 322h111l186 -309l189 309h106l-200 -322h128v-74h-180v-106h180v-74h-180v-124h-91v124h-178v74h178v106h-178z" />
    <glyph glyph-name="florin.tab" unicode="&#xf4fb;" 
d="M375 496c-3 -14 -6 -28 -8 -42h154v-79h-168l-65 -362c-18 -108 -47 -221 -176 -221c-44 0 -84 16 -108 39l28 66c19 -16 44 -26 70 -26c56 0 83 38 96 110l71 394h-145v79h159l9 56c18 106 61 199 189 199c59 0 97 -18 122 -38l-31 -68c-22 17 -47 27 -83 27
c-66 0 -95 -39 -114 -134z" />
    <glyph glyph-name="uni20B4.tab" unicode="&#xf4fc;" 
d="M60 406v73h317c15 18 25 37 25 67c0 45 -38 78 -100 78c-65 0 -112 -17 -149 -50l-40 68c44 43 110 67 194 67c108 0 190 -62 190 -148c0 -34 -12 -63 -27 -82h71v-73h-119c-44 -41 -106 -68 -142 -92h261v-73h-320c-17 -20 -35 -42 -35 -73c0 -63 60 -92 129 -92
s129 27 163 69l42 -59c-40 -62 -130 -95 -212 -95c-115 0 -211 57 -211 166c0 37 13 62 29 84h-66v73h115c58 42 110 66 150 92h-265z" />
    <glyph glyph-name="uni20BD.tab" unicode="&#xf4fd;" 
d="M24 301v81h107v318c18 0 68 0 99 1c31 0 63 1 82 1c194 0 257 -89 257 -197c0 -112 -77 -204 -257 -204h-93v-84h174v-81h-174v-136h-88v136h-107v81h107v84h-107zM317 621l-98 -1v-238h91c111 0 167 41 167 120c0 78 -49 119 -160 119z" />
    <glyph glyph-name="uniF66D" unicode="&#xf66d;" horiz-adv-x="590" 
d="M0 0l261 561h68l261 -561h-92l-62 131h-285l-61 -131h-90zM293 436l-109 -230h219zM143 727l37 41c21 -24 68 -57 118 -57c53 0 95 25 119 56l31 -40c-30 -45 -79 -92 -152 -92c-80 0 -136 64 -153 92z" />
    <glyph glyph-name="uniF66E" unicode="&#xf66e;" horiz-adv-x="590" 
d="M0 0l261 561h68l261 -561h-92l-62 131h-285l-61 -131h-90zM293 436l-109 -230h219zM160 646v73h269v-73h-269z" />
    <glyph glyph-name="uniF66F" unicode="&#xf66f;" horiz-adv-x="590" 
d="M571 -119l25 -58c-17 -12 -45 -23 -84 -23c-57 0 -116 29 -116 98c0 56 46 93 98 111l-58 122h-285l-61 -131h-90l261 561h68l261 -561h-23c-34 0 -84 -34 -84 -80c0 -28 18 -49 43 -49c13 0 28 2 45 10zM293 436l-109 -230h219z" />
    <glyph glyph-name="uniF671" unicode="&#xf671;" horiz-adv-x="587" 
d="M521 151l51 -56c-47 -63 -137 -105 -235 -105c-188 0 -307 116 -307 290c0 161 118 290 302 290c108 0 191 -45 231 -99l-57 -54c-44 43 -98 69 -171 69c-132 0 -214 -84 -214 -206c0 -123 90 -206 222 -206c79 0 138 32 178 77zM442 767l-121 -152l-56 39l113 161z" />
    <glyph glyph-name="uniF672" unicode="&#xf672;" horiz-adv-x="587" 
d="M521 151l51 -56c-47 -63 -137 -105 -235 -105c-188 0 -307 116 -307 290c0 161 118 290 302 290c108 0 191 -45 231 -99l-57 -54c-44 43 -98 69 -171 69c-132 0 -214 -84 -214 -206c0 -123 90 -206 222 -206c79 0 138 32 178 77zM315 619l-149 126l44 53l106 -93l111 90
l39 -51l-147 -125h-4z" />
    <glyph glyph-name="uniF673" unicode="&#xf673;" horiz-adv-x="587" 
d="M521 151l51 -56c-47 -63 -137 -105 -235 -105c-188 0 -307 116 -307 290c0 161 118 290 302 290c108 0 191 -45 231 -99l-57 -54c-44 43 -98 69 -171 69c-132 0 -214 -84 -214 -206c0 -123 90 -206 222 -206c79 0 138 32 178 77zM317 792l148 -126l-44 -53l-106 93
l-111 -91l-39 52l148 125h4z" />
    <glyph glyph-name="uniF674" unicode="&#xf674;" horiz-adv-x="587" 
d="M521 151l51 -56c-47 -63 -137 -105 -235 -105c-188 0 -307 116 -307 290c0 161 118 290 302 290c108 0 191 -45 231 -99l-57 -54c-44 43 -98 69 -171 69c-132 0 -214 -84 -214 -206c0 -123 90 -206 222 -206c79 0 138 32 178 77zM265 697c0 28 24 48 54 48
c29 0 52 -20 52 -48c0 -31 -23 -52 -52 -52c-31 0 -54 21 -54 52z" />
    <glyph glyph-name="uniF675" unicode="&#xf675;" horiz-adv-x="607" 
d="M62 0v560h184c244 0 331 -126 331 -272c0 -160 -104 -288 -340 -288h-175zM245 479h-96v-398h94c172 0 243 86 243 207c0 110 -64 191 -241 191zM265 619l-149 126l44 53l106 -93l111 90l39 -51l-147 -125h-4z" />
    <glyph glyph-name="uniF676" unicode="&#xf676;" horiz-adv-x="658" 
d="M11 242v73h101v245h185c244 0 331 -126 331 -272c0 -160 -105 -288 -341 -288h-175v242h-101zM295 479h-96v-164h157v-73h-157v-161h94c173 0 244 86 244 207c0 110 -64 191 -242 191z" />
    <glyph glyph-name="uniF678" unicode="&#xf678;" horiz-adv-x="536" 
d="M62 0v560h425v-81h-337v-154h314v-81h-314v-163h345v-81h-433zM279 619l-149 126l44 53l106 -93l111 90l39 -51l-147 -125h-4z" />
    <glyph glyph-name="uniF679" unicode="&#xf679;" horiz-adv-x="536" 
d="M62 0v560h425v-81h-337v-154h314v-81h-314v-163h345v-81h-433zM229 697c0 28 24 48 54 48c29 0 52 -20 52 -48c0 -31 -23 -52 -52 -52c-31 0 -54 21 -54 52z" />
    <glyph glyph-name="uniF67A" unicode="&#xf67a;" horiz-adv-x="536" 
d="M62 0v560h425v-81h-337v-154h314v-81h-314v-163h345v-81h-433zM152 646v73h269v-73h-269z" />
    <glyph glyph-name="uniF67C" unicode="&#xf67c;" horiz-adv-x="546" 
d="M62 0v560h435v-81h-347v-154h324v-81h-324v-163h355v-81h-5c-34 0 -84 -34 -84 -80c0 -28 18 -49 43 -49c13 0 28 2 45 10l25 -58c-17 -12 -45 -23 -84 -23c-57 0 -116 29 -116 98c0 48 34 82 77 102h-344z" />
    <glyph glyph-name="uniF67D" unicode="&#xf67d;" horiz-adv-x="606" 
d="M331 215v79h245v-214c-54 -55 -135 -90 -231 -90c-182 0 -315 116 -315 290c0 161 129 290 304 290c101 0 182 -36 228 -92l-57 -55c-34 37 -90 63 -166 63c-130 0 -218 -83 -218 -206c0 -128 94 -206 225 -206c62 0 106 15 147 45v96h-162zM158 727l37 41
c21 -24 68 -57 118 -57c53 0 95 25 119 56l31 -40c-30 -45 -79 -92 -152 -92c-80 0 -136 64 -153 92z" />
    <glyph glyph-name="uniF67E" unicode="&#xf67e;" horiz-adv-x="606" 
d="M331 215v79h245v-214c-54 -55 -135 -90 -231 -90c-182 0 -315 116 -315 290c0 161 129 290 304 290c101 0 182 -36 228 -92l-57 -55c-34 37 -90 63 -166 63c-130 0 -218 -83 -218 -206c0 -128 94 -206 225 -206c62 0 106 15 147 45v96h-162zM324 792l148 -126l-44 -53
l-106 93l-111 -91l-39 52l148 125h4z" />
    <glyph glyph-name="uniF67F" unicode="&#xf67f;" horiz-adv-x="606" 
d="M331 215v79h245v-214c-54 -55 -135 -90 -231 -90c-182 0 -315 116 -315 290c0 161 129 290 304 290c101 0 182 -36 228 -92l-57 -55c-34 37 -90 63 -166 63c-130 0 -218 -83 -218 -206c0 -128 94 -206 225 -206c62 0 106 15 147 45v96h-162zM290 -91l70 46
c20 -17 40 -45 40 -79c0 -68 -47 -117 -81 -138l-40 33c22 21 39 49 39 81c0 26 -12 41 -28 57z" />
    <glyph glyph-name="uniF680" unicode="&#xf680;" horiz-adv-x="606" 
d="M331 215v79h245v-214c-54 -55 -135 -90 -231 -90c-182 0 -315 116 -315 290c0 161 129 290 304 290c101 0 182 -36 228 -92l-57 -55c-34 37 -90 63 -166 63c-130 0 -218 -83 -218 -206c0 -128 94 -206 225 -206c62 0 106 15 147 45v96h-162zM275 697c0 28 24 48 54 48
c29 0 52 -20 52 -48c0 -31 -23 -52 -52 -52c-31 0 -54 21 -54 52z" />
    <glyph glyph-name="uniF681" unicode="&#xf681;" horiz-adv-x="636" 
d="M0 409v69h62v82h87v-82h338v82h87v-82h62v-69h-62v-409h-87v243h-338v-243h-87v409h-62zM149 325h338v84h-338v-84z" />
    <glyph glyph-name="uniF682" unicode="&#xf682;" horiz-adv-x="636" 
d="M487 0v243h-338v-243h-87v560h87v-235h338v235h87v-560h-87zM320 792l148 -126l-44 -53l-106 93l-111 -91l-39 52l148 125h4z" />
    <glyph glyph-name="uniF685" unicode="&#xf685;" horiz-adv-x="225" 
d="M69 0v560h87v-560h-87zM-22 646v73h269v-73h-269z" />
    <glyph glyph-name="uniF686" unicode="&#xf686;" horiz-adv-x="225" 
d="M156 -119l25 -58c-17 -12 -45 -23 -84 -23c-57 0 -116 29 -116 98c0 52 41 88 88 107v555h87v-560h-4c-34 0 -84 -34 -84 -80c0 -28 18 -49 43 -49c13 0 28 2 45 10z" />
    <glyph glyph-name="uniF688" unicode="&#xf688;" horiz-adv-x="413" 
d="M353 560v-388c0 -116 -71 -179 -177 -179c-97 0 -155 54 -180 103l65 49c22 -37 60 -71 108 -71c63 1 97 28 97 114v372h87zM299 792l148 -126l-44 -53l-106 93l-111 -91l-39 52l148 125h4z" />
    <glyph glyph-name="uniF689" unicode="&#xf689;" horiz-adv-x="569" 
d="M62 0v560h87v-256l288 256h115l-277 -252l296 -308h-118l-250 255l-54 -48v-207h-87zM221 -91l70 46c20 -17 40 -45 40 -79c0 -68 -47 -117 -81 -138l-40 33c22 21 39 49 39 81c0 26 -12 41 -28 57z" />
    <glyph glyph-name="uniF68A" unicode="&#xf68a;" horiz-adv-x="505" 
d="M62 0v560h87v-478h347v-82h-434zM308 767l-121 -152l-56 39l113 161z" />
    <glyph glyph-name="uniF68B" unicode="&#xf68b;" horiz-adv-x="505" 
d="M62 0v560h87v-478h347v-82h-434zM331 560h87c8 -15 12 -35 12 -64c0 -68 -50 -125 -95 -153l-37 35c33 26 52 74 52 106c0 31 -9 62 -19 76z" />
    <glyph glyph-name="uniF68C" unicode="&#xf68c;" horiz-adv-x="505" 
d="M62 0v560h87v-478h347v-82h-434zM227 -91l70 46c20 -17 40 -45 40 -79c0 -68 -47 -117 -81 -138l-40 33c22 21 39 49 39 81c0 26 -12 41 -28 57z" />
    <glyph glyph-name="uniF68D" unicode="&#xf68d;" horiz-adv-x="505" 
d="M62 0v560h87v-478h347v-82h-434zM302 308c0 27 25 56 62 56c35 0 60 -29 60 -56c0 -31 -25 -59 -60 -59c-37 0 -62 28 -62 59z" />
    <glyph glyph-name="uniF68E" unicode="&#xf68e;" horiz-adv-x="627" 
d="M565 0h-68l-351 407v-407h-84v560h68l351 -409v409h84v-560zM435 767l-121 -152l-56 39l113 161z" />
    <glyph glyph-name="uniF68F" unicode="&#xf68f;" horiz-adv-x="627" 
d="M565 0h-68l-351 407v-407h-84v560h68l351 -409v409h84v-560zM313 619l-149 126l44 53l106 -93l111 90l39 -51l-147 -125h-4z" />
    <glyph glyph-name="uniF690" unicode="&#xf690;" horiz-adv-x="627" 
d="M565 0h-68l-351 407v-407h-84v560h68l351 -409v409h84v-560zM264 -91l70 46c20 -17 40 -45 40 -79c0 -68 -47 -117 -81 -138l-40 33c22 21 39 49 39 81c0 26 -12 41 -28 57z" />
    <glyph glyph-name="uniF692" unicode="&#xf692;" horiz-adv-x="666" 
d="M30 280c0 162 133 287 303 287c168 0 303 -120 303 -287c0 -165 -135 -287 -303 -287s-303 120 -303 287zM121 280c0 -120 97 -203 212 -203c119 0 212 83 212 203c0 122 -99 203 -212 203c-115 0 -212 -81 -212 -203zM535 775l-135 -160l-47 35l123 170zM381 781
l-128 -166l-48 35l118 173z" />
    <glyph glyph-name="uniF693" unicode="&#xf693;" horiz-adv-x="666" 
d="M30 280c0 162 133 287 303 287c168 0 303 -120 303 -287c0 -165 -135 -287 -303 -287s-303 120 -303 287zM121 280c0 -120 97 -203 212 -203c119 0 212 83 212 203c0 122 -99 203 -212 203c-115 0 -212 -81 -212 -203zM198 646v73h269v-73h-269z" />
    <glyph glyph-name="uniF695" unicode="&#xf695;" horiz-adv-x="578" 
d="M149 0h-87v560h230c182 0 232 -83 232 -172c0 -78 -57 -140 -141 -160l187 -228h-106l-172 212h-143v-212zM289 479h-140v-186h145c86 0 139 36 139 95c0 53 -34 91 -144 91zM382 767l-121 -152l-56 39l113 161z" />
    <glyph glyph-name="uniF696" unicode="&#xf696;" horiz-adv-x="578" 
d="M149 0h-87v560h230c182 0 232 -83 232 -172c0 -78 -57 -140 -141 -160l187 -228h-106l-172 212h-143v-212zM289 479h-140v-186h145c86 0 139 36 139 95c0 53 -34 91 -144 91zM262 619l-149 126l44 53l106 -93l111 90l39 -51l-147 -125h-4z" />
    <glyph glyph-name="uniF697" unicode="&#xf697;" horiz-adv-x="578" 
d="M149 0h-87v560h230c182 0 232 -83 232 -172c0 -78 -57 -140 -141 -160l187 -228h-106l-172 212h-143v-212zM289 479h-140v-186h145c86 0 139 36 139 95c0 53 -34 91 -144 91zM227 -91l70 46c20 -17 40 -45 40 -79c0 -68 -47 -117 -81 -138l-40 33c22 21 39 49 39 81
c0 26 -12 41 -28 57z" />
    <glyph glyph-name="uniF698" unicode="&#xf698;" horiz-adv-x="520" 
d="M399 151c0 126 -360 53 -360 259c0 85 86 157 222 157c94 0 174 -29 220 -86l-57 -56c-36 34 -90 60 -169 60c-55 0 -125 -20 -125 -73c0 -123 360 -57 360 -255c0 -97 -88 -164 -217 -164c-107 0 -206 52 -247 110l55 63c41 -50 111 -91 203 -91c62 0 115 28 115 76z
M378 767l-121 -152l-56 39l113 161z" />
    <glyph glyph-name="uniF699" unicode="&#xf699;" horiz-adv-x="520" 
d="M159 -170l25 49c23 -13 49 -22 77 -22c39 0 48 11 48 28c0 22 -19 29 -54 29h-19v81c-93 10 -174 56 -210 108l55 63c41 -50 111 -91 203 -91c62 0 115 28 115 76c0 126 -360 53 -360 259c0 85 86 157 222 157c94 0 174 -29 220 -86l-57 -56c-36 34 -90 60 -169 60
c-55 0 -125 -20 -125 -73c0 -123 360 -57 360 -255c0 -93 -81 -158 -201 -163v-31c69 -3 100 -36 100 -82s-39 -85 -125 -85c-45 0 -81 16 -105 34z" />
    <glyph glyph-name="uniF69A" unicode="&#xf69a;" horiz-adv-x="520" 
d="M399 151c0 126 -360 53 -360 259c0 85 86 157 222 157c94 0 174 -29 220 -86l-57 -56c-36 34 -90 60 -169 60c-55 0 -125 -20 -125 -73c0 -123 360 -57 360 -255c0 -97 -88 -164 -217 -164c-107 0 -206 52 -247 110l55 63c41 -50 111 -91 203 -91c62 0 115 28 115 76z
M261 792l148 -126l-44 -53l-106 93l-111 -91l-39 52l148 125h4z" />
    <glyph glyph-name="uniF69B" unicode="&#xf69b;" horiz-adv-x="520" 
d="M399 151c0 126 -360 53 -360 259c0 85 86 157 222 157c94 0 174 -29 220 -86l-57 -56c-36 34 -90 60 -169 60c-55 0 -125 -20 -125 -73c0 -123 360 -57 360 -255c0 -97 -88 -164 -217 -164c-107 0 -206 52 -247 110l55 63c41 -50 111 -91 203 -91c62 0 115 28 115 76z
M211 -91l70 46c20 -17 40 -45 40 -79c0 -68 -47 -117 -81 -138l-40 33c22 21 39 49 39 81c0 26 -12 41 -28 57z" />
    <glyph glyph-name="uniF69D" unicode="&#xf69d;" horiz-adv-x="503" 
d="M3 478v82h496v-82h-205v-478h-87v478h-204zM250 619l-149 126l44 53l106 -93l111 90l39 -51l-147 -125h-4z" />
    <glyph glyph-name="uniF69E" unicode="&#xf69e;" horiz-adv-x="503" 
d="M3 478v82h496v-82h-205v-478h-87v478h-204zM203 -91l70 46c20 -17 40 -45 40 -79c0 -68 -47 -117 -81 -138l-40 33c22 21 39 49 39 81c0 26 -12 41 -28 57z" />
    <glyph glyph-name="uniF69F" unicode="&#xf69f;" horiz-adv-x="614" 
d="M559 560v-322c0 -174 -123 -244 -244 -244c-139 0 -260 83 -260 248v318h87v-306c0 -111 75 -178 173 -178c106 0 157 71 157 174v310h87zM155 727l37 41c21 -24 68 -57 118 -57c53 0 95 25 119 56l31 -40c-30 -45 -79 -92 -152 -92c-80 0 -136 64 -153 92z" />
    <glyph glyph-name="uniF6A0" unicode="&#xf6a0;" horiz-adv-x="614" 
d="M559 560v-322c0 -174 -123 -244 -244 -244c-139 0 -260 83 -260 248v318h87v-306c0 -111 75 -178 173 -178c106 0 157 71 157 174v310h87zM508 775l-135 -160l-47 35l123 170zM354 781l-128 -166l-48 35l118 173z" />
    <glyph glyph-name="uniF6A1" unicode="&#xf6a1;" horiz-adv-x="614" 
d="M559 560v-322c0 -174 -123 -244 -244 -244c-139 0 -260 83 -260 248v318h87v-306c0 -111 75 -178 173 -178c106 0 157 71 157 174v310h87zM173 646v73h269v-73h-269z" />
    <glyph glyph-name="uniF6A2" unicode="&#xf6a2;" horiz-adv-x="614" 
d="M559 560v-322c0 -124 -63 -195 -142 -226c-43 -27 -72 -57 -72 -93c0 -28 18 -48 43 -48c13 0 28 2 45 10l25 -58c-17 -12 -45 -23 -84 -23c-57 0 -116 29 -116 98c0 43 29 72 69 96h-12c-139 0 -260 83 -260 248v318h87v-306c0 -111 75 -178 173 -178
c106 0 157 71 157 174v310h87z" />
    <glyph glyph-name="uniF6A3" unicode="&#xf6a3;" horiz-adv-x="614" 
d="M559 560v-322c0 -174 -123 -244 -244 -244c-139 0 -260 83 -260 248v318h87v-306c0 -111 75 -178 173 -178c106 0 157 71 157 174v310h87zM199 712c0 58 46 106 108 106s110 -48 110 -106s-48 -105 -110 -105s-108 47 -108 105zM259 713c0 -28 20 -49 49 -49
c28 0 49 17 49 49c0 31 -20 49 -49 49s-49 -20 -49 -49z" />
    <glyph glyph-name="uniF6AB" unicode="&#xf6ab;" horiz-adv-x="537" 
d="M26 479v81h486v-59l-372 -420h380v-81h-509v59l370 420h-355zM382 767l-121 -152l-56 39l113 161z" />
    <glyph glyph-name="uniF6AC" unicode="&#xf6ac;" horiz-adv-x="537" 
d="M26 479v81h486v-59l-372 -420h380v-81h-509v59l370 420h-355zM215 697c0 28 24 48 54 48c29 0 52 -20 52 -48c0 -31 -23 -52 -52 -52c-31 0 -54 21 -54 52z" />
    <glyph glyph-name="uniF6AD" unicode="&#xf6ad;" horiz-adv-x="225" 
d="M69 0v560h87v-560h-87zM59 697c0 28 24 48 54 48c29 0 52 -20 52 -48c0 -31 -23 -52 -52 -52c-31 0 -54 21 -54 52z" />
    <glyph glyph-name="uniF6BA" unicode="&#xf6ba;" horiz-adv-x="409" 
d="M76 319v77h256v-77h-256z" />
    <glyph glyph-name="uniF6BB" unicode="&#xf6bb;" 
d="M89 321v74h421v-74h-421z" />
    <glyph glyph-name="uniF6BC" unicode="&#xf6bc;" horiz-adv-x="795" 
d="M89 321v74h618v-74h-618z" />
    <glyph glyph-name="uniF6C3" unicode="&#xf6c3;" horiz-adv-x="353" 
d="M244 -91l70 46c20 -17 40 -45 40 -79c0 -68 -47 -117 -82 -138l-39 33c21 21 39 49 39 81c0 26 -12 41 -28 57z" />
    <glyph glyph-name="uniF6C9" unicode="&#xf6c9;" horiz-adv-x="549" 
d="M548 852l-200 -97l-31 56l193 115z" />
    <glyph glyph-name="uniF6CA" unicode="&#xf6ca;" horiz-adv-x="495" 
d="M322 756l-183 106l37 53l148 -83l147 83l30 -52l-175 -107h-4z" />
    <glyph glyph-name="uniF6CB" unicode="&#xf6cb;" horiz-adv-x="497" 
d="M155 825c0 29 24 49 56 49c25 0 52 -20 52 -49c0 -30 -27 -48 -52 -48c-32 0 -56 18 -56 48zM392 825c0 29 25 49 54 49c27 0 52 -19 52 -49s-25 -48 -52 -48c-29 0 -54 18 -54 48z" />
    <glyph glyph-name="uniF6CE" unicode="&#xf6ce;" horiz-adv-x="448" 
d="M418 755l-201 97l38 74l193 -115z" />
    <glyph glyph-name="uniF6CF" unicode="&#xf6cf;" horiz-adv-x="624" 
d="M623 848l-172 -99l-34 43l155 116zM435 859l-159 -110l-34 41l132 118z" />
    <glyph glyph-name="uniF6D0" unicode="&#xf6d0;" horiz-adv-x="521" 
d="M220 789v73h301v-73h-301z" />
    <glyph glyph-name="uniF6D1" unicode="&#xf6d1;" horiz-adv-x="557" 
d="M184 896h85c18 -41 53 -62 103 -62c48 0 89 20 100 62h86c-10 -79 -89 -136 -184 -136c-107 0 -173 58 -190 136z" />
    <glyph glyph-name="uniF6D4" unicode="&#xf6d4;" horiz-adv-x="474" 
d="M141 744h79c1 -48 32 -82 89 -82c55 0 86 34 86 82h79c-2 -92 -74 -149 -165 -149c-98 0 -167 55 -168 149z" />
    <glyph glyph-name="uniF6F4" unicode="&#xf6f4;" horiz-adv-x="490" 
d="M185 727l37 41c21 -24 68 -57 118 -57c53 0 95 25 119 56l31 -40c-30 -45 -79 -92 -152 -92c-80 0 -136 64 -153 92z" />
    <glyph glyph-name="uniF6F5" unicode="&#xf6f5;" horiz-adv-x="476" 
d="M325 619l-149 126l44 53l106 -93l111 90l39 -51l-147 -125h-4z" />
    <glyph glyph-name="uniF6F6" unicode="&#xf6f6;" horiz-adv-x="466" 
d="M318 792l148 -126l-44 -53l-106 93l-111 -91l-39 52l148 125h4z" />
    <glyph glyph-name="uniF6F7" unicode="&#xf6f7;" horiz-adv-x="381" 
d="M275 697c0 28 24 48 54 48c29 0 52 -20 52 -48c0 -31 -23 -52 -52 -52c-31 0 -54 21 -54 52z" />
    <glyph glyph-name="uniF6F8" unicode="&#xf6f8;" horiz-adv-x="531" 
d="M531 775l-135 -160l-47 35l123 170zM377 781l-128 -166l-48 35l118 173z" />
    <glyph glyph-name="uniF6F9" unicode="&#xf6f9;" horiz-adv-x="512" 
d="M0 108v89l70 48v315h87v-254l169 117v-89l-169 -117v-135h347v-82h-434v156z" />
    <glyph glyph-name="uniF6FA" unicode="&#xf6fa;" horiz-adv-x="996" 
d="M512 0v55c-49 -38 -112 -62 -179 -62c-168 0 -303 120 -303 287c0 162 133 287 303 287c68 0 130 -21 179 -60v53h436v-81h-349v-155h325v-80h-325v-163h356v-81h-443zM333 77c76 0 141 33 179 89v226c-39 57 -106 91 -179 91c-115 0 -212 -81 -212 -203
c0 -120 97 -203 212 -203z" />
    <glyph glyph-name="uniF6FB" unicode="&#xf6fb;" horiz-adv-x="391" 
d="M393 -119l25 -58c-17 -12 -45 -23 -84 -23c-57 0 -116 29 -116 98c0 82 103 124 171 125v-23c-34 0 -84 -34 -84 -80c0 -28 18 -49 43 -49c13 0 28 2 45 10z" />
    <glyph glyph-name="uniF6FC" unicode="&#xf6fc;" horiz-adv-x="446" 
d="M227 712c0 58 46 106 108 106s110 -48 110 -106s-48 -105 -110 -105s-108 47 -108 105zM287 713c0 -28 20 -49 49 -49c28 0 49 17 49 49c0 31 -20 49 -49 49s-49 -20 -49 -49z" />
    <glyph glyph-name="uniF6FD" unicode="&#xf6fd;" horiz-adv-x="520" 
d="M399 151c0 126 -360 53 -360 259c0 85 86 157 222 157c94 0 174 -29 220 -86l-57 -56c-36 34 -90 60 -169 60c-55 0 -125 -20 -125 -73c0 -123 360 -57 360 -255c0 -97 -88 -164 -217 -164c-107 0 -206 52 -247 110l55 63c41 -50 111 -91 203 -91c62 0 115 28 115 76z
M260 619l-149 126l44 53l106 -93l111 90l39 -51l-147 -125h-4z" />
    <glyph glyph-name="uniF6FE" unicode="&#xf6fe;" horiz-adv-x="493" 
d="M199 635l-38 41c36 39 77 63 113 63c47 0 79 -47 121 -47c25 0 46 11 67 33l32 -43c-35 -43 -73 -61 -106 -61c-52 0 -80 47 -119 47c-24 0 -47 -14 -70 -33z" />
    <glyph glyph-name="uniF6FF" unicode="&#xf6ff;" horiz-adv-x="537" 
d="M26 479v81h486v-59l-372 -420h380v-81h-509v59l370 420h-355zM268 619l-149 126l44 53l106 -93l111 90l39 -51l-147 -125h-4z" />
    <glyph glyph-name="uniF760" unicode="&#xf760;" horiz-adv-x="389" 
d="M338 616l-127 148l66 51l112 -160z" />
    <glyph glyph-name="uniF761" unicode="&#xf761;" horiz-adv-x="590" 
d="M0 0l261 561h68l261 -561h-92l-62 131h-285l-61 -131h-90zM293 436l-109 -230h219z" />
    <glyph glyph-name="uniF762" unicode="&#xf762;" horiz-adv-x="573" 
d="M62 0v560h245c160 0 209 -58 209 -140c0 -60 -30 -103 -80 -126c62 -15 101 -60 101 -132c0 -115 -94 -162 -235 -162h-240zM307 246h-158v-165h150c103 0 148 27 148 86c0 53 -42 79 -140 79zM297 479h-148v-153h160c72 0 117 28 117 75c0 51 -31 78 -129 78z" />
    <glyph glyph-name="uniF763" unicode="&#xf763;" horiz-adv-x="587" 
d="M521 151l51 -56c-47 -63 -137 -105 -235 -105c-188 0 -307 116 -307 290c0 161 118 290 302 290c108 0 191 -45 231 -99l-57 -54c-44 43 -98 69 -171 69c-132 0 -214 -84 -214 -206c0 -123 90 -206 222 -206c79 0 138 32 178 77z" />
    <glyph glyph-name="uniF764" unicode="&#xf764;" horiz-adv-x="607" 
d="M62 0v560h184c244 0 331 -126 331 -272c0 -160 -104 -288 -340 -288h-175zM245 479h-96v-398h94c172 0 243 86 243 207c0 110 -64 191 -241 191z" />
    <glyph glyph-name="uniF765" unicode="&#xf765;" horiz-adv-x="536" 
d="M62 0v560h425v-81h-337v-154h314v-81h-314v-163h345v-81h-433z" />
    <glyph glyph-name="uniF766" unicode="&#xf766;" horiz-adv-x="521" 
d="M62 0v560h431v-81h-344v-174h321v-81h-321v-224h-87z" />
    <glyph glyph-name="uniF767" unicode="&#xf767;" horiz-adv-x="606" 
d="M331 215v79h245v-214c-54 -55 -135 -90 -231 -90c-182 0 -315 116 -315 290c0 161 129 290 304 290c101 0 182 -36 228 -92l-57 -55c-34 37 -90 63 -166 63c-130 0 -218 -83 -218 -206c0 -128 94 -206 225 -206c62 0 106 15 147 45v96h-162z" />
    <glyph glyph-name="uniF768" unicode="&#xf768;" horiz-adv-x="636" 
d="M487 0v243h-338v-243h-87v560h87v-235h338v235h87v-560h-87z" />
    <glyph glyph-name="uniF769" unicode="&#xf769;" horiz-adv-x="225" 
d="M69 0v560h87v-560h-87z" />
    <glyph glyph-name="uniF76A" unicode="&#xf76a;" horiz-adv-x="413" 
d="M353 560v-388c0 -116 -71 -179 -177 -179c-97 0 -155 54 -180 103l65 49c22 -37 60 -71 108 -71c63 1 97 28 97 114v372h87z" />
    <glyph glyph-name="uniF76B" unicode="&#xf76b;" horiz-adv-x="569" 
d="M62 0v560h87v-256l288 256h115l-277 -252l296 -308h-118l-250 255l-54 -48v-207h-87z" />
    <glyph glyph-name="uniF76C" unicode="&#xf76c;" horiz-adv-x="505" 
d="M62 0v560h87v-478h347v-82h-434z" />
    <glyph glyph-name="uniF76D" unicode="&#xf76d;" horiz-adv-x="714" 
d="M62 0v560h78l222 -268l213 268h77v-560h-87v415l-194 -245h-22l-200 244v-414h-87z" />
    <glyph glyph-name="uniF76E" unicode="&#xf76e;" horiz-adv-x="627" 
d="M565 0h-68l-351 407v-407h-84v560h68l351 -409v409h84v-560z" />
    <glyph glyph-name="uniF76F" unicode="&#xf76f;" horiz-adv-x="666" 
d="M30 280c0 162 133 287 303 287c168 0 303 -120 303 -287c0 -165 -135 -287 -303 -287s-303 120 -303 287zM121 280c0 -120 97 -203 212 -203c119 0 212 83 212 203c0 122 -99 203 -212 203c-115 0 -212 -81 -212 -203z" />
    <glyph glyph-name="uniF770" unicode="&#xf770;" horiz-adv-x="557" 
d="M149 0h-87v560h220c199 0 245 -93 245 -181c0 -91 -63 -181 -246 -181h-132v-198zM286 479h-137v-200h130c110 0 157 40 157 101c0 57 -39 99 -150 99z" />
    <glyph glyph-name="uniF771" unicode="&#xf771;" horiz-adv-x="666" 
d="M30 280c0 162 133 287 303 287c168 0 303 -120 303 -287c0 -77 -31 -148 -91 -205l58 -66l-60 -49l-60 68c-44 -22 -95 -35 -150 -35c-174 0 -303 120 -303 287zM121 280c0 -120 93 -203 212 -203c34 0 67 8 98 22l-50 55l55 48l53 -60c35 34 56 83 56 138
c0 122 -93 203 -212 203s-212 -81 -212 -203z" />
    <glyph glyph-name="uniF772" unicode="&#xf772;" horiz-adv-x="578" 
d="M149 0h-87v560h230c182 0 232 -83 232 -172c0 -78 -57 -140 -141 -160l187 -228h-106l-172 212h-143v-212zM289 479h-140v-186h145c86 0 139 36 139 95c0 53 -34 91 -144 91z" />
    <glyph glyph-name="uniF773" unicode="&#xf773;" horiz-adv-x="520" 
d="M399 151c0 126 -360 53 -360 259c0 85 86 157 222 157c94 0 174 -29 220 -86l-57 -56c-36 34 -90 60 -169 60c-55 0 -125 -20 -125 -73c0 -123 360 -57 360 -255c0 -97 -88 -164 -217 -164c-107 0 -206 52 -247 110l55 63c41 -50 111 -91 203 -91c62 0 115 28 115 76z
" />
    <glyph glyph-name="uniF774" unicode="&#xf774;" horiz-adv-x="503" 
d="M3 478v82h496v-82h-205v-478h-87v478h-204z" />
    <glyph glyph-name="uniF775" unicode="&#xf775;" horiz-adv-x="614" 
d="M559 560v-322c0 -174 -123 -244 -244 -244c-139 0 -260 83 -260 248v318h87v-306c0 -111 75 -178 173 -178c106 0 157 71 157 174v310h87z" />
    <glyph glyph-name="uniF776" unicode="&#xf776;" horiz-adv-x="610" 
d="M614 560l-271 -560h-62l-285 560h94l224 -436l208 436h92z" />
    <glyph glyph-name="uniF777" unicode="&#xf777;" horiz-adv-x="820" 
d="M819 560l-177 -560h-74l-155 409l-152 -409h-74l-185 560h90l136 -406l150 406h73l152 -405l130 405h86z" />
    <glyph glyph-name="uniF778" unicode="&#xf778;" horiz-adv-x="568" 
d="M552 560l-215 -275l222 -285h-105l-170 215l-170 -215h-105l223 285l-214 275h104l163 -205l162 205h105z" />
    <glyph glyph-name="uniF779" unicode="&#xf779;" horiz-adv-x="557" 
d="M561 560l-241 -357v-203h-87v203l-237 357h107l177 -265l178 265h103z" />
    <glyph glyph-name="uniF77A" unicode="&#xf77a;" horiz-adv-x="537" 
d="M26 479v81h486v-59l-372 -420h380v-81h-509v59l370 420h-355z" />
    <glyph glyph-name="uniF7A1" unicode="&#xf7a1;" horiz-adv-x="264" 
d="M89 0v405h85v-405h-85zM80 515c0 24 21 47 52 47c28 0 50 -23 50 -47c0 -22 -22 -46 -50 -46c-31 0 -52 24 -52 46z" />
    <glyph glyph-name="uniF7A8" unicode="&#xf7a8;" horiz-adv-x="478" 
d="M146 697c0 28 24 47 50 47c25 0 51 -19 51 -47c0 -31 -26 -49 -51 -49c-26 0 -50 18 -50 49zM375 697c0 28 25 47 53 47c25 0 51 -19 51 -47c0 -31 -26 -49 -51 -49c-28 0 -53 18 -53 49z" />
    <glyph glyph-name="uniF7AF" unicode="&#xf7af;" horiz-adv-x="448" 
d="M179 646v73h269v-73h-269z" />
    <glyph glyph-name="uniF7B4" unicode="&#xf7b4;" horiz-adv-x="462" 
d="M462 767l-121 -152l-56 39l113 161z" />
    <glyph glyph-name="uniF7B8" unicode="&#xf7b8;" horiz-adv-x="459" 
d="M229 -170l25 49c23 -13 49 -22 77 -22c39 0 48 11 48 28c0 22 -19 29 -54 29h-19v86h53v-37c69 -3 100 -36 100 -82s-39 -85 -125 -85c-45 0 -81 16 -105 34z" />
    <glyph glyph-name="uniF7BF" unicode="&#xf7bf;" horiz-adv-x="408" 
d="M106 150c0 -43 36 -73 92 -73c44 0 89 16 113 66l70 -32c-32 -83 -112 -118 -185 -118c-114 0 -178 63 -178 142c0 87 52 125 99 157c40 28 64 48 64 80c0 19 -2 23 -4 34l78 1c4 -14 6 -32 5 -43c-3 -62 -45 -92 -88 -121c-35 -23 -66 -47 -66 -93zM269 515
c0 -22 -20 -46 -51 -46c-29 0 -50 24 -50 46c0 24 21 47 50 47c31 0 51 -23 51 -47z" />
    <glyph glyph-name="uniF7E0" unicode="&#xf7e0;" horiz-adv-x="590" 
d="M0 0l261 561h68l261 -561h-92l-62 131h-285l-61 -131h-90zM293 436l-109 -230h219zM298 616l-127 148l66 51l112 -160z" />
    <glyph glyph-name="uniF7E1" unicode="&#xf7e1;" horiz-adv-x="590" 
d="M0 0l261 561h68l261 -561h-92l-62 131h-285l-61 -131h-90zM293 436l-109 -230h219zM424 767l-121 -152l-56 39l113 161z" />
    <glyph glyph-name="uniF7E2" unicode="&#xf7e2;" horiz-adv-x="590" 
d="M0 0l261 561h68l261 -561h-92l-62 131h-285l-61 -131h-90zM293 436l-109 -230h219zM297 792l148 -126l-44 -53l-106 93l-111 -91l-39 52l148 125h4z" />
    <glyph glyph-name="uniF7E3" unicode="&#xf7e3;" horiz-adv-x="590" 
d="M0 0l261 561h68l261 -561h-92l-62 131h-285l-61 -131h-90zM293 436l-109 -230h219zM167 635l-38 41c36 39 77 63 113 63c47 0 79 -47 121 -47c25 0 46 11 67 33l32 -43c-35 -43 -73 -61 -106 -61c-52 0 -80 47 -119 47c-24 0 -47 -14 -70 -33z" />
    <glyph glyph-name="uniF7E4" unicode="&#xf7e4;" horiz-adv-x="590" 
d="M0 0l261 561h68l261 -561h-92l-62 131h-285l-61 -131h-90zM293 436l-109 -230h219zM128 697c0 28 24 47 50 47c25 0 51 -19 51 -47c0 -31 -26 -49 -51 -49c-26 0 -50 18 -50 49zM357 697c0 28 25 47 53 47c25 0 51 -19 51 -47c0 -31 -26 -49 -51 -49c-28 0 -53 18 -53 49
z" />
    <glyph glyph-name="uniF7E5" unicode="&#xf7e5;" horiz-adv-x="590" 
d="M0 0l261 561h68l261 -561h-92l-62 131h-285l-61 -131h-90zM293 436l-109 -230h219zM186 712c0 58 46 106 108 106s110 -48 110 -106s-48 -105 -110 -105s-108 47 -108 105zM246 713c0 -28 20 -49 49 -49c28 0 49 17 49 49c0 31 -20 49 -49 49s-49 -20 -49 -49z" />
    <glyph glyph-name="uniF7E6" unicode="&#xf7e6;" horiz-adv-x="953" 
d="M469 0v131h-267l-107 -131h-95l439 560h465v-81h-348v-154h325v-81h-325v-163h356v-81h-443zM256 206h213v269z" />
    <glyph glyph-name="uniF7E7" unicode="&#xf7e7;" horiz-adv-x="587" 
d="M225 -170l25 49c23 -13 49 -22 77 -22c39 0 48 11 48 28c0 22 -19 29 -54 29h-19v81c-168 13 -272 122 -272 285c0 161 118 287 302 287c108 0 191 -42 231 -96l-57 -54c-44 43 -98 66 -171 66c-132 0 -214 -81 -214 -203c0 -123 90 -203 222 -203c79 0 138 29 178 74
l51 -56c-44 -59 -126 -97 -217 -101v-31c69 -3 100 -36 100 -82s-39 -85 -125 -85c-45 0 -81 16 -105 34z" />
    <glyph glyph-name="uniF7E8" unicode="&#xf7e8;" horiz-adv-x="536" 
d="M62 0v560h425v-81h-337v-154h314v-81h-314v-163h345v-81h-433zM312 616l-127 148l66 51l112 -160z" />
    <glyph glyph-name="uniF7E9" unicode="&#xf7e9;" horiz-adv-x="536" 
d="M62 0v560h425v-81h-337v-154h314v-81h-314v-163h345v-81h-433zM408 767l-121 -152l-56 39l113 161z" />
    <glyph glyph-name="uniF7EA" unicode="&#xf7ea;" horiz-adv-x="536" 
d="M62 0v560h425v-81h-337v-154h314v-81h-314v-163h345v-81h-433zM287 792l148 -126l-44 -53l-106 93l-111 -91l-39 52l148 125h4z" />
    <glyph glyph-name="uniF7EB" unicode="&#xf7eb;" horiz-adv-x="536" 
d="M62 0v560h425v-81h-337v-154h314v-81h-314v-163h345v-81h-433zM109 697c0 28 24 47 50 47c25 0 51 -19 51 -47c0 -31 -26 -49 -51 -49c-26 0 -50 18 -50 49zM338 697c0 28 25 47 53 47c25 0 51 -19 51 -47c0 -31 -26 -49 -51 -49c-28 0 -53 18 -53 49z" />
    <glyph glyph-name="uniF7EC" unicode="&#xf7ec;" horiz-adv-x="225" 
d="M69 0v560h87v-560h-87zM120 616l-127 148l66 51l112 -160z" />
    <glyph glyph-name="uniF7ED" unicode="&#xf7ed;" horiz-adv-x="225" 
d="M69 0v560h87v-560h-87zM239 767l-121 -152l-56 39l113 161z" />
    <glyph glyph-name="uniF7EE" unicode="&#xf7ee;" horiz-adv-x="225" 
d="M69 0v560h87v-560h-87zM114 792l148 -126l-44 -53l-106 93l-111 -91l-39 52l148 125h4z" />
    <glyph glyph-name="uniF7EF" unicode="&#xf7ef;" horiz-adv-x="225" 
d="M69 0v560h87v-560h-87zM-54 697c0 28 24 47 50 47c25 0 51 -19 51 -47c0 -31 -26 -49 -51 -49c-26 0 -50 18 -50 49zM175 697c0 28 25 47 53 47c25 0 51 -19 51 -47c0 -31 -26 -49 -51 -49c-28 0 -53 18 -53 49z" />
    <glyph glyph-name="uniF7F0" unicode="&#xf7f0;" horiz-adv-x="658" 
d="M11 242v73h101v245h185c244 0 331 -126 331 -272c0 -160 -105 -288 -341 -288h-175v242h-101zM295 479h-96v-164h157v-73h-157v-161h94c173 0 244 86 244 207c0 110 -64 191 -242 191z" />
    <glyph glyph-name="uniF7F1" unicode="&#xf7f1;" horiz-adv-x="627" 
d="M565 0h-68l-351 407v-407h-84v560h68l351 -409v409h84v-560zM181 635l-38 41c36 39 77 63 113 63c47 0 79 -47 121 -47c25 0 46 11 67 33l32 -43c-35 -43 -73 -61 -106 -61c-52 0 -80 47 -119 47c-24 0 -47 -14 -70 -33z" />
    <glyph glyph-name="uniF7F2" unicode="&#xf7f2;" horiz-adv-x="666" 
d="M30 280c0 162 133 287 303 287c168 0 303 -120 303 -287c0 -165 -135 -287 -303 -287s-303 120 -303 287zM121 280c0 -120 97 -203 212 -203c119 0 212 83 212 203c0 122 -99 203 -212 203c-115 0 -212 -81 -212 -203zM325 616l-127 148l66 51l112 -160z" />
    <glyph glyph-name="uniF7F3" unicode="&#xf7f3;" horiz-adv-x="666" 
d="M30 280c0 162 133 287 303 287c168 0 303 -120 303 -287c0 -165 -135 -287 -303 -287s-303 120 -303 287zM121 280c0 -120 97 -203 212 -203c119 0 212 83 212 203c0 122 -99 203 -212 203c-115 0 -212 -81 -212 -203zM462 767l-121 -152l-56 39l113 161z" />
    <glyph glyph-name="uniF7F4" unicode="&#xf7f4;" horiz-adv-x="666" 
d="M30 280c0 162 133 287 303 287c168 0 303 -120 303 -287c0 -165 -135 -287 -303 -287s-303 120 -303 287zM121 280c0 -120 97 -203 212 -203c119 0 212 83 212 203c0 122 -99 203 -212 203c-115 0 -212 -81 -212 -203zM335 792l148 -126l-44 -53l-106 93l-111 -91l-39 52
l148 125h4z" />
    <glyph glyph-name="uniF7F5" unicode="&#xf7f5;" horiz-adv-x="666" 
d="M30 280c0 162 133 287 303 287c168 0 303 -120 303 -287c0 -165 -135 -287 -303 -287s-303 120 -303 287zM121 280c0 -120 97 -203 212 -203c119 0 212 83 212 203c0 122 -99 203 -212 203c-115 0 -212 -81 -212 -203zM205 635l-38 41c36 39 77 63 113 63
c47 0 79 -47 121 -47c25 0 46 11 67 33l32 -43c-35 -43 -73 -61 -106 -61c-52 0 -80 47 -119 47c-24 0 -47 -14 -70 -33z" />
    <glyph glyph-name="uniF7F6" unicode="&#xf7f6;" horiz-adv-x="666" 
d="M30 280c0 162 133 287 303 287c168 0 303 -120 303 -287c0 -165 -135 -287 -303 -287s-303 120 -303 287zM121 280c0 -120 97 -203 212 -203c119 0 212 83 212 203c0 122 -99 203 -212 203c-115 0 -212 -81 -212 -203zM166 697c0 28 24 47 50 47c25 0 51 -19 51 -47
c0 -31 -26 -49 -51 -49c-26 0 -50 18 -50 49zM395 697c0 28 25 47 53 47c25 0 51 -19 51 -47c0 -31 -26 -49 -51 -49c-28 0 -53 18 -53 49z" />
    <glyph glyph-name="uniF7F8" unicode="&#xf7f8;" horiz-adv-x="666" 
d="M68 34l42 48c-50 50 -80 119 -80 198c0 162 133 287 303 287c59 0 115 -15 161 -42l41 47l58 -47l-39 -46c51 -50 82 -119 82 -199c0 -165 -135 -287 -303 -287c-59 0 -114 15 -161 41l-43 -50zM545 280c0 52 -19 98 -49 132l-266 -311c31 -16 66 -24 103 -24
c119 0 212 83 212 203zM121 280c0 -52 18 -97 47 -131l268 309c-31 16 -66 25 -103 25c-115 0 -212 -81 -212 -203z" />
    <glyph glyph-name="uniF7F9" unicode="&#xf7f9;" horiz-adv-x="614" 
d="M559 560v-322c0 -174 -123 -244 -244 -244c-139 0 -260 83 -260 248v318h87v-306c0 -111 75 -178 173 -178c106 0 157 71 157 174v310h87zM305 616l-127 148l66 51l112 -160z" />
    <glyph glyph-name="uniF7FA" unicode="&#xf7fa;" horiz-adv-x="614" 
d="M559 560v-322c0 -174 -123 -244 -244 -244c-139 0 -260 83 -260 248v318h87v-306c0 -111 75 -178 173 -178c106 0 157 71 157 174v310h87zM432 767l-121 -152l-56 39l113 161z" />
    <glyph glyph-name="uniF7FB" unicode="&#xf7fb;" horiz-adv-x="614" 
d="M559 560v-322c0 -174 -123 -244 -244 -244c-139 0 -260 83 -260 248v318h87v-306c0 -111 75 -178 173 -178c106 0 157 71 157 174v310h87zM309 792l148 -126l-44 -53l-106 93l-111 -91l-39 52l148 125h4z" />
    <glyph glyph-name="uniF7FC" unicode="&#xf7fc;" horiz-adv-x="614" 
d="M559 560v-322c0 -174 -123 -244 -244 -244c-139 0 -260 83 -260 248v318h87v-306c0 -111 75 -178 173 -178c106 0 157 71 157 174v310h87zM141 697c0 28 24 47 50 47c25 0 51 -19 51 -47c0 -31 -26 -49 -51 -49c-26 0 -50 18 -50 49zM370 697c0 28 25 47 53 47
c25 0 51 -19 51 -47c0 -31 -26 -49 -51 -49c-28 0 -53 18 -53 49z" />
    <glyph glyph-name="uniF7FD" unicode="&#xf7fd;" horiz-adv-x="557" 
d="M561 560l-241 -357v-203h-87v203l-237 357h107l177 -265l178 265h103zM399 767l-121 -152l-56 39l113 161z" />
    <glyph glyph-name="uniF7FE" unicode="&#xf7fe;" horiz-adv-x="557" 
d="M149 0h-87v560h87v-88h133c199 0 245 -92 245 -180c0 -91 -63 -181 -246 -181h-132v-111zM286 392h-137v-201h130c110 0 157 41 157 102c0 57 -39 99 -150 99z" />
    <glyph glyph-name="uniF7FF" unicode="&#xf7ff;" horiz-adv-x="557" 
d="M561 560l-241 -357v-203h-87v203l-237 357h107l177 -265l178 265h103zM111 697c0 28 24 47 50 47c25 0 51 -19 51 -47c0 -31 -26 -49 -51 -49c-26 0 -50 18 -50 49zM340 697c0 28 25 47 53 47c25 0 51 -19 51 -47c0 -31 -26 -49 -51 -49c-28 0 -53 18 -53 49z" />
    <glyph glyph-name="uniFE56" unicode="&#xfe56;" horiz-adv-x="408" 
d="M293 411c0 42 -36 72 -92 72c-43 0 -88 -16 -113 -65l-70 32c32 83 112 117 186 117c113 0 177 -62 177 -142c0 -86 -52 -125 -99 -157c-40 -28 -64 -47 -64 -79c0 -19 2 -24 4 -34l-77 -1c-4 14 -7 32 -6 43c3 62 46 91 89 121c34 23 65 46 65 93zM129 46
c0 22 21 45 53 45c28 0 49 -23 49 -45c0 -25 -21 -48 -49 -48c-32 0 -53 23 -53 48z" />
    <glyph glyph-name="uniFE57" unicode="&#xfe57;" horiz-adv-x="264" 
d="M89 155v405h85v-405h-85zM80 46c0 22 21 45 52 45c28 0 50 -23 50 -45c0 -25 -22 -48 -50 -48c-31 0 -52 23 -52 48z" />
    <glyph glyph-name="uniFEFF" unicode="&#xfeff;" horiz-adv-x="0" 
 />
    <glyph glyph-name="nbspace" horiz-adv-x="300" 
 />
    <glyph glyph-name="caron.l" horiz-adv-x="199" 
d="M83 719h87c8 -15 12 -35 12 -64c0 -68 -50 -125 -95 -152l-37 35c33 25 52 73 52 105c0 31 -9 62 -19 76z" />
    <glyph glyph-name="caron.lsmall" horiz-adv-x="199" 
d="M83 560h87c8 -15 12 -35 12 -64c0 -68 -50 -125 -95 -153l-37 35c33 26 52 74 52 106c0 31 -9 62 -19 76z" />
    <glyph glyph-name="a.ss02" 
d="M455 0v62c-19 -30 -75 -71 -173 -71c-135 0 -250 101 -250 268c0 162 115 273 264 273c79 0 128 -19 159 -53v42h84v-521h-84zM298 71c86 0 138 59 157 99v206c-29 47 -78 77 -145 77c-106 0 -189 -74 -189 -192c0 -128 89 -190 177 -190z" />
    <glyph glyph-name="afii10065.ss02" 
d="M455 0v62c-19 -30 -75 -71 -173 -71c-135 0 -250 101 -250 268c0 162 115 273 264 273c79 0 128 -19 159 -53v42h84v-521h-84zM298 71c86 0 138 59 157 99v206c-29 47 -78 77 -145 77c-106 0 -189 -74 -189 -192c0 -128 89 -190 177 -190z" />
    <glyph glyph-name="afii10065.var.accented.ss02" 
d="M455 0v62c-19 -30 -75 -71 -173 -71c-135 0 -250 101 -250 268c0 162 115 273 264 273c79 0 128 -19 159 -53v42h84v-521h-84zM298 71c86 0 138 59 157 99v206c-29 47 -78 77 -145 77c-106 0 -189 -74 -189 -192c0 -128 89 -190 177 -190zM435 759l-122 -151l-56 39
l114 160z" />
    <glyph glyph-name="agrave.ss02" 
d="M455 0v62c-19 -30 -75 -71 -173 -71c-135 0 -250 101 -250 268c0 162 115 273 264 273c79 0 128 -19 159 -53v42h84v-521h-84zM298 71c86 0 138 59 157 99v206c-29 47 -78 77 -145 77c-106 0 -189 -74 -189 -192c0 -128 89 -190 177 -190zM320 608l-128 149l66 50
l112 -159z" />
    <glyph glyph-name="aacute.ss02" 
d="M455 0v62c-19 -30 -75 -71 -173 -71c-135 0 -250 101 -250 268c0 162 115 273 264 273c79 0 128 -19 159 -53v42h84v-521h-84zM298 71c86 0 138 59 157 99v206c-29 47 -78 77 -145 77c-106 0 -189 -74 -189 -192c0 -128 89 -190 177 -190zM435 759l-122 -151l-56 39
l114 160z" />
    <glyph glyph-name="atilde.ss02" 
d="M455 0v62c-19 -30 -75 -71 -173 -71c-135 0 -250 101 -250 268c0 162 115 273 264 273c79 0 128 -19 159 -53v42h84v-521h-84zM298 71c86 0 138 59 157 99v206c-29 47 -78 77 -145 77c-106 0 -189 -74 -189 -192c0 -128 89 -190 177 -190zM168 624l-38 41
c36 39 77 63 113 63c47 0 79 -47 121 -47c25 0 46 11 67 33l31 -43c-34 -43 -72 -61 -105 -61c-52 0 -80 47 -119 47c-24 0 -47 -14 -70 -33z" />
    <glyph glyph-name="adieresis.ss02" 
d="M455 0v62c-19 -30 -75 -71 -173 -71c-135 0 -250 101 -250 268c0 162 115 273 264 273c79 0 128 -19 159 -53v42h84v-521h-84zM298 71c86 0 138 59 157 99v206c-29 47 -78 77 -145 77c-106 0 -189 -74 -189 -192c0 -128 89 -190 177 -190zM125 682c0 28 24 47 50 47
c25 0 51 -19 51 -47c0 -30 -26 -49 -51 -49c-26 0 -50 19 -50 49zM354 682c0 28 25 47 53 47c25 0 51 -19 51 -47c0 -30 -26 -49 -51 -49c-28 0 -53 19 -53 49z" />
    <glyph glyph-name="aring.ss02" 
d="M455 0v62c-19 -30 -75 -71 -173 -71c-135 0 -250 101 -250 268c0 162 115 273 264 273c79 0 128 -19 159 -53v42h84v-521h-84zM298 71c86 0 138 59 157 99v206c-29 47 -78 77 -145 77c-106 0 -189 -74 -189 -192c0 -128 89 -190 177 -190zM199 701c0 58 47 106 109 106
s110 -48 110 -106s-48 -105 -110 -105s-109 47 -109 105zM260 702c0 -29 20 -50 49 -50c27 0 48 18 48 50c0 31 -19 49 -48 49s-49 -20 -49 -49z" />
    <glyph glyph-name="aogonek.ss02" 
d="M527 -119l25 -58c-17 -12 -45 -23 -83 -23c-57 0 -117 29 -117 98c0 55 48 92 103 111v53c-19 -30 -75 -71 -173 -71c-135 0 -250 101 -250 268c0 162 115 273 264 273c79 0 128 -19 159 -53v53h84v-532h-1c-43 0 -99 -36 -99 -81c0 -28 19 -48 43 -48c14 0 28 2 45 10z
M298 71c86 0 138 59 157 99v206c-29 47 -78 77 -145 77c-106 0 -189 -74 -189 -192c0 -128 89 -190 177 -190z" />
    <glyph glyph-name="abreve.ss02" 
d="M455 0v62c-19 -30 -75 -71 -173 -71c-135 0 -250 101 -250 268c0 162 115 273 264 273c79 0 128 -19 159 -53v42h84v-521h-84zM298 71c86 0 138 59 157 99v206c-29 47 -78 77 -145 77c-106 0 -189 -74 -189 -192c0 -128 89 -190 177 -190zM148 727l38 41
c20 -24 67 -57 118 -57c53 0 95 25 119 56l30 -40c-30 -45 -78 -92 -152 -92c-80 0 -135 64 -153 92z" />
    <glyph glyph-name="amacron.ss02" 
d="M455 0v62c-19 -30 -75 -71 -173 -71c-135 0 -250 101 -250 268c0 162 115 273 264 273c79 0 128 -19 159 -53v42h84v-521h-84zM298 71c86 0 138 59 157 99v206c-29 47 -78 77 -145 77c-106 0 -189 -74 -189 -192c0 -128 89 -190 177 -190zM169 638v74h269v-74h-269z" />
    <glyph glyph-name="K.ss01" horiz-adv-x="661" 
d="M74 0v700h91v-300h78l283 300h112l-314 -331l338 -369h-125l-287 315h-85v-315h-91z" />
    <glyph glyph-name="k.ss01" horiz-adv-x="524" 
d="M61 0v730h84v-417h45l214 207h106l-239 -237l256 -283h-111l-213 234h-58v-234h-84z" />
    <glyph glyph-name="afii10076.ss01" horiz-adv-x="533" 
d="M61 0v520h84v-218h49l210 218h106l-239 -248l256 -272h-111l-213 223h-58v-223h-84z" />
    <glyph glyph-name="afii10061.ss01" horiz-adv-x="661" 
d="M74 0v700h91v-300h78l283 300h112l-314 -331l338 -369h-125l-287 315h-85v-315h-91zM482 852l-200 -97l-31 56l193 115z" />
    <glyph glyph-name="afii10109.ss01" horiz-adv-x="533" 
d="M61 0v520h84v-218h49l210 218h106l-239 -248l256 -272h-111l-213 223h-58v-223h-84zM395 759l-122 -151l-56 39l114 160z" />
    <glyph glyph-name="afii10024.ss01" horiz-adv-x="929" 
d="M296 370l-288 330h111l258 -297h42v297h91v-297h44l256 297h112l-290 -330l296 -370h-109l-253 315h-56v-315h-91v315h-58l-254 -315h-105z" />
    <glyph glyph-name="afii10028.ss01" horiz-adv-x="661" 
d="M74 0v700h91v-300h78l283 300h112l-314 -331l338 -369h-125l-287 315h-85v-315h-91z" />
    <glyph glyph-name="afii10072.ss01" horiz-adv-x="734" 
d="M217 267l-212 253h107l181 -217h30v217h84v-217h29l185 217h104l-219 -250l228 -270h-104l-188 222h-35v-222h-84v222h-40l-181 -222h-102z" />
    <glyph glyph-name="Kcommaaccent.ss01" horiz-adv-x="661" 
d="M74 0v700h91v-300h78l283 300h112l-314 -331l338 -369h-125l-287 315h-85v-315h-91zM244 -91l70 46c20 -17 40 -45 40 -79c0 -68 -47 -117 -82 -138l-39 33c21 21 39 49 39 81c0 26 -12 41 -28 57z" />
    <glyph glyph-name="kcommaaccent.ss01" horiz-adv-x="524" 
d="M61 0v730h84v-417h45l214 207h106l-239 -237l256 -283h-111l-213 234h-58v-234h-84zM214 -91l70 46c20 -17 40 -45 40 -79c0 -68 -47 -117 -82 -138l-39 33c21 21 39 49 39 81c0 26 -12 41 -28 57z" />
    <glyph glyph-name="uniF356.ss01" horiz-adv-x="796" 
d="M239 286l-234 274h106l209 -242l34 1v241h87v-242h40l203 242h107l-236 -274l240 -286h-104l-204 238h-46v-238h-87v238h-51l-202 -238h-100z" />
    <glyph glyph-name="uniF35A.ss01" horiz-adv-x="569" 
d="M62 0v560h87v-243h62l226 243h115l-255 -272l274 -288h-115l-234 237h-73v-237h-87z" />
    <glyph glyph-name="uniF37C.ss01" horiz-adv-x="569" 
d="M62 0v560h87v-243h62l226 243h115l-255 -272l274 -288h-115l-234 237h-73v-237h-87zM401 767l-121 -152l-56 39l113 161z" />
    <glyph glyph-name="uniF76B.ss01" horiz-adv-x="569" 
d="M62 0v560h87v-243h62l226 243h115l-255 -272l274 -288h-115l-234 237h-73v-237h-87z" />
    <glyph glyph-name="uniF689.ss01" horiz-adv-x="569" 
d="M62 0v560h87v-243h62l226 243h115l-255 -272l274 -288h-115l-234 237h-73v-237h-87zM224 -91l70 46c20 -17 40 -45 40 -79c0 -68 -47 -117 -82 -138l-39 33c21 21 39 49 39 81c0 26 -12 41 -28 57z" />
    <glyph glyph-name="acircumflex.ss02" 
d="M455 0v62c-19 -30 -75 -71 -173 -71c-135 0 -250 101 -250 268c0 162 115 273 264 273c79 0 128 -19 159 -53v42h84v-521h-84zM298 71c86 0 138 59 157 99v206c-29 47 -78 77 -145 77c-106 0 -189 -74 -189 -192c0 -128 89 -190 177 -190zM296 785l149 -127l-44 -53
l-106 93l-111 -90l-39 51l147 126h4z" />
    </font>
</defs>
</svg>
